<?xml version="1.0" encoding="UTF-8"?><svg xmlns="http://www.w3.org/2000/svg" viewBox="0 0 704.75 181.25"><defs><style>.d{fill:#1e5f2f;}.e{fill:#93c09d;}</style></defs><g id="a"/><g id="b"><g id="c"><g><rect class="e" y="72.62" width="704.75" height="35.43"/><polygon class="d" points="267.26 36.05 267.5 72.31 379.73 72.6 379.73 108.05 267.46 108.05 267.26 181.25 231.21 181.25 231.21 0 423.83 0 423.83 36.05 267.26 36.05"/><path class="d" d="M225.15,60.34V30.72c0-16.57-13.43-30-30-30H22.27V181.25H195.15c16.57,0,30-13.43,30-30v-26.55c0-14.94-10.91-27.32-25.2-29.61v-5.14c14.29-2.29,25.2-14.67,25.2-29.61Zm-36.08,83.78l-130.72,1.05V36.81H189.07v35.91l-96-.25-.03,35.74h96.03v35.91Z"/><path class="d" d="M647.65,30v21.5h-36.06v-15.45h-146.64v109.15h146.64v-36.8h-97.39v-36.05h133.45v78.9c0,16.57-13.43,30-30,30h-158.76c-16.57,0-30-13.43-30-30V30c0-16.57,13.43-30,30-30h158.76c16.57,0,30,13.43,30,30Z"/></g></g></g></svg>