<svg width="377" height="515" viewBox="0 0 377 515" fill="none" xmlns="http://www.w3.org/2000/svg">
<mask id="mask0_1162_1181" style="mask-type:alpha" maskUnits="userSpaceOnUse" x="0" y="0" width="377" height="515">
<rect width="377" height="515" fill="#D9D9D9"/>
</mask>
<g mask="url(#mask0_1162_1181)">
<path d="M133.152 229.401C232.402 236.235 376 218.285 376 218.285V129.445C376 129.445 283.932 164.235 187.27 164.235C90.6079 164.235 -10.6101 115.761 -10.6101 115.761C-10.6101 115.761 -39.4791 158.245 -14.9681 189.486C-4.27606 203.116 47.8379 225.111 133.152 229.401Z" fill="#15A44A"/>
<path d="M65.7894 476.945H87.6624C87.8211 476.939 87.9712 476.871 88.0812 476.756C88.1912 476.642 88.2526 476.489 88.2526 476.33C88.2526 476.172 88.1912 476.019 88.0812 475.904C87.9712 475.79 87.8211 475.722 87.6624 475.716H65.7894C65.6307 475.722 65.4807 475.79 65.3707 475.904C65.2607 476.019 65.1992 476.172 65.1992 476.33C65.1992 476.489 65.2607 476.642 65.3707 476.756C65.4807 476.871 65.6307 476.939 65.7894 476.945V476.945Z" fill="#161616"/>
<path d="M161.926 476.207H178.146C178.305 476.201 178.455 476.133 178.565 476.018C178.675 475.904 178.736 475.751 178.736 475.592C178.736 475.434 178.675 475.281 178.565 475.166C178.455 475.052 178.305 474.984 178.146 474.978H161.926C161.763 474.978 161.607 475.043 161.492 475.158C161.376 475.273 161.312 475.429 161.312 475.592C161.312 475.755 161.376 475.912 161.492 476.027C161.607 476.142 161.763 476.207 161.926 476.207V476.207Z" fill="#161616"/>
<path d="M186.009 475.471H195.43C195.589 475.465 195.739 475.397 195.849 475.282C195.959 475.168 196.02 475.015 196.02 474.856C196.02 474.698 195.959 474.545 195.849 474.43C195.739 474.316 195.589 474.248 195.43 474.242H186.009C185.85 474.248 185.7 474.316 185.59 474.43C185.48 474.545 185.419 474.698 185.419 474.856C185.419 475.015 185.48 475.168 185.59 475.282C185.7 475.397 185.85 475.465 186.009 475.471V475.471Z" fill="#161616"/>
<path d="M147.424 426.36H69.6401C68.3378 426.356 67.0899 425.837 66.169 424.916C65.2482 423.995 64.7291 422.747 64.7251 421.445V418.905C64.7291 417.603 65.2482 416.355 66.169 415.434C67.0899 414.513 68.3378 413.994 69.6401 413.99H147.424C148.726 413.994 149.974 414.513 150.895 415.434C151.816 416.355 152.335 417.603 152.339 418.905V421.445C152.335 422.747 151.816 423.995 150.895 424.916C149.974 425.837 148.726 426.356 147.424 426.36V426.36Z" stroke="#161616" stroke-width="0.637" stroke-miterlimit="10"/>
<path d="M155.043 439.385H77.2592C75.9569 439.381 74.7091 438.862 73.7882 437.941C72.8673 437.02 72.3482 435.772 72.3442 434.47V431.93C72.3482 430.628 72.8673 429.38 73.7882 428.459C74.7091 427.538 75.9569 427.019 77.2592 427.015H155.043C156.346 427.019 157.593 427.538 158.514 428.459C159.435 429.38 159.954 430.628 159.958 431.93V434.47C159.954 435.772 159.435 437.02 158.514 437.941C157.593 438.862 156.346 439.381 155.043 439.385V439.385Z" stroke="#161616" stroke-width="0.637" stroke-miterlimit="10"/>
<path d="M137.102 452.083H59.3183C58.016 452.079 56.7681 451.56 55.8473 450.639C54.9264 449.718 54.4073 448.47 54.4033 447.168V444.628C54.4073 443.326 54.9264 442.078 55.8473 441.157C56.7681 440.236 58.016 439.717 59.3183 439.713H137.102C138.405 439.717 139.652 440.236 140.573 441.157C141.494 442.078 142.013 443.326 142.017 444.628V447.168C142.013 448.47 141.494 449.718 140.573 450.639C139.652 451.56 138.405 452.079 137.102 452.083V452.083Z" fill="#15A44A" stroke="#161616" stroke-width="0.637" stroke-miterlimit="10"/>
<path d="M146.605 464.042H68.8623C67.56 464.038 66.3121 463.519 65.3912 462.598C64.4703 461.677 63.9512 460.429 63.9473 459.127V456.587C63.9512 455.285 64.4703 454.037 65.3912 453.116C66.3121 452.195 67.56 451.676 68.8623 451.672H146.644C147.947 451.676 149.194 452.195 150.115 453.116C151.036 454.037 151.555 455.285 151.559 456.587V459.127C151.539 460.431 151.01 461.675 150.084 462.594C149.158 463.512 147.909 464.032 146.605 464.042V464.042Z" stroke="#161616" stroke-width="0.637" stroke-miterlimit="10"/>
<path d="M155.043 476.413H77.2592C75.9569 476.409 74.7091 475.89 73.7882 474.969C72.8673 474.048 72.3482 472.8 72.3442 471.498V468.958C72.3482 467.656 72.8673 466.408 73.7882 465.487C74.7091 464.566 75.9569 464.047 77.2592 464.043H155.043C156.346 464.047 157.593 464.566 158.514 465.487C159.435 466.408 159.954 467.656 159.958 468.958V471.498C159.954 472.8 159.435 474.048 158.514 474.969C157.593 475.89 156.346 476.409 155.043 476.413V476.413Z" stroke="#161616" stroke-width="0.637" stroke-miterlimit="10"/>
<path d="M124.691 419.313V424.392C124.699 424.512 124.752 424.624 124.84 424.706C124.927 424.788 125.043 424.833 125.162 424.833C125.282 424.833 125.398 424.788 125.485 424.706C125.573 424.624 125.626 424.512 125.633 424.392V419.313C125.633 419.188 125.584 419.068 125.495 418.98C125.407 418.892 125.287 418.842 125.162 418.842C125.037 418.842 124.918 418.892 124.829 418.98C124.741 419.068 124.691 419.188 124.691 419.313V419.313Z" fill="#161616"/>
<path d="M127.435 420.215V424.844C127.443 424.964 127.496 425.076 127.583 425.158C127.671 425.24 127.786 425.285 127.906 425.285C128.026 425.285 128.141 425.24 128.229 425.158C128.316 425.076 128.369 424.964 128.377 424.844V420.215C128.366 420.098 128.312 419.988 128.225 419.909C128.138 419.829 128.024 419.785 127.906 419.785C127.788 419.785 127.674 419.829 127.587 419.909C127.5 419.988 127.446 420.098 127.435 420.215V420.215Z" fill="#161616"/>
<path d="M136.692 417.675V424.147C136.7 424.267 136.753 424.379 136.841 424.461C136.928 424.543 137.044 424.588 137.163 424.588C137.283 424.588 137.399 424.543 137.486 424.461C137.574 424.379 137.627 424.267 137.634 424.147V417.675C137.624 417.558 137.569 417.448 137.482 417.369C137.395 417.289 137.281 417.245 137.163 417.245C137.045 417.245 136.932 417.289 136.845 417.369C136.758 417.448 136.703 417.558 136.692 417.675V417.675Z" fill="#161616"/>
<path d="M138.535 421.362V423.902C138.543 424.022 138.596 424.134 138.683 424.216C138.771 424.298 138.886 424.343 139.006 424.343C139.126 424.343 139.241 424.298 139.329 424.216C139.416 424.134 139.469 424.022 139.477 423.902V421.362C139.466 421.245 139.412 421.135 139.325 421.056C139.238 420.976 139.124 420.932 139.006 420.932C138.888 420.932 138.775 420.976 138.687 421.056C138.6 421.135 138.546 421.245 138.535 421.362V421.362Z" fill="#161616"/>
<path d="M74.9653 417.512V424.68C74.9731 424.799 75.0261 424.912 75.1136 424.994C75.2011 425.076 75.3165 425.121 75.4363 425.121C75.5562 425.121 75.6716 425.076 75.759 424.994C75.8465 424.912 75.8995 424.799 75.9073 424.68V417.512C75.9073 417.387 75.8577 417.267 75.7694 417.179C75.681 417.091 75.5612 417.041 75.4363 417.041C75.3114 417.041 75.1916 417.091 75.1033 417.179C75.015 417.267 74.9653 417.387 74.9653 417.512V417.512Z" fill="#161616"/>
<path d="M71.1553 419.314V423.533C71.1631 423.653 71.2161 423.765 71.3036 423.847C71.391 423.929 71.5064 423.974 71.6263 423.974C71.7461 423.974 71.8615 423.929 71.949 423.847C72.0365 423.765 72.0895 423.653 72.0973 423.533V419.314C72.0864 419.197 72.0321 419.087 71.945 419.008C71.8579 418.928 71.7442 418.884 71.6263 418.884C71.5083 418.884 71.3947 418.928 71.3075 419.008C71.2204 419.087 71.1661 419.197 71.1553 419.314V419.314Z" fill="#161616"/>
<path d="M86.4751 417.797V423.531C86.4829 423.651 86.5359 423.763 86.6234 423.845C86.7109 423.927 86.8262 423.972 86.9461 423.972C87.066 423.972 87.1813 423.927 87.2688 423.845C87.3563 423.763 87.4093 423.651 87.4171 423.531V417.797C87.4171 417.672 87.3675 417.552 87.2791 417.464C87.1908 417.376 87.071 417.326 86.9461 417.326C86.8212 417.326 86.7014 417.376 86.6131 417.464C86.5247 417.552 86.4751 417.672 86.4751 417.797V417.797Z" fill="#161616"/>
<path d="M82.2563 421.154V424.963C82.2641 425.083 82.3172 425.195 82.4046 425.277C82.4921 425.359 82.6075 425.404 82.7273 425.404C82.8472 425.404 82.9626 425.359 83.0501 425.277C83.1375 425.195 83.1906 425.083 83.1983 424.963V421.154C83.1983 421.029 83.1487 420.909 83.0604 420.821C82.9721 420.733 82.8523 420.683 82.7273 420.683C82.6024 420.683 82.4826 420.733 82.3943 420.821C82.306 420.909 82.2563 421.029 82.2563 421.154V421.154Z" fill="#161616"/>
<path d="M103.719 417.921V425.376C103.727 425.496 103.78 425.608 103.868 425.69C103.955 425.772 104.07 425.817 104.19 425.817C104.31 425.817 104.425 425.772 104.513 425.69C104.6 425.608 104.653 425.496 104.661 425.376V417.921C104.65 417.804 104.596 417.694 104.509 417.615C104.422 417.535 104.308 417.491 104.19 417.491C104.072 417.491 103.959 417.535 103.872 417.615C103.784 417.694 103.73 417.804 103.719 417.921V417.921Z" fill="#161616"/>
<path d="M106.545 420.748V424.557C106.553 424.677 106.606 424.789 106.694 424.871C106.781 424.953 106.897 424.998 107.016 424.998C107.136 424.998 107.252 424.953 107.339 424.871C107.427 424.789 107.48 424.677 107.487 424.557V420.748C107.487 420.623 107.438 420.503 107.349 420.415C107.261 420.327 107.141 420.277 107.016 420.277C106.892 420.277 106.772 420.327 106.683 420.415C106.595 420.503 106.545 420.623 106.545 420.748V420.748Z" fill="#161616"/>
<path d="M110.723 417.348V424.803C110.731 424.922 110.784 425.035 110.871 425.117C110.959 425.199 111.074 425.244 111.194 425.244C111.314 425.244 111.429 425.199 111.517 425.117C111.604 425.035 111.657 424.922 111.665 424.803V417.348C111.654 417.23 111.6 417.121 111.513 417.042C111.426 416.962 111.312 416.918 111.194 416.918C111.076 416.918 110.963 416.962 110.875 417.042C110.788 417.121 110.734 417.23 110.723 417.348V417.348Z" fill="#161616"/>
<path d="M83.3623 429.841V438.688C83.3701 438.808 83.4231 438.92 83.5106 439.002C83.5981 439.084 83.7134 439.129 83.8333 439.129C83.9532 439.129 84.0685 439.084 84.156 439.002C84.2435 438.92 84.2965 438.808 84.3043 438.688V429.841C84.2935 429.724 84.2392 429.614 84.152 429.535C84.0649 429.455 83.9512 429.411 83.8333 429.411C83.7154 429.411 83.6017 429.455 83.5146 429.535C83.4274 429.614 83.3731 429.724 83.3623 429.841V429.841Z" fill="#161616"/>
<path d="M88.4414 432.79V439.098C88.4492 439.218 88.5022 439.33 88.5897 439.412C88.6772 439.494 88.7925 439.539 88.9124 439.539C89.0323 439.539 89.1477 439.494 89.2351 439.412C89.3226 439.33 89.3756 439.218 89.3834 439.098V432.79C89.3424 432.217 88.4414 432.217 88.4414 432.79Z" fill="#161616"/>
<path d="M104.866 431.11V437.418C104.874 437.538 104.927 437.65 105.014 437.732C105.102 437.814 105.217 437.859 105.337 437.859C105.457 437.859 105.572 437.814 105.66 437.732C105.747 437.65 105.8 437.538 105.808 437.418V431.11C105.767 430.537 104.866 430.537 104.866 431.11Z" fill="#161616"/>
<path d="M115.516 428.857V439.097C115.524 439.217 115.577 439.329 115.664 439.411C115.752 439.493 115.867 439.538 115.987 439.538C116.107 439.538 116.222 439.493 116.31 439.411C116.397 439.329 116.45 439.217 116.458 439.097V428.857C116.417 428.284 115.516 428.284 115.516 428.857Z" fill="#161616"/>
<path d="M125.181 432.954V436.313C125.189 436.433 125.242 436.545 125.329 436.627C125.417 436.709 125.532 436.754 125.652 436.754C125.772 436.754 125.887 436.709 125.975 436.627C126.062 436.545 126.115 436.433 126.123 436.313V432.954C126.123 432.829 126.074 432.709 125.985 432.621C125.897 432.533 125.777 432.483 125.652 432.483C125.527 432.483 125.407 432.533 125.319 432.621C125.231 432.709 125.181 432.829 125.181 432.954V432.954Z" fill="#161616"/>
<path d="M63.9873 443.193V451.344C63.9951 451.464 64.0481 451.576 64.1356 451.658C64.2231 451.74 64.3384 451.785 64.4583 451.785C64.5782 451.785 64.6935 451.74 64.781 451.658C64.8685 451.576 64.9215 451.464 64.9293 451.344V443.193C64.9293 443.068 64.8797 442.948 64.7914 442.86C64.703 442.772 64.5832 442.722 64.4583 442.722C64.3334 442.722 64.2136 442.772 64.1253 442.86C64.0369 442.948 63.9873 443.068 63.9873 443.193Z" fill="#161616"/>
<path d="M85.6143 443.481V451.919C85.6221 452.039 85.6751 452.151 85.7625 452.233C85.85 452.315 85.9654 452.36 86.0853 452.36C86.2051 452.36 86.3205 452.315 86.408 452.233C86.4954 452.151 86.5485 452.039 86.5563 451.919V443.481C86.5563 443.356 86.5066 443.236 86.4183 443.148C86.33 443.06 86.2102 443.01 86.0853 443.01C85.9603 443.01 85.8405 443.06 85.7522 443.148C85.6639 443.236 85.6143 443.356 85.6143 443.481Z" fill="#161616"/>
<path d="M76.644 444.18V449.792C76.6518 449.912 76.7049 450.024 76.7923 450.106C76.8798 450.188 76.9952 450.233 77.115 450.233C77.2349 450.233 77.3503 450.188 77.4378 450.106C77.5252 450.024 77.5782 449.912 77.586 449.792V444.18C77.586 444.055 77.5364 443.935 77.4481 443.847C77.3598 443.759 77.24 443.709 77.115 443.709C76.9901 443.709 76.8703 443.759 76.782 443.847C76.6937 443.935 76.644 444.055 76.644 444.18Z" fill="#161616"/>
<path d="M79.7163 442.334V446.963C79.7241 447.083 79.7771 447.195 79.8646 447.277C79.9521 447.359 80.0674 447.404 80.1873 447.404C80.3072 447.404 80.4226 447.359 80.51 447.277C80.5975 447.195 80.6505 447.083 80.6583 446.963V442.334C80.6475 442.217 80.5932 442.107 80.506 442.028C80.4189 441.948 80.3052 441.904 80.1873 441.904C80.0694 441.904 79.9557 441.948 79.8686 442.028C79.7814 442.107 79.7271 442.217 79.7163 442.334V442.334Z" fill="#161616"/>
<path d="M109.494 442.498V451.059C109.502 451.179 109.555 451.291 109.642 451.373C109.73 451.455 109.845 451.5 109.965 451.5C110.085 451.5 110.2 451.455 110.288 451.373C110.375 451.291 110.428 451.179 110.436 451.059V442.498C110.436 442.373 110.387 442.253 110.298 442.165C110.21 442.077 110.09 442.027 109.965 442.027C109.84 442.027 109.72 442.077 109.632 442.165C109.544 442.253 109.494 442.373 109.494 442.498V442.498Z" fill="#161616"/>
<path d="M101.753 442.334V444.423C101.761 444.543 101.814 444.655 101.902 444.737C101.989 444.819 102.105 444.864 102.224 444.864C102.344 444.864 102.46 444.819 102.547 444.737C102.635 444.655 102.688 444.543 102.695 444.423V442.334C102.685 442.217 102.63 442.107 102.543 442.028C102.456 441.948 102.342 441.904 102.224 441.904C102.106 441.904 101.993 441.948 101.906 442.028C101.819 442.107 101.764 442.217 101.753 442.334V442.334Z" fill="#161616"/>
<path d="M127.845 439.835V447.986C127.853 448.106 127.906 448.218 127.993 448.3C128.081 448.382 128.196 448.427 128.316 448.427C128.436 448.427 128.551 448.382 128.639 448.3C128.726 448.218 128.779 448.106 128.787 447.986V439.835C128.787 439.71 128.738 439.59 128.649 439.502C128.561 439.414 128.441 439.364 128.316 439.364C128.191 439.364 128.071 439.414 127.983 439.502C127.895 439.59 127.845 439.71 127.845 439.835V439.835Z" fill="#161616"/>
<path d="M131.941 445.692V450.607C131.949 450.727 132.002 450.839 132.09 450.921C132.177 451.003 132.293 451.048 132.412 451.048C132.532 451.048 132.648 451.003 132.735 450.921C132.823 450.839 132.876 450.727 132.883 450.607V445.692C132.842 445.119 131.941 445.119 131.941 445.692Z" fill="#161616"/>
<path d="M117.195 442.334V449.502C117.203 449.622 117.256 449.734 117.344 449.816C117.431 449.898 117.546 449.943 117.666 449.943C117.786 449.943 117.902 449.898 117.989 449.816C118.077 449.734 118.13 449.622 118.137 449.502V442.334C118.126 442.217 118.072 442.107 117.985 442.028C117.898 441.948 117.784 441.904 117.666 441.904C117.548 441.904 117.435 441.948 117.348 442.028C117.26 442.107 117.206 442.217 117.195 442.334V442.334Z" fill="#161616"/>
<path d="M71.8521 453.024V462.158C71.8598 462.278 71.9129 462.39 72.0003 462.472C72.0878 462.554 72.2032 462.599 72.323 462.599C72.4429 462.599 72.5583 462.554 72.6458 462.472C72.7332 462.39 72.7863 462.278 72.7941 462.158V453.024C72.7941 452.899 72.7444 452.779 72.6561 452.691C72.5678 452.603 72.448 452.553 72.323 452.553C72.1981 452.553 72.0783 452.603 71.99 452.691C71.9017 452.779 71.8521 452.899 71.8521 453.024Z" fill="#161616"/>
<path d="M78.982 463.797V454.663C78.9742 454.543 78.9212 454.431 78.8338 454.349C78.7463 454.267 78.6309 454.222 78.511 454.222C78.3912 454.222 78.2758 454.267 78.1883 454.349C78.1009 454.431 78.0478 454.543 78.04 454.663V463.797C78.04 463.922 78.0897 464.042 78.178 464.13C78.2663 464.218 78.3861 464.268 78.511 464.268C78.636 464.268 78.7558 464.218 78.8441 464.13C78.9324 464.042 78.982 463.922 78.982 463.797V463.797Z" fill="#161616"/>
<path d="M81.9283 463.551V460.028C81.9205 459.908 81.8675 459.796 81.78 459.714C81.6926 459.632 81.5772 459.587 81.4573 459.587C81.3375 459.587 81.2221 459.632 81.1346 459.714C81.0471 459.796 80.9941 459.908 80.9863 460.028V463.551C80.9972 463.668 81.0515 463.778 81.1386 463.857C81.2257 463.936 81.3394 463.98 81.4573 463.98C81.5752 463.98 81.6889 463.936 81.776 463.857C81.8632 463.778 81.9175 463.668 81.9283 463.551Z" fill="#161616"/>
<path d="M88.4414 452.327V461.871C88.4492 461.991 88.5022 462.103 88.5897 462.185C88.6772 462.267 88.7925 462.312 88.9124 462.312C89.0323 462.312 89.1477 462.267 89.2351 462.185C89.3226 462.103 89.3756 461.991 89.3834 461.871V452.327C89.3834 452.202 89.3338 452.082 89.2455 451.994C89.1571 451.906 89.0373 451.856 88.9124 451.856C88.7875 451.856 88.6677 451.906 88.5794 451.994C88.491 452.082 88.4414 452.202 88.4414 452.327Z" fill="#161616"/>
<path d="M90.8164 456.797V461.297C90.8242 461.417 90.8772 461.529 90.9647 461.611C91.0522 461.693 91.1675 461.738 91.2874 461.738C91.4073 461.738 91.5227 461.693 91.6101 461.611C91.6976 461.529 91.7506 461.417 91.7584 461.297V456.797C91.7174 456.224 90.8164 456.224 90.8164 456.797Z" fill="#161616"/>
<path d="M94.0483 455.114V460.029C94.0561 460.149 94.1092 460.261 94.1966 460.343C94.2841 460.425 94.3995 460.47 94.5193 460.47C94.6392 460.47 94.7546 460.425 94.8421 460.343C94.9295 460.261 94.9825 460.149 94.9903 460.029V455.114C94.9493 454.541 94.0483 454.541 94.0483 455.114Z" fill="#161616"/>
<path d="M104.579 452.327V462.28C104.587 462.4 104.64 462.512 104.727 462.594C104.815 462.676 104.93 462.721 105.05 462.721C105.17 462.721 105.285 462.676 105.373 462.594C105.46 462.512 105.513 462.4 105.521 462.28V452.327C105.521 452.202 105.471 452.082 105.383 451.994C105.295 451.906 105.175 451.856 105.05 451.856C104.925 451.856 104.805 451.906 104.717 451.994C104.629 452.082 104.579 452.202 104.579 452.327V452.327Z" fill="#161616"/>
<path d="M115.229 455.974V461.463C115.237 461.583 115.29 461.695 115.377 461.777C115.465 461.859 115.58 461.904 115.7 461.904C115.82 461.904 115.935 461.859 116.023 461.777C116.11 461.695 116.163 461.583 116.171 461.463V455.974C116.171 455.849 116.121 455.729 116.033 455.641C115.945 455.553 115.825 455.503 115.7 455.503C115.575 455.503 115.455 455.553 115.367 455.641C115.279 455.729 115.229 455.849 115.229 455.974Z" fill="#161616"/>
<path d="M129.812 452.041V462.568C129.82 462.688 129.873 462.8 129.96 462.882C130.048 462.964 130.163 463.009 130.283 463.009C130.403 463.009 130.518 462.964 130.606 462.882C130.693 462.8 130.746 462.688 130.754 462.568V452.041C130.754 451.916 130.704 451.796 130.616 451.708C130.528 451.62 130.408 451.57 130.283 451.57C130.158 451.57 130.038 451.62 129.95 451.708C129.862 451.796 129.812 451.916 129.812 452.041V452.041Z" fill="#161616"/>
<path d="M134.314 457.202V462.24C134.322 462.36 134.375 462.472 134.462 462.554C134.55 462.636 134.665 462.681 134.785 462.681C134.905 462.681 135.02 462.636 135.108 462.554C135.195 462.472 135.248 462.36 135.256 462.24V457.202C135.245 457.084 135.191 456.975 135.104 456.896C135.017 456.816 134.903 456.772 134.785 456.772C134.667 456.772 134.553 456.816 134.466 456.896C134.379 456.975 134.325 457.084 134.314 457.202V457.202Z" fill="#161616"/>
<path d="M142.058 452.574V460.438C142.066 460.558 142.119 460.67 142.206 460.752C142.294 460.834 142.409 460.879 142.529 460.879C142.649 460.879 142.764 460.834 142.852 460.752C142.939 460.67 142.992 460.558 143 460.438V452.574C142.959 452.001 142.058 452.001 142.058 452.574Z" fill="#161616"/>
<path d="M83.3204 476.046V466.912C83.3126 466.792 83.2596 466.68 83.1721 466.598C83.0847 466.516 82.9693 466.471 82.8494 466.471C82.7295 466.471 82.6142 466.516 82.5267 466.598C82.4392 466.68 82.3862 466.792 82.3784 466.912V476.046C82.3893 476.163 82.4436 476.273 82.5307 476.352C82.6178 476.432 82.7315 476.476 82.8494 476.476C82.9673 476.476 83.081 476.432 83.1681 476.352C83.2553 476.273 83.3096 476.163 83.3204 476.046V476.046Z" fill="#161616"/>
<path d="M86.6793 475.88V471.251C86.6715 471.131 86.6185 471.019 86.531 470.937C86.4435 470.855 86.3282 470.81 86.2083 470.81C86.0884 470.81 85.9731 470.855 85.8856 470.937C85.7981 471.019 85.7451 471.131 85.7373 471.251V475.88C85.7373 476.005 85.7869 476.125 85.8753 476.213C85.9636 476.301 86.0834 476.351 86.2083 476.351C86.3332 476.351 86.453 476.301 86.5414 476.213C86.6297 476.125 86.6793 476.005 86.6793 475.88V475.88Z" fill="#161616"/>
<path d="M96.1411 465.231V475.758C96.1489 475.878 96.2019 475.99 96.2894 476.072C96.3769 476.154 96.4922 476.199 96.6121 476.199C96.732 476.199 96.8474 476.154 96.9348 476.072C97.0223 475.99 97.0753 475.878 97.0831 475.758V465.231C97.0831 465.106 97.0335 464.986 96.9452 464.898C96.8568 464.81 96.737 464.76 96.6121 464.76C96.4872 464.76 96.3674 464.81 96.2791 464.898C96.1907 464.986 96.1411 465.106 96.1411 465.231V465.231Z" fill="#161616"/>
<path d="M104.579 466.91V473.382C104.587 473.502 104.64 473.614 104.727 473.696C104.815 473.778 104.93 473.823 105.05 473.823C105.17 473.823 105.285 473.778 105.373 473.696C105.46 473.614 105.513 473.502 105.521 473.382V466.91C105.521 466.785 105.471 466.665 105.383 466.577C105.295 466.489 105.175 466.439 105.05 466.439C104.925 466.439 104.805 466.489 104.717 466.577C104.629 466.665 104.579 466.785 104.579 466.91V466.91Z" fill="#161616"/>
<path d="M101.63 468.18V470.72C101.638 470.84 101.691 470.952 101.779 471.034C101.866 471.116 101.982 471.161 102.101 471.161C102.221 471.161 102.337 471.116 102.424 471.034C102.512 470.952 102.565 470.84 102.572 470.72V468.18C102.572 468.055 102.523 467.935 102.434 467.847C102.346 467.759 102.226 467.709 102.101 467.709C101.976 467.709 101.857 467.759 101.768 467.847C101.68 467.935 101.63 468.055 101.63 468.18V468.18Z" fill="#161616"/>
<path d="M119.857 464.25V475.186C119.865 475.306 119.918 475.418 120.006 475.5C120.093 475.582 120.209 475.627 120.328 475.627C120.448 475.627 120.564 475.582 120.651 475.5C120.739 475.418 120.792 475.306 120.799 475.186V464.25C120.799 464.125 120.75 464.005 120.661 463.917C120.573 463.829 120.453 463.779 120.328 463.779C120.204 463.779 120.084 463.829 119.995 463.917C119.907 464.005 119.857 464.125 119.857 464.25V464.25Z" fill="#161616"/>
<path d="M123.379 468.999V473.915C123.387 474.035 123.44 474.147 123.528 474.229C123.615 474.311 123.731 474.356 123.85 474.356C123.97 474.356 124.086 474.311 124.173 474.229C124.261 474.147 124.314 474.035 124.321 473.915V469C124.28 468.427 123.379 468.427 123.379 469V468.999Z" fill="#161616"/>
<path d="M132.35 464.776V475.016C132.358 475.136 132.411 475.248 132.498 475.33C132.586 475.412 132.701 475.457 132.821 475.457C132.941 475.457 133.056 475.412 133.144 475.33C133.231 475.248 133.284 475.136 133.292 475.016V464.776C133.281 464.659 133.227 464.549 133.14 464.47C133.053 464.39 132.939 464.346 132.821 464.346C132.703 464.346 132.589 464.39 132.502 464.47C132.415 464.549 132.361 464.659 132.35 464.776Z" fill="#161616"/>
<path d="M148.653 465.64V474.487C148.661 474.607 148.714 474.719 148.802 474.801C148.889 474.883 149.004 474.928 149.124 474.928C149.244 474.928 149.36 474.883 149.447 474.801C149.535 474.719 149.588 474.607 149.595 474.487V465.64C149.554 465.067 148.653 465.067 148.653 465.64Z" fill="#161616"/>
<path d="M151.151 469.45V473.669C151.159 473.789 151.212 473.901 151.3 473.983C151.387 474.065 151.502 474.11 151.622 474.11C151.742 474.11 151.858 474.065 151.945 473.983C152.033 473.901 152.086 473.789 152.093 473.669V469.45C152.093 469.325 152.044 469.205 151.955 469.117C151.867 469.029 151.747 468.979 151.622 468.979C151.497 468.979 151.378 469.029 151.289 469.117C151.201 469.205 151.151 469.325 151.151 469.45V469.45Z" fill="#161616"/>
<path d="M140.665 438.447V431.893C140.657 431.773 140.604 431.661 140.517 431.579C140.429 431.497 140.314 431.452 140.194 431.452C140.074 431.452 139.959 431.497 139.871 431.579C139.784 431.661 139.731 431.773 139.723 431.893V438.447C139.764 439.02 140.665 439.061 140.665 438.447Z" fill="#161616"/>
<path d="M146.318 429.227V438.034C146.326 438.154 146.379 438.266 146.467 438.348C146.554 438.43 146.669 438.475 146.789 438.475C146.909 438.475 147.025 438.43 147.112 438.348C147.2 438.266 147.253 438.154 147.26 438.034V429.227C147.219 428.654 146.318 428.613 146.318 429.227Z" fill="#161616"/>
<path d="M150.578 411.695C151.67 412.334 152.558 413.269 153.138 414.394C153.719 415.518 153.967 416.784 153.855 418.044C153.814 418.617 154.715 418.617 154.797 418.044C154.92 416.624 154.635 415.199 153.974 413.936C153.314 412.673 152.306 411.626 151.07 410.917C151.019 410.885 150.962 410.863 150.902 410.852C150.843 410.842 150.782 410.844 150.723 410.857C150.664 410.87 150.608 410.895 150.559 410.93C150.509 410.965 150.467 411.009 150.435 411.06C150.403 411.111 150.381 411.168 150.37 411.228C150.36 411.287 150.362 411.348 150.375 411.407C150.388 411.466 150.413 411.522 150.448 411.571C150.483 411.621 150.527 411.663 150.578 411.695V411.695Z" fill="#161616"/>
<path d="M56.7774 442.128C56.2338 443.001 55.8992 443.987 55.7998 445.011C55.7004 446.034 55.8389 447.067 56.2044 448.028C56.4044 448.561 57.3104 448.356 57.1044 447.782C56.7778 446.936 56.6522 446.026 56.7376 445.124C56.823 444.222 57.117 443.351 57.5964 442.582C57.6494 442.474 57.6588 442.35 57.6226 442.235C57.5864 442.12 57.5074 442.024 57.402 441.966C57.2966 441.908 57.173 441.893 57.0566 441.923C56.9403 441.954 56.8403 442.028 56.7774 442.131V442.128Z" fill="#161616"/>
<path d="M52.1492 437.5C49.7973 440.433 48.5634 444.105 48.6672 447.863C48.675 447.983 48.728 448.095 48.8155 448.177C48.9029 448.259 49.0183 448.304 49.1382 448.304C49.258 448.304 49.3734 448.259 49.4609 448.177C49.5484 448.095 49.6014 447.983 49.6092 447.863C49.5111 444.334 50.6565 440.883 52.8452 438.114C53.1732 437.704 52.5172 437.049 52.1452 437.5H52.1492Z" fill="#161616"/>
<path d="M150.168 450.567C150.974 450.98 151.649 451.609 152.119 452.382C152.588 453.156 152.835 454.045 152.83 454.95C152.838 455.07 152.891 455.182 152.979 455.264C153.066 455.346 153.182 455.391 153.301 455.391C153.421 455.391 153.537 455.346 153.624 455.264C153.712 455.182 153.765 455.07 153.772 454.95C153.779 453.886 153.492 452.842 152.942 451.931C152.393 451.021 151.603 450.279 150.659 449.789C150.127 449.502 149.635 450.281 150.167 450.567H150.168Z" fill="#161616"/>
<path opacity="0.15" d="M107.692 414.972C112.497 414.262 117.401 415.185 121.619 417.593C123.027 418.434 124.321 419.452 125.469 420.624C125.346 422.508 125.182 424.392 125.059 426.277C119.038 426.523 113.059 426.768 107.036 426.977C107.855 427.018 114.409 427.387 117.972 432.711C119.166 434.518 119.859 436.61 119.979 438.773C119.589 441.565 118.473 444.207 116.743 446.433C114.718 448.986 111.981 450.882 108.879 451.881C110.033 452.488 111.055 453.318 111.884 454.323C112.714 455.329 113.335 456.49 113.712 457.738C114.159 459.388 114.159 461.126 113.712 462.776C109.739 467.077 105.766 471.391 101.793 475.719L156.516 476.333C157.723 475.697 158.708 474.71 159.343 473.503C159.935 472.277 160.172 470.91 160.028 469.556C159.883 468.202 159.362 466.916 158.524 465.843C155.657 462.197 149.144 463.467 148.407 463.631C149.443 462.859 150.277 461.85 150.84 460.688C151.404 459.525 151.679 458.245 151.643 456.954C151.454 454.999 150.514 453.193 149.022 451.916L140.338 451.302C141.089 450.496 141.658 449.536 142.004 448.49C142.35 447.444 142.467 446.335 142.345 445.24C142.154 443.944 141.626 442.72 140.814 441.693C140.001 440.665 138.933 439.868 137.716 439.383C141.607 439.342 144.966 439.26 147.628 439.183C155.37 438.983 157.128 438.855 158.528 437.383C160.412 435.335 161.028 431.362 159.142 428.904C158.318 427.892 157.179 427.186 155.906 426.897C152.875 426.774 149.844 426.61 146.813 426.487C147.593 426.513 148.371 426.385 149.102 426.111C149.833 425.836 150.503 425.42 151.073 424.887C151.638 424.227 152.057 423.456 152.304 422.623C152.551 421.79 152.62 420.915 152.507 420.054C152.43 418.156 151.64 416.357 150.295 415.016C148.288 413.255 145.707 413.746 140.995 413.992C137.309 414.192 133.581 413.828 129.895 413.992C122.192 414.316 114.409 414.685 107.692 414.972Z" fill="#3D3D3D"/>
<path d="M164.508 465.517H273.337C273.496 465.511 273.646 465.443 273.756 465.328C273.866 465.214 273.927 465.061 273.927 464.902C273.927 464.744 273.866 464.591 273.756 464.476C273.646 464.362 273.496 464.294 273.337 464.288H164.508C164.349 464.294 164.199 464.362 164.089 464.476C163.979 464.591 163.918 464.744 163.918 464.902C163.918 465.061 163.979 465.214 164.089 465.328C164.199 465.443 164.349 465.511 164.508 465.517Z" fill="#E8E8E8"/>
<path d="M284.765 466.542C303.65 464.91 322.636 464.814 341.536 466.255C342.314 466.337 342.314 465.108 341.536 465.026C322.636 463.586 303.65 463.682 284.765 465.313C283.987 465.354 283.987 466.583 284.765 466.542Z" fill="#E8E8E8"/>
<path d="M336.048 473.014C346.248 473.914 356.364 471.376 366.523 470.72C376.977 470.083 387.469 470.702 397.776 472.563C398.554 472.686 398.882 471.498 398.104 471.375C387.946 469.547 377.61 468.901 367.304 469.45C356.904 470.023 346.496 472.727 336.051 471.785C335.273 471.703 335.273 472.932 336.051 473.014H336.048Z" fill="#E8E8E8"/>
<path d="M342.437 464.74C338.162 461.467 334.224 457.777 330.681 453.722C329.903 452.822 329.165 451.922 328.428 451.022C327.864 450.379 327.37 449.678 326.954 448.93C326.611 448.044 326.512 447.082 326.667 446.145C326.667 444.22 325.561 444.302 324.291 442.991C322.366 440.984 322.079 438.076 321.506 435.491C320.927 433.148 320.046 430.889 318.885 428.773C316.304 423.573 315.117 417.632 313.56 412.061C313.437 412.307 313.273 412.553 313.15 412.798C318.557 412.061 324.414 416.116 328.715 419.065C330.914 420.576 333.021 422.217 335.023 423.98C337.03 425.78 340.102 428.322 338.996 431.353C338.97 431.443 338.965 431.537 338.981 431.629C338.997 431.722 339.034 431.809 339.09 431.884C339.145 431.959 339.217 432.021 339.301 432.064C339.384 432.106 339.476 432.129 339.569 432.131C342.928 432.254 345.469 435.613 347.269 438.111C349.028 440.49 350.461 443.094 351.529 445.853C353.669 451.391 354.305 457.397 353.372 463.261C353.249 464.039 354.437 464.367 354.56 463.589C355.632 457.019 354.793 450.28 352.143 444.174C350.828 441.167 349.105 438.355 347.023 435.818C345.098 433.483 342.763 430.985 339.523 430.862C339.727 431.111 339.919 431.371 340.096 431.64C341.038 429.1 339.563 426.766 337.843 424.963C335.583 422.661 333.099 420.589 330.429 418.778C325.596 415.337 319.001 410.709 312.734 411.61C312.658 411.63 312.587 411.665 312.525 411.714C312.463 411.762 312.411 411.823 312.373 411.891C312.334 411.96 312.31 412.036 312.302 412.114C312.294 412.192 312.301 412.272 312.324 412.347C313.924 418.041 315.109 424.021 317.772 429.347C319.086 431.986 320.063 434.779 320.68 437.662C320.981 439.945 321.934 442.092 323.424 443.847C324.124 444.584 325.349 444.994 325.472 446.059C325.554 447.042 325.226 447.738 325.595 448.803C326.373 450.974 328.38 452.94 329.855 454.619C333.48 458.742 337.499 462.501 341.855 465.842C342.428 466.252 343.043 465.187 342.428 464.736L342.437 464.74Z" fill="#E8E8E8"/>
<path d="M349.446 437.747C350.88 432.463 355.14 427.876 358.498 423.698C359.398 422.592 360.259 421.527 361.16 420.462C361.897 419.562 362.839 417.881 364.109 417.677C364.642 417.595 364.887 417.923 365.461 417.554C365.994 417.105 366.403 416.527 366.649 415.875C369.107 411.41 373.039 408.175 377.176 405.266C380.412 402.972 383.607 400.678 385.204 396.91C384.794 396.787 384.426 396.71 384.016 396.582C382.441 402.715 382.231 409.119 383.402 415.342C384.508 421.937 384.754 428.326 382.951 434.88C379.51 447.373 370.051 455.77 360.423 463.716C359.809 464.208 360.669 465.068 361.283 464.576C370.704 456.793 380.002 448.56 383.729 436.518C385.491 430.781 385.981 424.728 385.163 418.782C384.512 415.286 384.047 411.759 383.77 408.214C383.657 404.383 384.126 400.558 385.163 396.868C385.363 396.09 384.263 395.844 383.975 396.54C382.091 401.046 377.462 403.34 373.775 406.166C371.884 407.599 370.129 409.203 368.532 410.958C367.832 411.745 367.189 412.581 366.607 413.458C366.156 414.158 365.46 416.039 364.723 416.284C364.232 416.448 363.699 416.161 363.123 416.407C362.304 416.735 361.771 417.718 361.239 418.332C359.439 420.503 357.639 422.632 355.914 424.845C352.924 428.613 349.524 432.628 348.214 437.338C348.05 438.198 349.238 438.526 349.443 437.748L349.446 437.747Z" fill="#E8E8E8"/>
<path d="M318.229 419.11C321.915 421.731 324.701 425.254 327.445 428.818C330.353 432.504 333.22 436.232 335.924 440.082C341.124 447.455 345.673 455.36 348.089 464.126C348.132 464.284 348.237 464.417 348.379 464.498C348.521 464.579 348.689 464.599 348.847 464.556C349.004 464.512 349.138 464.408 349.219 464.266C349.299 464.124 349.32 463.956 349.277 463.798C346.777 454.705 342.027 446.513 336.577 438.898C333.915 435.171 331.129 431.566 328.303 427.962C325.477 424.317 322.609 420.753 318.803 418.091C318.189 417.599 317.574 418.664 318.23 419.115L318.229 419.11Z" fill="#E8E8E8"/>
<path d="M379.67 407.19C373.157 424.311 358.125 437.09 353.824 455.196C353.78 455.353 353.801 455.522 353.882 455.664C353.963 455.806 354.096 455.91 354.254 455.954C354.412 455.997 354.58 455.977 354.722 455.896C354.864 455.815 354.968 455.681 355.012 455.524C359.272 437.424 374.345 424.64 380.858 407.518C381.145 406.781 379.958 406.453 379.67 407.19Z" fill="#E8E8E8"/>
<path d="M369.594 410.099C370.212 415.746 369.838 421.457 368.488 426.975C368.467 427.053 368.461 427.134 368.47 427.215C368.48 427.295 368.506 427.373 368.546 427.443C368.586 427.513 368.639 427.575 368.703 427.625C368.767 427.675 368.84 427.711 368.918 427.733C368.996 427.754 369.078 427.76 369.158 427.75C369.238 427.741 369.316 427.715 369.386 427.675C369.457 427.635 369.518 427.582 369.568 427.518C369.618 427.454 369.655 427.381 369.676 427.303C371.038 421.677 371.426 415.86 370.823 410.103C370.741 409.325 369.512 409.325 369.594 410.103V410.099Z" fill="#E8E8E8"/>
<path d="M373.321 421.69C377.171 419.274 380.827 416.562 384.257 413.58C384.871 413.048 383.97 412.187 383.397 412.72C380.049 415.634 376.474 418.277 372.706 420.625C372.006 421.076 372.624 422.141 373.32 421.69H373.321Z" fill="#E8E8E8"/>
<path d="M318.68 429.882C321.506 429.8 325.48 428.982 328.06 430.333C328.76 430.702 329.371 429.633 328.674 429.268C325.766 427.712 321.834 428.531 318.68 428.654C317.861 428.695 317.861 429.924 318.68 429.883V429.882Z" fill="#E8E8E8"/>
<path d="M334.162 423.657C333.684 427.592 333.739 431.574 334.326 435.495C334.449 436.273 335.637 435.946 335.514 435.167C334.961 431.353 334.92 427.482 335.391 423.657C335.514 422.879 334.285 422.879 334.162 423.657V423.657Z" fill="#E8E8E8"/>
<path d="M308.973 479.445C315.609 479.814 322.162 478.339 328.798 478.462C335.147 478.585 341.332 480.262 347.681 479.24C348.459 479.117 348.132 477.929 347.353 478.052C340.881 479.117 334.491 477.233 328.02 477.233C321.671 477.233 315.363 478.585 308.973 478.216C308.195 478.134 308.195 479.363 308.973 479.445V479.445Z" fill="#E8E8E8"/>
<path d="M-39.274 471.908C-26.574 473.669 -14.001 470.843 -1.34504 469.983C5.33842 469.669 12.0363 469.888 18.685 470.638C25.403 471.252 32.12 471.538 38.879 471.58C46.579 471.621 54.321 471.416 62.022 471.17C62.8 471.129 62.8 469.9 62.022 469.941C53.379 470.187 44.696 470.433 36.053 470.31C27.574 470.187 19.218 469.245 10.78 468.71C-5.85004 467.604 -22.357 473.01 -38.946 470.717C-39.724 470.635 -40.052 471.782 -39.274 471.905V471.908Z" fill="#E8E8E8"/>
<path d="M32.4481 478.83C37.2401 478.83 41.9921 477.683 46.7481 477.314C51.5723 476.945 56.4142 476.863 61.2481 477.068C62.0261 477.109 62.0261 475.88 61.2481 475.839C56.4144 475.614 51.5714 475.696 46.7481 476.085C41.9971 476.454 37.2041 477.601 32.4481 477.601C32.2894 477.607 32.1394 477.675 32.0294 477.789C31.9193 477.904 31.8579 478.057 31.8579 478.215C31.8579 478.374 31.9193 478.527 32.0294 478.641C32.1394 478.756 32.2894 478.824 32.4481 478.83Z" fill="#E8E8E8"/>
<path d="M6.43604 213.57V459.251C6.44244 459.41 6.50997 459.56 6.62451 459.67C6.73905 459.78 6.89171 459.841 7.05052 459.841C7.20934 459.841 7.36201 459.78 7.47655 459.67C7.59109 459.56 7.65862 459.41 7.66502 459.251V213.57C7.65862 213.411 7.59109 213.261 7.47655 213.151C7.36201 213.041 7.20934 212.98 7.05052 212.98C6.89171 212.98 6.73905 213.041 6.62451 213.151C6.50997 213.261 6.44244 213.411 6.43604 213.57Z" fill="#E8E8E8"/>
<path d="M109.576 198.578V409.607C109.583 409.766 109.65 409.916 109.765 410.026C109.879 410.136 110.032 410.197 110.191 410.197C110.349 410.197 110.502 410.136 110.617 410.026C110.731 409.916 110.799 409.766 110.805 409.607V198.578C110.799 198.419 110.731 198.269 110.617 198.159C110.502 198.049 110.349 197.988 110.191 197.988C110.032 197.988 109.879 198.049 109.765 198.159C109.65 198.269 109.583 198.419 109.576 198.578Z" fill="#E8E8E8"/>
<path d="M112.034 315.603C135.259 325.27 158.538 334.827 181.872 344.275C182.609 344.562 182.937 343.375 182.2 343.087C158.852 333.666 135.574 324.109 112.364 314.415C111.627 314.128 111.34 315.315 112.036 315.603H112.034Z" fill="#E8E8E8"/>
<path d="M177.079 343.454V462.076C177.086 462.235 177.153 462.385 177.268 462.495C177.382 462.605 177.535 462.666 177.694 462.666C177.852 462.666 178.005 462.605 178.12 462.495C178.234 462.385 178.302 462.235 178.308 462.076V343.454C178.302 343.295 178.234 343.145 178.12 343.035C178.005 342.925 177.852 342.864 177.694 342.864C177.535 342.864 177.382 342.925 177.268 343.035C177.153 343.145 177.086 343.295 177.079 343.454V343.454Z" fill="#E8E8E8"/>
<path d="M288.985 461.626V384.252C288.978 384.093 288.911 383.943 288.796 383.833C288.682 383.723 288.529 383.662 288.37 383.662C288.212 383.662 288.059 383.723 287.944 383.833C287.83 383.943 287.762 384.093 287.756 384.252V461.626C287.762 461.785 287.83 461.935 287.944 462.045C288.059 462.155 288.212 462.216 288.37 462.216C288.529 462.216 288.682 462.155 288.796 462.045C288.911 461.935 288.978 461.785 288.985 461.626V461.626Z" fill="#E8E8E8"/>
<path d="M277.555 387.037C302.582 376.264 327.691 365.451 351.489 352.098C358.289 348.289 365.006 344.234 371.56 339.933C372.215 339.482 371.601 338.417 370.946 338.868C348.09 353.819 323.432 365.615 298.528 376.593C291.36 379.747 284.151 382.86 276.983 385.932C276.205 386.301 276.86 387.325 277.556 387.038L277.555 387.037Z" fill="#E8E8E8"/>
<path d="M309.136 371.145V243.594C309.13 243.435 309.062 243.285 308.948 243.175C308.833 243.065 308.681 243.004 308.522 243.004C308.363 243.004 308.21 243.065 308.096 243.175C307.981 243.285 307.914 243.435 307.907 243.594V371.145C307.914 371.304 307.981 371.454 308.096 371.564C308.21 371.674 308.363 371.735 308.522 371.735C308.681 371.735 308.833 371.674 308.948 371.564C309.062 371.454 309.13 371.304 309.136 371.145Z" fill="#E8E8E8"/>
<path d="M301.967 246.096H419.647C419.806 246.09 419.956 246.022 420.066 245.908C420.176 245.793 420.237 245.64 420.237 245.482C420.237 245.323 420.176 245.17 420.066 245.056C419.956 244.941 419.806 244.873 419.647 244.867H301.967C301.804 244.867 301.648 244.932 301.533 245.047C301.417 245.162 301.353 245.319 301.353 245.482C301.353 245.645 301.417 245.801 301.533 245.916C301.648 246.031 301.804 246.096 301.967 246.096V246.096Z" fill="#E8E8E8"/>
<path d="M1.19424 214.921C29.8252 205.705 60.3822 203.698 90.0782 200.298C98.7616 199.315 107.445 198.318 116.129 197.308C116.907 197.226 116.907 195.997 116.129 196.079C100.646 197.84 85.1492 199.615 69.6392 201.404C54.9392 203.083 40.1472 204.681 25.6062 207.504C17.2432 209.086 8.98195 211.165 0.866248 213.73C0.129248 213.976 0.456236 215.164 1.19424 214.918V214.921Z" fill="#E8E8E8"/>
<path d="M15.2441 244.74V224.26C15.2377 224.101 15.1702 223.951 15.0556 223.841C14.9411 223.731 14.7885 223.67 14.6296 223.67C14.4708 223.67 14.3182 223.731 14.2036 223.841C14.0891 223.951 14.0215 224.101 14.0151 224.26V244.74C14.0215 244.899 14.0891 245.049 14.2036 245.159C14.3182 245.269 14.4708 245.33 14.6296 245.33C14.7885 245.33 14.9411 245.269 15.0556 245.159C15.1702 245.049 15.2377 244.899 15.2441 244.74V244.74Z" fill="#E8E8E8"/>
<path d="M14.2601 224.178H26.3021C26.4608 224.172 26.6109 224.104 26.7209 223.99C26.8309 223.875 26.8923 223.722 26.8923 223.564C26.8923 223.405 26.8309 223.252 26.7209 223.138C26.6109 223.023 26.4608 222.955 26.3021 222.949H14.2601C14.1014 222.955 13.9514 223.023 13.8414 223.138C13.7314 223.252 13.6699 223.405 13.6699 223.564C13.6699 223.722 13.7314 223.875 13.8414 223.99C13.9514 224.104 14.1014 224.172 14.2601 224.178V224.178Z" fill="#E8E8E8"/>
<path d="M25.7329 223.896V245.236C25.7393 245.395 25.8068 245.545 25.9214 245.655C26.0359 245.765 26.1886 245.826 26.3474 245.826C26.5062 245.826 26.6589 245.765 26.7734 245.655C26.888 245.545 26.9555 245.395 26.9619 245.236V223.896C26.9555 223.737 26.888 223.587 26.7734 223.477C26.6589 223.367 26.5062 223.306 26.3474 223.306C26.1886 223.306 26.0359 223.367 25.9214 223.477C25.8068 223.587 25.7393 223.737 25.7329 223.896V223.896Z" fill="#E8E8E8"/>
<path d="M14.7943 246.051H25.4843C25.643 246.045 25.793 245.977 25.9031 245.863C26.0131 245.748 26.0745 245.595 26.0745 245.437C26.0745 245.278 26.0131 245.125 25.9031 245.011C25.793 244.896 25.643 244.828 25.4843 244.822H14.7943C14.6356 244.828 14.4856 244.896 14.3755 245.011C14.2655 245.125 14.2041 245.278 14.2041 245.437C14.2041 245.595 14.2655 245.748 14.3755 245.863C14.4856 245.977 14.6356 246.045 14.7943 246.051Z" fill="#E8E8E8"/>
<path d="M49.8149 244.577V224.097C49.8085 223.938 49.741 223.788 49.6264 223.678C49.5119 223.568 49.3592 223.507 49.2004 223.507C49.0416 223.507 48.889 223.568 48.7744 223.678C48.6599 223.788 48.5923 223.938 48.5859 224.097V244.577C48.5923 244.736 48.6599 244.886 48.7744 244.996C48.889 245.106 49.0416 245.167 49.2004 245.167C49.3592 245.167 49.5119 245.106 49.6264 244.996C49.741 244.886 49.8085 244.736 49.8149 244.577V244.577Z" fill="#E8E8E8"/>
<path d="M48.8733 223.97H60.9153C61.074 223.964 61.224 223.896 61.334 223.782C61.4441 223.667 61.5055 223.514 61.5055 223.356C61.5055 223.197 61.4441 223.044 61.334 222.93C61.224 222.815 61.074 222.747 60.9153 222.741H48.8733C48.7926 222.741 48.7127 222.757 48.6381 222.788C48.5636 222.819 48.4958 222.864 48.4388 222.921C48.3817 222.978 48.3364 223.046 48.3056 223.12C48.2747 223.195 48.2588 223.275 48.2588 223.356C48.2588 223.436 48.2747 223.516 48.3056 223.591C48.3364 223.665 48.3817 223.733 48.4388 223.79C48.4958 223.847 48.5636 223.892 48.6381 223.923C48.7127 223.954 48.7926 223.97 48.8733 223.97Z" fill="#E8E8E8"/>
<path d="M60.3013 223.728V245.068C60.3077 245.227 60.3752 245.377 60.4898 245.487C60.6043 245.597 60.757 245.658 60.9158 245.658C61.0746 245.658 61.2273 245.597 61.3418 245.487C61.4563 245.377 61.5239 245.227 61.5303 245.068V223.728C61.5239 223.569 61.4563 223.419 61.3418 223.309C61.2273 223.199 61.0746 223.138 60.9158 223.138C60.757 223.138 60.6043 223.199 60.4898 223.309C60.3752 223.419 60.3077 223.569 60.3013 223.728Z" fill="#E8E8E8"/>
<path d="M49.3661 245.841H60.0571C60.2158 245.835 60.3658 245.767 60.4758 245.653C60.5859 245.538 60.6473 245.385 60.6473 245.227C60.6473 245.068 60.5859 244.915 60.4758 244.801C60.3658 244.686 60.2158 244.618 60.0571 244.612H49.3661C49.2074 244.618 49.0573 244.686 48.9473 244.801C48.8373 244.915 48.7759 245.068 48.7759 245.227C48.7759 245.385 48.8373 245.538 48.9473 245.653C49.0573 245.767 49.2074 245.835 49.3661 245.841V245.841Z" fill="#E8E8E8"/>
<path d="M85.332 243.798V223.318C85.3256 223.159 85.2581 223.009 85.1436 222.899C85.029 222.789 84.8763 222.728 84.7175 222.728C84.5587 222.728 84.4061 222.789 84.2915 222.899C84.177 223.009 84.1094 223.159 84.103 223.318V243.798C84.1094 243.957 84.177 244.107 84.2915 244.217C84.4061 244.327 84.5587 244.388 84.7175 244.388C84.8763 244.388 85.029 244.327 85.1436 244.217C85.2581 244.107 85.3256 243.957 85.332 243.798V243.798Z" fill="#E8E8E8"/>
<path d="M84.3441 223.197H96.3861C96.5448 223.191 96.6948 223.123 96.8049 223.009C96.9149 222.894 96.9763 222.741 96.9763 222.583C96.9763 222.424 96.9149 222.271 96.8049 222.156C96.6948 222.042 96.5448 221.974 96.3861 221.968H84.3441C84.1854 221.974 84.0354 222.042 83.9254 222.156C83.8153 222.271 83.7539 222.424 83.7539 222.583C83.7539 222.741 83.8153 222.894 83.9254 223.009C84.0354 223.123 84.1854 223.191 84.3441 223.197Z" fill="#E8E8E8"/>
<path d="M95.813 222.95V244.29C95.8194 244.449 95.8869 244.599 96.0015 244.709C96.116 244.819 96.2687 244.88 96.4275 244.88C96.5863 244.88 96.739 244.819 96.8535 244.709C96.968 244.599 97.0356 244.449 97.042 244.29V222.95C97.042 222.787 96.9773 222.631 96.862 222.516C96.7468 222.4 96.5905 222.336 96.4275 222.336C96.2645 222.336 96.1082 222.4 95.993 222.516C95.8777 222.631 95.813 222.787 95.813 222.95V222.95Z" fill="#E8E8E8"/>
<path d="M84.8749 245.068H95.5659C95.7246 245.062 95.8746 244.994 95.9846 244.88C96.0946 244.765 96.1561 244.612 96.1561 244.454C96.1561 244.295 96.0946 244.142 95.9846 244.028C95.8746 243.913 95.7246 243.846 95.5659 243.839H84.8749C84.7162 243.846 84.5661 243.913 84.4561 244.028C84.3461 244.142 84.2847 244.295 84.2847 244.454C84.2847 244.612 84.3461 244.765 84.4561 244.88C84.5661 244.994 84.7162 245.062 84.8749 245.068V245.068Z" fill="#E8E8E8"/>
<path d="M2.70605 302.33V383.268C2.71246 383.427 2.78001 383.577 2.89455 383.687C3.00909 383.797 3.16174 383.858 3.32056 383.858C3.47937 383.858 3.63203 383.797 3.74657 383.687C3.86111 383.577 3.92866 383.427 3.93506 383.268V302.33C3.93506 302.167 3.87032 302.011 3.75508 301.896C3.63984 301.78 3.48353 301.716 3.32056 301.716C3.15758 301.716 3.00129 301.78 2.88605 301.896C2.77081 302.011 2.70605 302.167 2.70605 302.33Z" fill="#E8E8E8"/>
<path d="M11.312 388.429V425.99C11.3184 426.149 11.386 426.299 11.5005 426.409C11.615 426.519 11.7677 426.58 11.9265 426.58C12.0853 426.58 12.238 426.519 12.3525 426.409C12.4671 426.299 12.5346 426.149 12.541 425.99V388.429C12.5346 388.27 12.4671 388.12 12.3525 388.01C12.238 387.9 12.0853 387.839 11.9265 387.839C11.7677 387.839 11.615 387.9 11.5005 388.01C11.386 388.12 11.3184 388.27 11.312 388.429V388.429Z" fill="#E8E8E8"/>
<path d="M-2.69589 211.398C10.4643 206.81 23.8981 203.048 37.5271 200.134C38.3051 199.97 37.9781 198.782 37.1991 198.946C23.5687 201.855 10.1346 205.617 -3.02389 210.21C-3.76089 210.456 -3.43389 211.644 -2.69589 211.398Z" fill="#E8E8E8"/>
<path d="M113.017 321.46C126.862 326.66 140.338 332.847 153.773 339.032C154.473 339.36 155.125 338.295 154.387 337.967C140.829 331.741 127.271 325.515 113.345 320.272C112.608 319.985 112.28 321.172 113.017 321.46V321.46Z" fill="#E8E8E8"/>
<path d="M121.044 364.754V344.274C121.038 344.115 120.97 343.965 120.855 343.855C120.741 343.745 120.588 343.684 120.429 343.684C120.271 343.684 120.118 343.745 120.003 343.855C119.889 343.965 119.821 344.115 119.815 344.274V364.754C119.815 364.917 119.88 365.073 119.995 365.189C120.11 365.304 120.266 365.369 120.429 365.369C120.592 365.369 120.749 365.304 120.864 365.189C120.979 365.073 121.044 364.917 121.044 364.754V364.754Z" fill="#E8E8E8"/>
<path d="M120.103 344.193H132.145C132.304 344.187 132.454 344.119 132.564 344.005C132.674 343.89 132.735 343.737 132.735 343.579C132.735 343.42 132.674 343.267 132.564 343.153C132.454 343.038 132.304 342.971 132.145 342.964H120.103C119.94 342.964 119.784 343.029 119.669 343.144C119.554 343.259 119.489 343.416 119.489 343.579C119.489 343.742 119.554 343.898 119.669 344.013C119.784 344.128 119.94 344.193 120.103 344.193V344.193Z" fill="#E8E8E8"/>
<path d="M131.531 343.946V365.286C131.538 365.445 131.605 365.595 131.72 365.705C131.834 365.815 131.987 365.876 132.146 365.876C132.305 365.876 132.457 365.815 132.572 365.705C132.686 365.595 132.754 365.445 132.76 365.286V343.946C132.76 343.783 132.696 343.627 132.58 343.512C132.465 343.396 132.309 343.332 132.146 343.332C131.983 343.332 131.826 343.396 131.711 343.512C131.596 343.627 131.531 343.783 131.531 343.946Z" fill="#E8E8E8"/>
<path d="M120.595 366.066H131.286C131.445 366.06 131.595 365.992 131.705 365.878C131.815 365.763 131.876 365.61 131.876 365.452C131.876 365.293 131.815 365.14 131.705 365.026C131.595 364.911 131.445 364.844 131.286 364.837H120.595C120.436 364.844 120.286 364.911 120.176 365.026C120.066 365.14 120.005 365.293 120.005 365.452C120.005 365.61 120.066 365.763 120.176 365.878C120.286 365.992 120.436 366.06 120.595 366.066Z" fill="#E8E8E8"/>
<path d="M294.432 385.603C321.175 375.563 346.815 362.798 370.946 347.51C371.601 347.1 370.987 346.035 370.332 346.445C346.293 361.684 320.749 374.407 294.104 384.415C293.367 384.702 293.694 385.89 294.432 385.603Z" fill="#E8E8E8"/>
<path d="M323.307 241.955H420.097C420.256 241.949 420.406 241.881 420.516 241.767C420.626 241.652 420.687 241.499 420.687 241.341C420.687 241.182 420.626 241.029 420.516 240.915C420.406 240.8 420.256 240.732 420.097 240.726H323.307C323.148 240.732 322.998 240.8 322.888 240.915C322.778 241.029 322.717 241.182 322.717 241.341C322.717 241.499 322.778 241.652 322.888 241.767C322.998 241.881 323.148 241.949 323.307 241.955V241.955Z" fill="#E8E8E8"/>
<path d="M321.018 282.67V262.19C321.012 262.031 320.944 261.881 320.83 261.771C320.715 261.661 320.562 261.6 320.404 261.6C320.245 261.6 320.092 261.661 319.978 261.771C319.863 261.881 319.795 262.031 319.789 262.19V282.67C319.789 282.833 319.854 282.989 319.969 283.105C320.084 283.22 320.241 283.285 320.404 283.285C320.567 283.285 320.723 283.22 320.838 283.105C320.953 282.989 321.018 282.833 321.018 282.67V282.67Z" fill="#E8E8E8"/>
<path d="M320.072 262.107H332.114C332.273 262.101 332.423 262.033 332.533 261.919C332.643 261.804 332.704 261.651 332.704 261.493C332.704 261.334 332.643 261.181 332.533 261.067C332.423 260.952 332.273 260.884 332.114 260.878H320.072C319.913 260.884 319.763 260.952 319.653 261.067C319.543 261.181 319.482 261.334 319.482 261.493C319.482 261.651 319.543 261.804 319.653 261.919C319.763 262.033 319.913 262.101 320.072 262.107V262.107Z" fill="#E8E8E8"/>
<path d="M331.5 261.862V283.202C331.506 283.361 331.574 283.511 331.688 283.621C331.803 283.731 331.956 283.792 332.115 283.792C332.273 283.792 332.426 283.731 332.54 283.621C332.655 283.511 332.723 283.361 332.729 283.202V261.862C332.729 261.699 332.664 261.543 332.549 261.428C332.434 261.312 332.277 261.248 332.115 261.248C331.952 261.248 331.795 261.312 331.68 261.428C331.565 261.543 331.5 261.699 331.5 261.862V261.862Z" fill="#E8E8E8"/>
<path d="M320.605 283.98H331.296C331.455 283.974 331.605 283.906 331.715 283.792C331.825 283.677 331.886 283.524 331.886 283.366C331.886 283.207 331.825 283.054 331.715 282.94C331.605 282.825 331.455 282.758 331.296 282.751H320.605C320.442 282.751 320.286 282.816 320.171 282.931C320.055 283.046 319.991 283.203 319.991 283.366C319.991 283.529 320.055 283.685 320.171 283.8C320.286 283.915 320.442 283.98 320.605 283.98V283.98Z" fill="#E8E8E8"/>
<path d="M377.909 282.67V262.19C377.902 262.031 377.835 261.881 377.72 261.771C377.606 261.661 377.453 261.6 377.294 261.6C377.135 261.6 376.983 261.661 376.868 261.771C376.754 261.881 376.686 262.031 376.68 262.19V282.67C376.68 282.833 376.744 282.989 376.86 283.105C376.975 283.22 377.131 283.285 377.294 283.285C377.457 283.285 377.613 283.22 377.729 283.105C377.844 282.989 377.909 282.833 377.909 282.67Z" fill="#E8E8E8"/>
<path d="M376.925 262.107H388.967C389.126 262.101 389.276 262.033 389.386 261.919C389.496 261.804 389.557 261.651 389.557 261.493C389.557 261.334 389.496 261.181 389.386 261.067C389.276 260.952 389.126 260.884 388.967 260.878H376.925C376.766 260.884 376.616 260.952 376.506 261.067C376.396 261.181 376.335 261.334 376.335 261.493C376.335 261.651 376.396 261.804 376.506 261.919C376.616 262.033 376.766 262.101 376.925 262.107V262.107Z" fill="#E8E8E8"/>
<path d="M377.458 283.98H388.149C388.308 283.974 388.458 283.906 388.568 283.792C388.678 283.677 388.74 283.524 388.74 283.366C388.74 283.207 388.678 283.054 388.568 282.94C388.458 282.825 388.308 282.758 388.149 282.751H377.458C377.3 282.758 377.15 282.825 377.04 282.94C376.93 283.054 376.868 283.207 376.868 283.366C376.868 283.524 376.93 283.677 377.04 283.792C377.15 283.906 377.3 283.974 377.458 283.98V283.98Z" fill="#E8E8E8"/>
<path d="M352.922 122.678C366.473 122.678 377.457 111.51 377.457 97.7331C377.457 83.9563 366.473 72.7881 352.922 72.7881C339.372 72.7881 328.387 83.9563 328.387 97.7331C328.387 111.51 339.372 122.678 352.922 122.678Z" stroke="#E8E8E8" stroke-width="0.955" stroke-miterlimit="10"/>
<path d="M324.619 194.113C331.419 189.484 339.693 192.393 346.738 194.768C350.02 195.971 353.428 196.796 356.896 197.226C360.655 197.521 364.437 197.259 368.119 196.448C382.742 193.417 398.553 183.095 413.585 190.099C414.285 190.427 414.937 189.362 414.199 189.034C403.14 183.873 390.974 187.928 380.161 191.615C373.853 193.786 367.34 195.957 360.582 196.121C353.66 196.285 347.597 193.459 341.082 191.656C335.429 190.056 329.04 189.608 323.96 193.049C323.346 193.5 323.96 194.565 324.615 194.114L324.619 194.113Z" fill="#E8E8E8"/>
<path d="M18.4011 171.79C30.2391 175.19 41.8711 169.619 52.9721 166.137C59.0341 164.253 65.4241 162.737 71.8141 163.556C78.3271 164.416 84.2661 167.529 90.2461 170.11C96.3081 172.731 102.616 174.902 109.334 173.837C110.112 173.714 109.785 172.526 109.006 172.649C96.1851 174.697 85.4541 164.662 73.3291 162.532C61.4911 160.443 50.2291 166.096 39.1681 169.372C32.4911 171.338 25.5681 172.526 18.7291 170.56C18.5697 170.527 18.4037 170.556 18.2651 170.642C18.1265 170.727 18.0259 170.862 17.9839 171.02C17.942 171.177 17.9618 171.344 18.0394 171.487C18.117 171.631 18.2464 171.739 18.4011 171.789V171.79Z" fill="#E8E8E8"/>
<path d="M124.404 189.567C128.787 189.444 132.637 187.478 136.528 185.717C138.863 184.531 141.385 183.755 143.983 183.423C146.891 183.177 149.431 184.201 151.929 185.594C156.517 188.134 160.776 190.468 166.06 191.288C171.057 192.097 176.172 191.747 181.011 190.264C181.748 190.018 181.462 188.83 180.683 189.076C175.271 190.725 169.518 190.909 164.012 189.608C161.387 188.983 158.854 188.02 156.477 186.741C154.3 185.39 152.044 184.173 149.719 183.096C140.585 179.451 133.253 188.052 124.405 188.296C123.627 188.378 123.627 189.607 124.405 189.566L124.404 189.567Z" fill="#E8E8E8"/>
<path d="M250.113 151.39C261.913 156.879 275.14 156.633 287.674 154.216C301.846 151.472 315.199 145.205 329.863 145.45C338.154 145.627 346.333 147.408 353.948 150.693C354.685 151.021 355.3 149.956 354.562 149.628C342.263 144.288 328.613 142.886 315.486 145.614C308.318 147.13 301.396 149.628 294.309 151.471C287.603 153.268 280.723 154.34 273.788 154.666C265.884 155.057 257.998 153.584 250.768 150.366C250.031 149.997 249.416 151.066 250.113 151.39V151.39Z" fill="#E8E8E8"/>
<path d="M108.799 376.551C110.069 383.228 111.299 389.945 112.567 396.622C91.4309 404.282 81.1499 409.566 81.8059 412.515C82.5839 416.078 99.1865 416.215 131.614 412.925C130.221 398.998 128.829 385.058 127.436 371.104C121.21 372.947 114.984 374.749 108.799 376.551Z" fill="#161616" stroke="#161616" stroke-width="0.955" stroke-miterlimit="10"/>
<path d="M207.718 292.869C198.871 296.515 195.143 295.613 183.961 298.685C167.414 303.331 152.107 311.6 139.15 322.893L140.502 368.605C139.56 369.711 129.238 381.426 113.591 379.828C106.184 378.959 99.337 375.455 94.299 369.957C94.012 355.908 94.258 340.916 95.199 325.146C95.772 316.012 96.51 307.164 97.452 298.685C98.845 296.719 100.975 293.893 103.719 290.616C125.264 264.975 151.069 253.588 165.119 247.607C179.128 241.627 187.893 237.899 200.959 236.834C204.441 236.547 239.259 234.09 244.869 248.057C250.071 260.797 229.55 283.899 207.718 292.869Z" fill="#F1FFFC" stroke="#161616" stroke-width="0.955" stroke-miterlimit="10"/>
<path opacity="0.16" d="M242.617 243.757C234.834 238.391 217.672 261.247 183.511 282.792C150.661 303.477 133.457 303.149 123.545 323.261C120.514 329.361 117.36 339.031 115.435 348.861C113.501 358.883 112.882 369.113 113.592 379.295C116.705 379.159 119.794 378.693 122.808 377.902C129.264 376.172 135.253 373.024 140.339 368.686C139.888 353.162 139.397 337.638 138.946 322.155C147.263 315.358 156.401 309.633 166.146 305.115C189.207 294.424 197.846 299.015 216.855 288.075C221.238 285.575 246.019 271.281 245.445 252.603C245.279 249.614 245.236 245.559 242.617 243.757Z" fill="#3D3D3D"/>
<path opacity="0.25" d="M245.811 251.13C244.091 249.737 237.411 259.076 221.399 270.504C201.492 284.676 191.907 284.513 169.994 297.704C158.553 304.596 147.835 312.624 138.004 321.666C141.792 320.034 145.485 318.188 149.063 316.136C158.484 310.647 160.778 307.289 167.946 303.684C170.527 302.414 175.36 301.103 184.986 298.605C201.821 294.222 204.237 294.427 210.341 291.683C216.242 289.013 221.688 285.433 226.479 281.074C239.831 269.361 247.982 252.85 245.811 251.13Z" fill="#3D3D3D"/>
<path opacity="0.2" d="M138.454 322.115C133.211 340.998 127.982 359.894 122.766 378.804C125.652 378.045 128.441 376.959 131.081 375.568C134.681 373.654 137.945 371.165 140.743 368.2C139.969 352.835 139.232 337.475 138.454 322.115Z" fill="#3D3D3D"/>
<path d="M242.043 440.531C243.313 447.208 244.543 453.925 245.811 460.602C226.682 470.228 217.589 476.208 218.411 478.543C219.435 481.369 234.863 478.925 264.696 471.211C263.344 459.169 262.034 447.126 260.682 435.084C254.454 436.927 248.269 438.729 242.043 440.531Z" fill="#161616" stroke="#161616" stroke-width="0.955" stroke-miterlimit="10"/>
<path d="M258.427 232.37C259.861 243.429 261.704 260.1 262.605 280.458C263.957 311.875 261.991 329.365 261.663 352.589C261.321 381.245 263.487 409.877 268.135 438.156C262.182 442.109 255.32 444.481 248.197 445.047C241.073 445.613 233.923 444.355 227.42 441.392C226.52 423.943 224.92 405.392 222.341 385.892C218.013 353.254 211.375 320.964 202.475 289.266C197.56 282.466 192.604 275.708 187.688 268.909C205.588 256.252 223.474 243.609 241.346 230.98C247.001 231.469 252.693 231.919 258.427 232.37Z" fill="#F1FFFC" stroke="#161616" stroke-width="0.955" stroke-miterlimit="10"/>
<path d="M194.446 272.43C193.176 270.669 191.946 268.866 190.678 267.105C190.309 268.498 189.941 269.89 189.572 271.324C195.634 267.556 201.572 263.582 207.267 259.241C212.018 255.641 216.442 251.663 221.235 248.141C224.266 245.888 227.379 243.758 230.492 241.628C233.482 239.621 236.513 237.081 239.792 235.484C241.553 234.624 243.642 234.747 245.526 234.747C249.126 234.747 252.694 234.87 256.258 235.075C260.19 235.275 260.19 229.136 256.258 228.931C252.694 228.767 249.09 228.603 245.526 228.603C243.224 228.484 240.917 228.72 238.686 229.303C235.286 230.409 232.214 233.071 229.306 235.078C225.947 237.331 222.629 239.584 219.353 241.959C214.274 245.645 209.604 249.782 204.653 253.592C198.817 258.031 192.761 262.173 186.508 266.003C185.81 266.423 185.304 267.1 185.097 267.888C184.891 268.676 185 269.513 185.402 270.222C186.672 271.983 187.902 273.786 189.17 275.547C191.423 278.742 196.748 275.67 194.454 272.434L194.446 272.43Z" fill="#F1FFFC"/>
<path opacity="0.14" d="M217.712 237.286C224.508 257.348 230.048 277.813 234.301 298.563C243.983 346.307 246.783 395.19 242.616 443.727C244.986 444.574 247.474 445.044 249.989 445.12C259.205 445.366 265.841 440.041 267.971 438.198C265.395 425.259 263.549 412.186 262.441 399.04C259.41 363.2 263.219 342.883 263.834 312.409C264.321 286.64 262.47 260.879 258.304 235.444C244.746 236.057 231.215 236.671 217.712 237.286Z" fill="#3D3D3D"/>
<path opacity="0.2" d="M259.656 254.366C258.509 294.712 256.516 336.191 253.676 378.804C252.202 400.8 250.509 422.454 248.597 443.767C252.032 444.381 255.566 444.113 258.869 442.988C262.171 441.864 265.134 439.919 267.48 437.336C263.878 416.631 261.879 395.679 261.5 374.666C261.049 347.304 263.63 333.337 262.893 301.388C262.4 281.073 260.844 264.606 259.656 254.366Z" fill="#3D3D3D"/>
<path d="M92.1282 87.9431C92.6602 86.7141 87.4182 84.1751 87.9502 82.7431C88.4822 81.2681 94.9952 80.9001 99.3782 84.1361C103.966 87.4951 103.678 92.4101 106.3 98.7181C109.29 105.804 114 109.654 121.169 115.553C125.469 119.117 142.264 132.47 166.469 131.732C175.835 131.407 185.023 129.089 193.421 124.932C192.479 136.688 191.496 148.484 190.554 160.24C183.282 161.924 175.792 162.464 168.354 161.84C135.754 159.014 114.819 133.864 108.347 126.122C102.774 119.424 98.0044 112.097 94.1342 104.29C88.6361 105.977 82.8589 106.562 77.1342 106.01C72.0552 105.518 65.9932 103.962 66.0342 102.528C66.0752 100.644 76.5202 99.3741 76.4342 98.7191C76.3522 98.1461 68.1192 100.398 66.0342 97.3261C64.3962 94.9091 66.6892 89.4621 70.5402 87.2501C71.7282 86.5951 73.0802 86.1851 76.4402 86.2261C85.5332 86.2231 91.6362 89.0491 92.1282 87.9431Z" fill="#F1FFFC" stroke="#161616" stroke-width="0.955" stroke-miterlimit="10"/>
<path d="M65.9101 94.9881C67.9991 94.4961 70.4161 95.5201 72.5461 95.6021C74.4281 95.6778 76.3124 95.5264 78.1581 95.1511C78.9361 94.9871 78.6091 93.7991 77.8301 93.9631C75.5115 94.4339 73.1309 94.517 70.7851 94.2091C68.9851 93.9631 67.3851 93.3901 65.5851 93.7991C64.8071 93.9631 65.1341 95.1511 65.9131 94.9871L65.9101 94.9881Z" fill="#161616"/>
<path d="M67.6333 90.9331C70.0913 90.4411 72.2623 91.4651 74.6333 91.5881C76.7386 91.6415 78.8393 91.3652 80.8593 90.7691C81.0168 90.7256 81.1506 90.6213 81.2312 90.4791C81.3119 90.337 81.3328 90.1686 81.2893 90.0111C81.2458 89.8535 81.1415 89.7197 80.9993 89.6391C80.8572 89.5584 80.6888 89.5376 80.5313 89.5811C77.9427 90.3644 75.2046 90.519 72.5443 90.0321C70.8251 89.5554 69.0252 89.4437 67.2603 89.7041C66.5233 89.9041 66.8503 91.0971 67.6293 90.9331H67.6333Z" fill="#161616"/>
<path d="M90.2842 92.1631C91.2986 93.2441 92.5324 94.0957 93.9028 94.6609C95.2733 95.2261 96.7487 95.4918 98.2302 95.4401C99.0082 95.3991 99.0082 94.1701 98.2302 94.2111C96.9131 94.285 95.5962 94.062 94.3768 93.5587C93.1575 93.0553 92.0667 92.2845 91.1852 91.3031C91.0694 91.192 90.9151 91.1298 90.7545 91.1296C90.594 91.1295 90.4395 91.1913 90.3234 91.3022C90.2074 91.4131 90.1386 91.5646 90.1315 91.725C90.1243 91.8854 90.1794 92.0423 90.2852 92.1631H90.2842Z" fill="#161616"/>
<path opacity="0.18" d="M66.0361 96.9961C66.1591 95.8901 75.0881 95.6031 83.2801 96.7961C87.7041 97.4101 92.0051 98.0251 96.0601 99.9501C104.907 104.087 107.816 111.992 112.403 119.242C112.403 119.242 122.684 135.342 141.075 144.351C159.343 153.28 180.192 147.3 191.948 142.551L190.596 160.246C182.339 161.979 173.847 162.284 165.487 161.146C134.48 156.763 115.024 132.924 107.282 123.462C102.322 117.406 97.9727 110.874 94.2981 103.962C88.795 106.009 82.8986 106.78 77.0541 106.215C72.0981 105.683 66.2401 104.044 66.2811 102.615C66.3631 100.772 76.2341 99.6661 76.1521 99.2561C76.1111 99.0561 73.3261 99.6661 69.8851 98.8051C68.5341 98.4701 65.9951 97.6101 66.0361 96.9961Z" fill="#3D3D3D"/>
<path opacity="0.24" d="M159.057 154.135C170.321 154.158 181.36 150.976 190.883 144.96C190.683 150.203 190.432 155.405 190.228 160.648C177.348 162.822 164.135 161.896 151.684 157.948C122.315 148.568 107.897 125.221 104.17 118.708C105.358 120.834 124.651 153.685 159.057 154.135Z" fill="#3D3D3D"/>
<path opacity="0.19" d="M79.9623 103.713C88.7283 103.754 94.6263 102.443 94.7493 103.058C94.8313 103.55 91.1853 105.024 87.3353 105.758C76.1533 107.888 65.9133 103.258 66.0353 102.604C66.1583 102.157 70.7463 103.672 79.9623 103.713Z" fill="#3D3D3D"/>
<path d="M89.5471 47.0239C91.8317 47.0239 94.0649 47.7014 95.9645 48.9706C97.864 50.2399 99.3446 52.0439 100.219 54.1545C101.093 56.2652 101.322 58.5877 100.876 60.8284C100.43 63.0691 99.3303 65.1273 97.7149 66.7427C96.0994 68.3582 94.0413 69.4583 91.8006 69.904C89.5599 70.3497 87.2374 70.1209 85.1267 69.2467C83.016 68.3724 81.212 66.8919 79.9428 64.9923C78.6735 63.0928 77.9961 60.8595 77.9961 58.5749C77.9961 55.5114 79.2131 52.5734 81.3793 50.4071C83.5455 48.2409 86.4836 47.0239 89.5471 47.0239V47.0239Z" fill="#15A44A"/>
<path d="M87.212 70.8619C94.4508 70.8619 100.319 64.9754 100.319 57.7139C100.319 50.4525 94.4508 44.5659 87.212 44.5659C79.9732 44.5659 74.105 50.4525 74.105 57.7139C74.105 64.9754 79.9732 70.8619 87.212 70.8619Z" stroke="#161616" stroke-width="0.637" stroke-miterlimit="10"/>
<path d="M89.016 50.5059C86.435 50.3419 79.8 52.8409 82.258 56.5679C83.692 58.7389 86.477 57.3049 88.484 57.8379C91.065 58.5379 90.778 61.6469 89.184 63.1629C88.4035 63.8667 87.3837 64.246 86.333 64.2231C85.2824 64.2002 84.28 63.777 83.531 63.0399C82.958 62.5079 82.056 63.3679 82.671 63.8999C85.907 66.8489 91.682 65.1699 91.682 60.3769C91.7067 59.4082 91.3524 58.468 90.6944 57.7566C90.0364 57.0452 89.1267 56.6187 88.159 56.5679C86.643 56.3679 82.384 57.5099 83.367 54.3969C84.022 52.2669 87.1759 51.6119 89.0609 51.7349C89.8389 51.7759 89.839 50.5469 89.02 50.5059H89.016Z" fill="#161616"/>
<path d="M87.6221 51.0789C87.7451 49.7269 87.8681 48.4169 87.9911 47.0649C88.0731 46.2869 86.8441 46.2869 86.7621 47.0649C86.6391 48.4169 86.5161 49.7269 86.3931 51.0789C86.3111 51.8569 87.5401 51.8569 87.6221 51.0789Z" fill="#161616"/>
<path d="M86.8028 65.7429C86.9258 66.6849 87.0487 67.6679 87.1307 68.6099C87.2127 69.3879 88.4417 69.3879 88.3597 68.6099C88.2367 67.6679 88.1137 66.6849 88.0317 65.7429C87.9497 64.9649 86.7208 64.9649 86.8028 65.7429Z" fill="#161616"/>
<path d="M205.793 122.022C201.842 122.222 197.919 122.797 194.078 123.742C191.541 124.36 189.05 125.154 186.623 126.118C182.695 133.984 180.133 142.461 179.045 151.186C177.161 166.71 180.929 176.704 183.51 192.147C185.941 207.152 186.354 222.416 184.739 237.531C193.538 245.586 204.557 250.809 216.363 252.522C239.792 255.799 256.996 243.429 260.563 240.766C262.734 227.331 264.782 213.527 266.625 199.396C269.779 175.475 272.155 152.332 273.916 130.091C262.563 119.401 252.734 116.533 245.811 115.959C232.499 114.813 220.457 121.203 205.793 122.022Z" fill="#E4E4E4"/>
<path opacity="0.17" d="M224.185 132.345C227.716 135.951 230.784 139.982 233.319 144.345C248.27 170.314 239.013 200.625 234.876 214.06C230.666 227.732 224.231 240.616 215.829 252.194C220.835 253.041 225.931 253.22 230.984 252.726C241.591 251.591 251.695 247.614 260.23 241.216C264.08 219.343 267.357 196.078 269.897 171.501C271.372 157.083 272.478 143.033 273.297 129.476C271.052 127.323 268.596 125.402 265.965 123.742C260.681 120.342 252.365 115.058 242.986 116.697C231.025 118.746 224.963 130.706 224.185 132.345Z" fill="#3D3D3D" stroke="#E4E4E4" stroke-width="0.318"/>
<path opacity="0.11" d="M271.452 138.857C269.363 144.714 266.127 154.057 262.852 165.768C253.103 200.134 253.8 214.88 241.962 232.616C236.59 240.6 229.868 247.586 222.096 253.26C235.645 253.162 248.849 248.98 259.984 241.26C263.179 224.139 266.005 205.665 268.094 185.881C269.773 169.414 270.879 153.689 271.452 138.857Z" fill="#3D3D3D"/>
<path d="M252.447 217.707C251.587 216.107 252.488 213.734 253.84 212.464C256.34 210.088 260.885 210.989 262.933 213.57C263.22 213.939 264.612 215.659 264.039 217.134C262.81 220.123 254.208 220.902 252.447 217.707Z" fill="#F1FFFC" stroke="#161616" stroke-width="0.955" stroke-miterlimit="10"/>
<path d="M263.997 123.128C280.494 134.532 293.454 150.343 301.397 168.758C303.804 174.361 305.735 180.157 307.172 186.084C301.955 198.232 294.058 209.042 284.072 217.706C279.985 221.235 275.569 224.362 270.883 227.045C268.067 230.187 264.983 233.079 261.667 235.688C259.046 237.777 255.482 240.562 254.667 239.866C254.012 239.293 255.158 236.466 256.92 234.5C258.243 233.17 259.813 232.112 261.542 231.386C259.899 231.582 258.348 232.251 257.077 233.311C254.619 235.236 254.742 237.038 253.513 237.325C250.932 237.939 244.993 231.713 245.894 225.405C246.631 220.121 251.833 217.295 253.594 216.312C257.041 214.468 260.994 213.793 264.858 214.387C271.002 204.843 277.146 195.34 283.29 185.797C281.07 184.004 278.963 182.075 276.982 180.022C274.156 177.114 266.209 168.84 262.4 157.494C257.28 142.257 261.99 128.207 263.997 123.128Z" fill="#F1FFFC" stroke="#161616" stroke-width="0.955" stroke-miterlimit="10"/>
<path d="M246.876 230.611C248.342 227.281 251.001 224.622 254.331 223.156C255.068 222.828 254.413 221.763 253.717 222.091C250.191 223.651 247.372 226.47 245.812 229.996C245.484 230.696 246.549 231.307 246.877 230.61L246.876 230.611Z" fill="#161616"/>
<path d="M251.381 236.298C250.111 232.448 253.839 228.475 256.911 226.713C257.046 226.629 257.144 226.495 257.183 226.34C257.222 226.186 257.199 226.022 257.119 225.884C257.039 225.745 256.909 225.643 256.756 225.599C256.602 225.556 256.438 225.573 256.297 225.648C252.733 227.696 248.719 232.202 250.197 236.625C250.443 237.362 251.631 237.035 251.385 236.297L251.381 236.298Z" fill="#161616"/>
<path opacity="0.18" d="M262.114 129.887C269.012 137.001 275.442 144.553 281.365 152.497C291.765 166.383 296.93 173.346 297.299 180.678C297.954 194.278 287.755 211.278 274.32 217.747C270.429 219.631 260.312 223.441 254.495 230.895C252.816 233.025 251.095 235.974 251.71 236.629C252.243 237.161 254.21 235.769 254.864 236.429C255.642 237.207 253.758 239.583 254.291 240.115C254.946 240.77 258.591 238.436 262.278 235.486C265.273 233.052 268.068 230.381 270.634 227.499C274.963 225.03 279.061 222.179 282.881 218.979C293.52 209.989 301.895 198.622 307.33 185.798C306.087 181.008 304.54 176.302 302.701 171.708C298.164 160.312 291.785 149.74 283.818 140.414C277.993 133.671 271.333 127.697 263.998 122.637C263.342 125.054 262.73 127.47 262.114 129.887Z" fill="#3D3D3D"/>
<path opacity="0.21" d="M301.395 191.778C297.463 196.857 295.456 200.093 293.817 202.51C290.704 207.016 286.075 211.316 276.777 219.918C273.459 222.99 268.954 227.086 263.424 231.797C257.608 236.835 254.781 239.416 254.904 239.58C255.068 239.785 260.693 235.525 271.78 226.8C274.678 225.118 277.469 223.257 280.136 221.229C299.224 206.606 307.784 185.593 307.006 185.102C306.679 184.938 304.917 187.186 301.395 191.778Z" fill="#3D3D3D"/>
<path d="M197.232 54.8481C185.19 64.7191 185.681 84.7481 190.392 97.6931C192.747 104.068 196.482 109.845 201.328 114.61L199.362 128.864C203.95 130.973 208.9 132.183 213.944 132.428C229.919 133.206 241.344 123.867 244.46 121.164C241.634 111.702 238.808 102.226 235.981 92.7371C235.612 90.0751 234.998 85.9791 234.343 80.9811C232.582 67.9561 232.664 67.2591 231.885 65.1291C231.557 64.2691 226.642 51.7761 215.214 49.5641C205.998 47.8431 198.379 53.9061 197.232 54.8481Z" fill="#F1FFFC" stroke="#161616" stroke-width="0.955" stroke-miterlimit="10"/>
<path d="M187.319 88.189C186.311 92.174 185.992 96.3024 186.377 100.395C186.705 103.836 187.277 109.816 191.577 115.595C194.994 120.073 199.719 123.378 205.096 125.053C204.831 124.211 204.64 123.347 204.523 122.472C204.42 121.547 204.42 120.612 204.523 119.687C207.349 121.243 210.217 122.759 213.043 124.316C220.211 117.721 222.587 111.659 223.406 107.276C224.061 103.835 224.471 97.527 225.987 85.976C226.274 83.928 226.806 80.242 229.141 79.299C229.727 79.0757 230.361 79.0112 230.98 79.1118C231.598 79.2124 232.179 79.4746 232.664 79.872C235.49 82.248 232.623 89.129 233.238 89.334C233.853 89.539 238.809 82.616 237.129 74.711C236.418 71.5521 234.811 68.6653 232.501 66.396C229.388 71.3113 225.934 76.378 222.138 81.596C219.721 84.914 217.305 88.027 214.929 91.058C213.773 91.7194 212.45 92.0319 211.12 91.958C210.245 91.8023 209.392 91.5411 208.58 91.18C205.221 90.238 203.419 94.211 200.101 93.68C197.401 93.229 197.152 90.321 194.162 90.239C192.728 90.198 192.155 90.853 190.68 90.567C189.344 90.1348 188.171 89.3052 187.319 88.189V88.189Z" fill="#161616" stroke="#161616" stroke-width="0.955" stroke-miterlimit="10"/>
<path d="M201.246 76.557C200.225 81.2921 199.569 86.0986 199.282 90.934C199.284 91.0435 199.314 91.1507 199.37 91.2449C199.425 91.339 199.505 91.4169 199.6 91.4708C199.696 91.5246 199.803 91.5525 199.913 91.5517C200.022 91.5508 200.13 91.5213 200.224 91.466C201.903 90.606 203.624 89.705 205.303 88.845C206.003 88.476 205.385 87.411 204.689 87.78C203.01 88.64 201.289 89.541 199.61 90.401C199.938 90.565 200.224 90.77 200.552 90.933C200.823 86.2066 201.466 81.509 202.477 76.884C202.6 76.106 201.412 75.778 201.248 76.556L201.246 76.557Z" fill="#161616"/>
<path d="M194.692 81.472C195.212 81.472 195.634 80.4082 195.634 79.096C195.634 77.7837 195.212 76.72 194.692 76.72C194.172 76.72 193.75 77.7837 193.75 79.096C193.75 80.4082 194.172 81.472 194.692 81.472Z" fill="#161616" stroke="#161616" stroke-width="0.955" stroke-miterlimit="10"/>
<path d="M210.585 81.472C211.286 81.472 211.855 80.4082 211.855 79.096C211.855 77.7837 211.286 76.72 210.585 76.72C209.884 76.72 209.315 77.7837 209.315 79.096C209.315 80.4082 209.884 81.472 210.585 81.472Z" fill="#161616" stroke="#161616" stroke-width="0.955" stroke-miterlimit="10"/>
<path d="M192.395 74.4679C193.173 73.0339 194.895 73.3619 196.163 73.8129C196.9 74.0589 197.228 72.8709 196.491 72.6249C194.691 71.9699 192.391 71.9249 191.33 73.8539C190.961 74.5089 192.03 75.1649 192.395 74.4679V74.4679Z" fill="#161616"/>
<path d="M207.882 72.7879C208.32 72.3446 208.85 72.0027 209.434 71.7861C210.018 71.5694 210.642 71.4835 211.263 71.5342C211.884 71.5849 212.486 71.7711 213.027 72.0796C213.568 72.3881 214.035 72.8115 214.395 73.3199C214.846 73.9339 215.911 73.3199 215.46 72.7059C215 72.0425 214.4 71.4879 213.702 71.081C213.005 70.6742 212.227 70.4249 211.423 70.3508C210.619 70.2766 209.808 70.3794 209.048 70.6519C208.288 70.9243 207.596 71.3599 207.022 71.9279C206.449 72.4599 207.309 73.3209 207.882 72.7879V72.7879Z" fill="#161616"/>
<path d="M177.817 66.93C195.062 67.954 212.251 69.4013 229.386 71.272C231.721 71.518 231.721 67.831 229.386 67.586C212.223 65.702 195.034 64.2546 177.817 63.244C175.441 63.121 175.441 66.808 177.817 66.93Z" fill="#161616"/>
<path d="M188.958 64.392C189.483 58.7903 191.795 53.5058 195.553 49.319C202.393 42.069 215.053 39.038 224.881 45.182C232.581 50.015 236.719 59.354 235.326 68.857C219.883 67.3816 204.427 65.8933 188.958 64.392Z" fill="#15A44A"/>
<path opacity="0.69" d="M210.751 43.297C208.744 44.976 208.744 48.54 209.44 52.308C210.579 57.38 212.529 62.2348 215.215 66.685C221.933 67.463 228.65 68.285 235.368 69.061C235.776 67.0398 235.886 64.97 235.696 62.917C235.305 59.7954 234.318 56.778 232.788 54.029C227.871 45.59 215.009 39.692 210.751 43.297Z" fill="#3A3A3A"/>
<path opacity="0.24" d="M231.802 91.3849C230.708 91.9611 229.447 92.1352 228.238 91.8769C231.716 98.4275 232.938 105.941 231.717 113.257C230.495 120.572 226.897 127.281 221.48 132.346C224.546 131.721 227.548 130.817 230.45 129.646C235.575 127.554 240.321 124.634 244.499 121.003L234.668 86.4729C234.67 86.6739 234.506 89.9509 231.802 91.3849Z" fill="#3D3D3D"/>
<path opacity="0.19" d="M216.647 69.9209C217.319 72.8485 217.458 75.8731 217.057 78.8499C216.39 83.431 214.524 87.7546 211.65 91.3839C212.592 91.0969 213.534 90.7699 214.476 90.4839C216.36 88.1899 218.285 85.7329 220.169 83.2339C223.282 79.0969 226.149 75.0009 228.769 71.0689C224.716 70.6989 220.702 70.2889 216.647 69.9209Z" fill="#3D3D3D"/>
</g>
</svg>
