<svg width="36" height="36" viewBox="0 0 36 36" fill="none" xmlns="http://www.w3.org/2000/svg">
<g filter="url(#filter0_d_128_972)">
<path d="M18 6C15.8862 6.0255 13.8661 6.87655 12.3713 8.37134C10.8765 9.86614 10.0255 11.8862 10 14C10.0255 16.1138 10.8765 18.1339 12.3713 19.6287C13.8661 21.1235 15.8862 21.9745 18 22C20.1138 21.9745 22.1339 21.1235 23.6287 19.6287C25.1235 18.1339 25.9745 16.1138 26 14C25.9745 11.8862 25.1235 9.86614 23.6287 8.37134C22.1339 6.87655 20.1138 6.0255 18 6ZM22.5714 14.5714H18.5714V18.5714H17.4286V14.5714H13.4286V13.4286H17.4286V9.42857H18.5714V13.4286H22.5714V14.5714Z" fill="url(#paint0_linear_128_972)"/>
</g>
<defs>
<filter id="filter0_d_128_972" x="0" y="0" width="36" height="36" filterUnits="userSpaceOnUse" color-interpolation-filters="sRGB">
<feFlood flood-opacity="0" result="BackgroundImageFix"/>
<feColorMatrix in="SourceAlpha" type="matrix" values="0 0 0 0 0 0 0 0 0 0 0 0 0 0 0 0 0 0 127 0" result="hardAlpha"/>
<feOffset dy="4"/>
<feGaussianBlur stdDeviation="5"/>
<feComposite in2="hardAlpha" operator="out"/>
<feColorMatrix type="matrix" values="0 0 0 0 0.243137 0 0 0 0 0.243137 0 0 0 0 0.243137 0 0 0 0.24 0"/>
<feBlend mode="normal" in2="BackgroundImageFix" result="effect1_dropShadow_128_972"/>
<feBlend mode="normal" in="SourceGraphic" in2="effect1_dropShadow_128_972" result="shape"/>
</filter>
<linearGradient id="paint0_linear_128_972" x1="18" y1="6" x2="18" y2="29.68" gradientUnits="userSpaceOnUse">
<stop stop-color="#16A415"/>
<stop offset="1" stop-color="#2A643F"/>
</linearGradient>
</defs>
</svg>
