<svg width="15" height="16" viewBox="0 0 15 16" fill="none" xmlns="http://www.w3.org/2000/svg">
<path d="M13.4138 0H5.53362C4.65646 0 3.94668 0.7192 3.94668 1.608V6.1176L0.234338 9.8312C0.123106 9.94267 0.0470638 10.0851 0.0158622 10.2404C-0.0153394 10.3958 -0.000293938 10.557 0.0590891 10.7037C0.118472 10.8503 0.219516 10.9758 0.349396 11.0642C0.479277 11.1525 0.632139 11.1998 0.788583 11.2V15.2C0.788583 15.4122 0.871765 15.6157 1.01983 15.7657C1.16789 15.9157 1.36871 16 1.57811 16H14.2105C14.4199 16 14.6207 15.9157 14.7688 15.7657C14.9168 15.6157 15 15.4122 15 15.2V1.6072C15 0.7192 14.291 0 13.4138 0ZM7.04318 14.4H2.36763V9.9456L4.72593 7.5864L7.04318 9.9888V14.4ZM8.68381 5.6H7.10477V4H8.68381V5.6ZM11.8419 12H10.2629V10.4H11.8419V12ZM11.8419 8.8H10.2629V7.2H11.8419V8.8ZM11.8419 5.6H10.2629V4H11.8419V5.6Z" fill="white"/>
<path d="M3.94684 10.4H5.52589V12H3.94684V10.4Z" fill="white"/>
</svg>
