<svg width="13" height="13" viewBox="0 0 13 13" fill="none" xmlns="http://www.w3.org/2000/svg">
<path d="M10.625 1.25H10V0.625C10 0.25 9.75 0 9.375 0C9 0 8.75 0.25 8.75 0.625V1.25H3.75V0.625C3.75 0.25 3.5 0 3.125 0C2.75 0 2.5 0.25 2.5 0.625V1.25H1.875C0.8125 1.25 0 2.0625 0 3.125V3.75H12.5V3.125C12.5 2.0625 11.6875 1.25 10.625 1.25ZM0 10.625C0 11.6875 0.8125 12.5 1.875 12.5H10.625C11.6875 12.5 12.5 11.6875 12.5 10.625V5H0V10.625ZM9.375 6.25C9.75 6.25 10 6.5 10 6.875C10 7.25 9.75 7.5 9.375 7.5C9 7.5 8.75 7.25 8.75 6.875C8.75 6.5 9 6.25 9.375 6.25ZM9.375 8.75C9.75 8.75 10 9 10 9.375C10 9.75 9.75 10 9.375 10C9 10 8.75 9.75 8.75 9.375C8.75 9 9 8.75 9.375 8.75ZM6.25 6.25C6.625 6.25 6.875 6.5 6.875 6.875C6.875 7.25 6.625 7.5 6.25 7.5C5.875 7.5 5.625 7.25 5.625 6.875C5.625 6.5 5.875 6.25 6.25 6.25ZM6.25 8.75C6.625 8.75 6.875 9 6.875 9.375C6.875 9.75 6.625 10 6.25 10C5.875 10 5.625 9.75 5.625 9.375C5.625 9 5.875 8.75 6.25 8.75ZM3.125 6.25C3.5 6.25 3.75 6.5 3.75 6.875C3.75 7.25 3.5 7.5 3.125 7.5C2.75 7.5 2.5 7.25 2.5 6.875C2.5 6.5 2.75 6.25 3.125 6.25ZM3.125 8.75C3.5 8.75 3.75 9 3.75 9.375C3.75 9.75 3.5 10 3.125 10C2.75 10 2.5 9.75 2.5 9.375C2.5 9 2.75 8.75 3.125 8.75Z" fill="#9D9D9D"/>
</svg>
