<svg width="14" height="14" viewBox="0 0 14 14" fill="none" xmlns="http://www.w3.org/2000/svg">
<path d="M14 10.5L10.4103 14L7.89744 11.55L8.97436 10.5L10.4103 11.9L12.9231 9.45L14 10.5ZM1.4359 0C0.638974 0 0 0.623 0 1.4V12.6C0 13.377 0.638974 14 1.4359 14H7.04308C6.66256 13.363 6.46154 12.635 6.46154 11.9C6.46154 11.669 6.48308 11.431 6.51897 11.2H1.4359V9.8H7.04308C7.37333 9.24 7.83282 8.75 8.38564 8.4H1.4359V7H10.0513V7.756C10.2882 7.721 10.5323 7.7 10.7692 7.7C11.0133 7.7 11.2503 7.721 11.4872 7.756V4.2L7.17949 0H1.4359ZM6.46154 1.05L10.4103 4.9H6.46154V1.05Z" fill="#3E3E3E"/>
</svg>
