<svg width="8" height="8" viewBox="0 0 8 8" fill="none" xmlns="http://www.w3.org/2000/svg">
<path fill-rule="evenodd" clip-rule="evenodd" d="M0.194579 0.211307C0.319329 0.0869788 0.488433 0.017145 0.664747 0.017145C0.841061 0.017145 1.01017 0.0869788 1.13492 0.211307L3.99141 3.06168L6.8479 0.211307C6.90881 0.146079 6.98227 0.0937608 7.06388 0.0574744C7.14549 0.0211879 7.2336 0.00167615 7.32293 0.000103323C7.41226 -0.0014695 7.501 0.0149287 7.58385 0.0483196C7.66669 0.0817106 7.74195 0.13141 7.80513 0.194454C7.86831 0.257497 7.91811 0.332593 7.95158 0.415261C7.98504 0.497929 8.00147 0.586475 7.9999 0.675619C7.99832 0.764762 7.97877 0.852675 7.9424 0.934113C7.90604 1.01555 7.85361 1.08885 7.78824 1.14963L4.93175 4L7.78824 6.85037C7.85361 6.91115 7.90604 6.98445 7.9424 7.06589C7.97877 7.14732 7.99832 7.23524 7.9999 7.32438C8.00147 7.41352 7.98504 7.50207 7.95158 7.58474C7.91811 7.66741 7.86831 7.7425 7.80513 7.80554C7.74195 7.86859 7.66669 7.91829 7.58385 7.95168C7.501 7.98507 7.41226 8.00147 7.32293 7.9999C7.2336 7.99832 7.14549 7.97881 7.06388 7.94252C6.98227 7.90624 6.90881 7.85392 6.8479 7.78869L3.99141 4.93832L1.13492 7.78869C1.00879 7.90596 0.841972 7.96981 0.669606 7.96677C0.49724 7.96374 0.332783 7.89406 0.210882 7.77242C0.0889818 7.65078 0.0191557 7.48668 0.0161144 7.31468C0.0130732 7.14269 0.0770544 6.97623 0.194579 6.85037L3.05107 4L0.194579 1.14963C0.0699838 1.02515 0 0.856403 0 0.680467C0 0.504531 0.0699838 0.335789 0.194579 0.211307Z" fill="black"/>
</svg>
