<svg width="18" height="16" viewBox="0 0 18 16" fill="none" xmlns="http://www.w3.org/2000/svg">
<path d="M8.63455 10.0635C9.22829 10.0635 9.79772 9.8276 10.2176 9.40776C10.6374 8.98792 10.8733 8.41849 10.8733 7.82475C10.8733 7.75918 10.8703 7.69422 10.8647 7.63006L8.43986 10.0549C8.50402 10.0605 8.56878 10.0635 8.63455 10.0635ZM16.0447 0.89991L15.1908 0.0467989C15.1608 0.0168329 15.1202 0 15.0778 0C15.0354 0 14.9947 0.0168329 14.9647 0.0467989L12.7796 2.23255C11.5741 1.6165 10.2191 1.30848 8.7145 1.30848C4.8727 1.30848 2.00634 3.30933 0.115424 7.31104C0.0394187 7.47198 0 7.64776 0 7.82575C0 8.00373 0.0394187 8.17951 0.115424 8.34045C0.870992 9.93194 1.7808 11.2075 2.84486 12.1673L0.730272 14.281C0.700306 14.311 0.683473 14.3517 0.683473 14.3941C0.683473 14.4365 0.700306 14.4771 0.730272 14.5071L1.58358 15.3604C1.61357 15.3904 1.65423 15.4072 1.69662 15.4072C1.73901 15.4072 1.77967 15.3904 1.80965 15.3604L16.0447 1.12618C16.0596 1.11133 16.0714 1.09369 16.0794 1.07428C16.0875 1.05487 16.0916 1.03406 16.0916 1.01305C16.0916 0.992031 16.0875 0.971223 16.0794 0.95181C16.0714 0.932398 16.0596 0.914762 16.0447 0.89991ZM5.11656 7.82475C5.11651 7.21711 5.27384 6.61981 5.57324 6.09105C5.87263 5.56229 6.30388 5.12009 6.82497 4.80753C7.34606 4.49497 7.93922 4.32272 8.54667 4.30754C9.15412 4.29236 9.75515 4.43478 10.2912 4.72092L9.31936 5.69277C8.92742 5.56727 8.50849 5.55216 8.10853 5.64908C7.70857 5.74601 7.34304 5.95123 7.05203 6.24223C6.76103 6.53323 6.55581 6.89877 6.45888 7.29873C6.36196 7.69869 6.37707 8.11762 6.50257 8.50955L5.53072 9.4814C5.258 8.97185 5.11571 8.40269 5.11656 7.82475Z" fill="#9D9D9D"/>
<path d="M17.3138 7.30901C16.6102 5.82719 15.7727 4.61888 14.8014 3.68408L11.9202 6.56543C12.1631 7.2003 12.2169 7.89191 12.0752 8.55671C11.9335 9.22151 11.6023 9.83105 11.1217 10.3117C10.6411 10.7923 10.0315 11.1235 9.36672 11.2652C8.70192 11.4069 8.01031 11.3531 7.37544 11.1102L4.93164 13.554C6.06539 14.0787 7.3264 14.341 8.71467 14.341C12.5565 14.341 15.4228 12.3401 17.3138 8.33842C17.3898 8.17748 17.4292 8.0017 17.4292 7.82371C17.4292 7.64572 17.3898 7.46994 17.3138 7.30901Z" fill="#9D9D9D"/>
</svg>
