<svg width="37" height="37" viewBox="0 0 37 37" fill="none" xmlns="http://www.w3.org/2000/svg">
<path fill-rule="evenodd" clip-rule="evenodd" d="M21.0929 36.3216C29.8419 34.9642 36.5385 27.3987 36.5385 18.2692C36.5385 8.17941 28.359 0 18.2692 0C8.17941 0 0 8.17941 0 18.2692C0 27.3079 6.56397 34.8135 15.1851 36.2792V25.5643H11.5327C11.2174 25.5643 10.9615 25.3087 10.9615 24.9931V20.3877C10.9615 20.072 11.2171 19.8162 11.5327 19.8162H15.1851V16.6376C15.1851 12.4495 17.8225 9.74359 21.9036 9.74359L25.5362 9.74942C25.8512 9.75 26.1065 10.0056 26.1065 10.3206V14.597C26.1065 14.9123 25.851 15.1682 25.5356 15.1682L23.0886 15.1691C21.4015 15.1691 21.0929 15.8265 21.0929 17.1216V19.8162H25.3649C25.5164 19.8162 25.6621 19.8765 25.7691 19.9837C25.876 20.091 25.9363 20.2361 25.9363 20.3877L25.9346 24.9931C25.9346 25.3087 25.679 25.5643 25.3634 25.5643H21.0929V36.3216Z" fill="#297BE5"/>
</svg>
