<svg width="37" height="37" viewBox="0 0 37 37" fill="none" xmlns="http://www.w3.org/2000/svg">
<path fill-rule="evenodd" clip-rule="evenodd" d="M18.7311 36.5385C28.821 36.5385 37.0004 28.359 37.0004 18.2692C37.0004 8.17941 28.821 0 18.7311 0C8.64133 0 0.461914 8.17941 0.461914 18.2692C0.461914 28.359 8.64133 36.5385 18.7311 36.5385ZM24.5886 20.3397H18.7311V16.1987H29.0837V18.2692C29.0837 23.9776 24.4395 28.6218 18.7311 28.6218C13.0227 28.6218 8.37858 23.9776 8.37858 18.2692C8.37858 12.5608 13.0227 7.91667 18.7311 7.91667C21.2178 7.91667 23.6113 8.81113 25.4748 10.4344L22.7542 13.5567C21.6444 12.5898 20.2157 12.0577 18.7311 12.0577C15.3065 12.0577 12.5196 14.8446 12.5196 18.2692C12.5196 21.6939 15.3065 24.4808 18.7311 24.4808C21.4311 24.4808 23.7335 22.7498 24.5886 20.3397Z" fill="#EA4335"/>
</svg>
