<svg width="11" height="14" viewBox="0 0 11 14" fill="none" xmlns="http://www.w3.org/2000/svg">
<path d="M11 3.5H7.33333V0L11 3.5ZM7.33333 4.375H11V12.6875C11 13.4124 10.3844 14 9.625 14H1.375C0.615599 14 0 13.4121 0 12.6875V1.3125C0 0.587617 0.615599 0 1.375 0H6.41667L6.41678 3.5C6.41667 3.98398 6.8263 4.375 7.33333 4.375ZM1.83333 2.40625C1.83333 2.52602 1.93732 2.625 2.0625 2.625H4.35417C4.48021 2.625 4.58333 2.52602 4.58333 2.40625V1.96875C4.58333 1.84926 4.48021 1.75 4.35417 1.75H2.0625C1.93732 1.75 1.83333 1.84926 1.83333 1.96875V2.40625ZM2.0625 4.375H4.35417C4.48021 4.375 4.58333 4.27656 4.58333 4.15625V3.71875C4.58333 3.59844 4.48021 3.5 4.35417 3.5H2.0625C1.93732 3.5 1.83333 3.59844 1.83333 3.71875V4.15625C1.83333 4.27656 1.93732 4.375 2.0625 4.375ZM5.65755 8.6625L5.47422 8.61875C4.82109 8.42734 4.83542 8.31523 4.85833 8.2168C4.89772 8.00319 5.33357 7.95104 5.72544 8.0083C5.88569 8.03138 6.06146 8.08519 6.22932 8.14075C6.52695 8.23903 6.85466 8.08776 6.95836 7.80333C7.0622 7.51786 6.90419 7.20614 6.60516 7.10689C6.39836 7.03896 6.22961 6.99538 6.07349 6.9627V6.78125C6.07349 6.47965 5.81702 6.23438 5.50057 6.23438C5.18412 6.23438 4.92766 6.47962 4.92766 6.78125V6.94509C4.28542 7.07656 3.83281 7.45938 3.72969 8.03086C3.51754 9.20227 4.68044 9.52793 5.17688 9.66711L5.34336 9.71327C6.18211 9.94227 6.16836 10.0192 6.14316 10.1584C6.10377 10.372 5.66792 10.425 5.2749 10.3669C5.07616 10.3387 4.82201 10.2516 4.59714 10.1747L4.46912 10.1302C4.17092 10.032 3.84378 10.1798 3.73808 10.4644C3.63289 10.749 3.7891 11.0616 4.08756 11.1625L4.20976 11.2035C4.432 11.2797 4.67898 11.3563 4.92763 11.4089V11.5938C4.92763 11.8954 5.18409 12.1406 5.50054 12.1406C5.81699 12.1406 6.07346 11.8954 6.07346 11.5938V11.4227C6.71398 11.2917 7.16802 10.9161 7.27172 10.3446C7.48516 9.16016 6.29635 8.83477 5.65755 8.6625Z" fill="#3E3E3E"/>
</svg>
