<svg width="37" height="37" viewBox="0 0 37 37" fill="none" xmlns="http://www.w3.org/2000/svg">
<path d="M18.27 36.5401C28.3602 36.5401 36.54 28.3604 36.54 18.2701C36.54 8.17988 28.3602 0.00012207 18.27 0.00012207C8.17976 0.00012207 0 8.17988 0 18.2701C0 28.3604 8.17976 36.5401 18.27 36.5401Z" fill="#007AB9"/>
<path d="M29.1861 19.7403V27.2727H24.819V20.2451C24.819 18.4806 24.1885 17.2756 22.6073 17.2756C21.4007 17.2756 20.6839 18.0869 20.3673 18.8724C20.2523 19.1531 20.2227 19.543 20.2227 19.9367V27.2723H15.8553C15.8553 27.2723 15.914 15.37 15.8553 14.138H20.223V15.9992C20.2142 16.0139 20.2019 16.0282 20.194 16.0422H20.223V15.9992C20.8034 15.1062 21.8384 13.8296 24.1589 13.8296C27.032 13.8296 29.1861 15.7068 29.1861 19.7403ZM11.2867 7.80676C9.79279 7.80676 8.81543 8.78739 8.81543 10.0758C8.81543 11.3368 9.76446 12.3458 11.2294 12.3458H11.2577C12.7809 12.3458 13.728 11.3368 13.728 10.0758C13.699 8.78739 12.7809 7.80676 11.2867 7.80676ZM9.075 27.2727H13.4407V14.138H9.075V27.2727Z" fill="#F1F2F2"/>
</svg>
