<svg width="15" height="14" viewBox="0 0 15 14" fill="none" xmlns="http://www.w3.org/2000/svg">
<path d="M15 6.5634C15 10.1883 11.6419 13.1268 7.5 13.1268C6.75717 13.1278 6.01743 13.0313 5.29969 12.8399C4.75219 13.1174 3.495 13.65 1.38 13.9969C1.1925 14.0269 1.05 13.8319 1.12406 13.6575C1.45594 12.8736 1.75594 11.8291 1.84594 10.8765C0.6975 9.72321 0 8.21363 0 6.5634C0 2.93853 3.35812 0 7.5 0C11.6419 0 15 2.93853 15 6.5634ZM4.6875 6.5634C4.6875 6.31473 4.58873 6.07624 4.41291 5.9004C4.2371 5.72456 3.99864 5.62577 3.75 5.62577C3.50136 5.62577 3.2629 5.72456 3.08709 5.9004C2.91127 6.07624 2.8125 6.31473 2.8125 6.5634C2.8125 6.81208 2.91127 7.05057 3.08709 7.2264C3.2629 7.40224 3.50136 7.50103 3.75 7.50103C3.99864 7.50103 4.2371 7.40224 4.41291 7.2264C4.58873 7.05057 4.6875 6.81208 4.6875 6.5634ZM8.4375 6.5634C8.4375 6.31473 8.33873 6.07624 8.16291 5.9004C7.9871 5.72456 7.74864 5.62577 7.5 5.62577C7.25136 5.62577 7.0129 5.72456 6.83709 5.9004C6.66127 6.07624 6.5625 6.31473 6.5625 6.5634C6.5625 6.81208 6.66127 7.05057 6.83709 7.2264C7.0129 7.40224 7.25136 7.50103 7.5 7.50103C7.74864 7.50103 7.9871 7.40224 8.16291 7.2264C8.33873 7.05057 8.4375 6.81208 8.4375 6.5634ZM11.25 7.50103C11.4986 7.50103 11.7371 7.40224 11.9129 7.2264C12.0887 7.05057 12.1875 6.81208 12.1875 6.5634C12.1875 6.31473 12.0887 6.07624 11.9129 5.9004C11.7371 5.72456 11.4986 5.62577 11.25 5.62577C11.0014 5.62577 10.7629 5.72456 10.5871 5.9004C10.4113 6.07624 10.3125 6.31473 10.3125 6.5634C10.3125 6.81208 10.4113 7.05057 10.5871 7.2264C10.7629 7.40224 11.0014 7.50103 11.25 7.50103Z" fill="#3E3E3E"/>
</svg>
