<svg width="14" height="14" viewBox="0 0 14 14" fill="none" xmlns="http://www.w3.org/2000/svg">
<path d="M7.01052 14C6.63857 13.9982 6.28227 13.8503 6.01861 13.5884C5.75494 13.3264 5.60508 12.9714 5.6014 12.6H8.40561C8.40731 12.7871 8.37181 12.9727 8.30115 13.146C8.21045 13.3537 8.07162 13.5369 7.8961 13.6805C7.72058 13.8241 7.51341 13.924 7.29164 13.972H7.25939C7.17747 13.9889 7.09416 13.9983 7.01052 14ZM12.6189 11.9H1.4021V10.5L2.80421 9.8V5.95C2.76727 4.96238 2.99064 3.98239 3.45198 3.108C3.679 2.70709 3.98858 2.3588 4.3603 2.0861C4.73201 1.81341 5.1574 1.62251 5.60841 1.526V0H8.41262V1.526C10.2206 1.9558 11.2168 3.5266 11.2168 5.95V9.8L12.6189 10.5V11.9ZM14 5.6H12.5979C12.5656 4.70592 12.3359 3.83001 11.925 3.03496C11.5142 2.2399 10.9324 1.54534 10.2213 1.001L11.2168 0C12.0553 0.651335 12.7329 1.48617 13.1973 2.4402C13.6775 3.42792 13.9507 4.50315 14 5.6ZM1.4021 5.6H0C0.0490736 4.5031 0.322484 3.4279 0.802704 2.4402C1.26712 1.48617 1.94468 0.651335 2.78317 0L3.77867 1.001C3.06753 1.54528 2.4857 2.23981 2.07484 3.03489C1.66398 3.82996 1.43425 4.7059 1.4021 5.6Z" fill="#3E3E3E"/>
</svg>
