<svg width="15" height="15" viewBox="0 0 15 15" fill="none" xmlns="http://www.w3.org/2000/svg">
<path d="M7.49984 0.416748C6.09889 0.416748 4.7294 0.832178 3.56455 1.6105C2.3997 2.38883 1.49181 3.4951 0.955694 4.78941C0.419573 6.08372 0.279299 7.50794 0.552611 8.88197C0.825923 10.256 1.50055 11.5181 2.49117 12.5088C3.48179 13.4994 4.74392 14.174 6.11795 14.4473C7.49198 14.7206 8.91621 14.5803 10.2105 14.0442C11.5048 13.5081 12.6111 12.6002 13.3894 11.4354C14.1677 10.2705 14.5832 8.90103 14.5832 7.50008C14.5832 6.56988 14.4 5.6488 14.044 4.78941C13.688 3.93002 13.1663 3.14916 12.5085 2.49141C11.8508 1.83366 11.0699 1.31191 10.2105 0.955935C9.35113 0.599964 8.43004 0.416748 7.49984 0.416748V0.416748ZM7.49984 13.1667C6.37908 13.1667 5.28349 12.8344 4.35161 12.2117C3.41973 11.5891 2.69342 10.7041 2.26452 9.66862C1.83563 8.63317 1.72341 7.4938 1.94206 6.39457C2.16071 5.29534 2.7004 4.28564 3.4929 3.49314C4.2854 2.70065 5.2951 2.16095 6.39433 1.9423C7.49355 1.72365 8.63293 1.83587 9.66838 2.26476C10.7038 2.69366 11.5888 3.41997 12.2115 4.35185C12.8342 5.28373 13.1665 6.37932 13.1665 7.50008C13.1665 9.00297 12.5695 10.4443 11.5068 11.507C10.4441 12.5697 9.00273 13.1667 7.49984 13.1667V13.1667Z" fill="#15A44A"/>
<path d="M7.49968 3.9585C6.7992 3.9585 6.11446 4.16621 5.53203 4.55537C4.94961 4.94454 4.49566 5.49767 4.2276 6.14483C3.95954 6.79198 3.88941 7.50409 4.02606 8.19111C4.16272 8.87812 4.50003 9.50919 4.99534 10.0045C5.49065 10.4998 6.12172 10.8371 6.80873 10.9738C7.49575 11.1104 8.20786 11.0403 8.85501 10.7722C9.50217 10.5042 10.0553 10.0502 10.4445 9.46781C10.8336 8.88538 11.0413 8.20064 11.0413 7.50016C11.0413 6.56085 10.6682 5.66002 10.004 4.99583C9.33982 4.33163 8.43898 3.9585 7.49968 3.9585Z" fill="#15A44A"/>
</svg>
