<svg width="374" height="457" viewBox="0 0 374 457" fill="none" xmlns="http://www.w3.org/2000/svg">
<mask id="mask0_1162_1183" style="mask-type:alpha" maskUnits="userSpaceOnUse" x="0" y="0" width="374" height="457">
<rect width="374" height="457" fill="#D9D9D9"/>
</mask>
<g mask="url(#mask0_1162_1183)">
<path d="M234.084 260.165C155.533 303.558 -13.4299 322.512 -13.4299 322.512L-15.276 235.621C-15.276 235.621 74.7967 231.977 154.818 198.005C234.839 164.033 292.996 68.0734 292.996 68.0734C292.996 68.0734 339.364 110.854 335.59 158.386C333.951 179.121 302.443 224.836 234.084 260.165Z" fill="#15A44A"/>
<path d="M358.226 269.801C358.184 276.538 358.101 283.316 358.06 290.053C358.06 291.716 358.018 293.38 358.018 295.001C358.018 296.124 357.768 297.538 358.226 298.619C358.933 300.449 361.303 299.95 362.177 301.488C362.266 301.202 362.336 300.91 362.385 300.615C359.349 302.115 358.559 305.48 358.31 308.599C358.102 311.593 357.977 316.417 361.886 316.999C361.851 316.622 361.796 316.247 361.72 315.876C355.815 318.576 358.185 329.142 360.68 333.383C362.625 336.435 365.105 339.111 367.999 341.283C369.579 342.572 371.159 343.783 372.781 345.026C373.737 345.775 374.694 346.481 375.609 347.226C376.109 347.6 378.229 348.765 378.309 349.472C378.451 349.27 378.604 349.076 378.766 348.89H378.849C378.938 349.176 379.008 349.468 379.057 349.763C379.099 349.721 379.099 349.68 379.14 349.638C379.473 348.931 378.433 348.307 378.059 349.014C378.017 349.056 378.017 349.097 377.976 349.139C377.896 349.284 377.873 349.454 377.911 349.616C377.95 349.777 378.047 349.919 378.184 350.012C378.298 350.122 378.444 350.194 378.6 350.216C378.757 350.239 378.917 350.211 379.057 350.137C379.307 350.054 379.557 349.804 379.514 349.555C379.348 348.266 378.059 347.684 377.061 346.935C375.606 345.771 374.108 344.648 372.653 343.484C369.853 341.442 367.212 339.19 364.753 336.747C362.058 334.072 360.294 330.601 359.721 326.847C359.264 323.687 358.848 318.613 362.341 316.991C362.798 316.783 362.715 315.91 362.175 315.868C358.848 315.368 359.306 310.628 359.555 308.092C359.804 305.597 360.511 302.977 362.965 301.771C363.104 301.679 363.203 301.538 363.242 301.376C363.281 301.214 363.256 301.043 363.173 300.898C362.3 299.398 360.179 299.692 359.389 298.361C358.765 297.361 359.181 295.034 359.223 293.828C359.223 292.165 359.265 290.501 359.265 288.879C359.307 282.558 359.348 276.196 359.431 269.879C359.44 269.798 359.433 269.716 359.41 269.638C359.386 269.559 359.347 269.487 359.295 269.424C359.242 269.361 359.178 269.31 359.105 269.273C359.033 269.235 358.953 269.213 358.872 269.208C358.79 269.202 358.708 269.213 358.631 269.24C358.554 269.267 358.483 269.309 358.423 269.364C358.362 269.419 358.314 269.485 358.28 269.56C358.246 269.634 358.227 269.714 358.225 269.796L358.226 269.801Z" fill="#E8E8E8"/>
<path d="M358.894 270.133C364.716 270.424 368.794 274.874 372.284 279.033C373.947 281.033 375.694 282.9 377.399 284.772C379.145 286.643 381.433 290.427 378.272 292.257C378.157 292.33 378.068 292.438 378.02 292.565C377.971 292.693 377.966 292.833 378.003 292.964C378.041 293.095 378.119 293.21 378.228 293.292C378.336 293.375 378.469 293.42 378.605 293.421C383.429 293.546 385.55 299.409 387.047 303.11C388.83 307.59 390.248 312.207 391.289 316.916C393.392 326.556 393.842 336.484 392.62 346.275C392.537 347.065 393.784 347.065 393.868 346.275C395.178 335.386 394.473 324.348 391.789 313.714C390.571 308.659 388.843 303.741 386.632 299.035C385.052 295.708 382.598 292.257 378.606 292.174C378.731 292.548 378.814 292.964 378.939 293.338C385.01 289.845 377.483 283.191 375.03 280.322C370.664 275.249 366.256 269.222 358.937 268.845C358.772 268.849 358.616 268.917 358.499 269.033C358.382 269.149 358.314 269.305 358.309 269.47C358.304 269.634 358.361 269.795 358.47 269.918C358.579 270.042 358.731 270.119 358.895 270.134L358.894 270.133Z" fill="#E8E8E8"/>
<path d="M350.367 242.605C343.381 243.105 339.68 234.912 340.844 229.005C341.967 223.225 347.622 219.149 353.402 219.316C361.012 219.482 364.921 226.926 363.549 233.871C362.343 240.071 356.105 244.641 349.868 242.188C349.119 241.897 348.787 243.103 349.535 243.394C352.009 244.275 354.711 244.271 357.183 243.384C359.654 242.497 361.742 240.782 363.091 238.529C364.512 236.029 365.192 233.177 365.052 230.305C364.912 227.434 363.958 224.661 362.301 222.311C358.891 217.737 352.362 217.111 347.414 219.317C344.987 220.354 342.923 222.091 341.487 224.305C340.05 226.52 339.305 229.112 339.347 231.751C339.472 237.656 343.838 244.309 350.325 243.851C351.157 243.809 351.198 242.562 350.367 242.603V242.605Z" fill="#E8E8E8"/>
<path d="M132.549 406.073C157.624 403.744 182.741 400.708 207.9 399.673C233.267 398.633 258.758 399.299 284.124 399.964C298.678 400.338 313.232 401.045 327.704 402.417C328.494 402.5 328.494 401.253 327.704 401.17C302.255 398.758 276.722 398.47 251.189 398.176C238.381 398.01 225.573 397.885 212.807 398.301C200.373 398.675 187.981 399.715 175.589 400.838L132.549 404.83C131.759 404.872 131.759 406.119 132.549 406.078V406.073Z" fill="#E8E8E8"/>
<path d="M263.039 387.693C273.477 389.647 283.79 389.564 294.31 388.608C305.122 387.608 315.893 386.986 326.747 386.487C348.537 385.531 370.327 384.657 392.076 383.742C404.51 383.201 416.943 382.702 429.375 382.162C430.165 382.12 430.165 380.873 429.375 380.914L363.922 383.659C342.464 384.574 320.882 385.031 299.466 386.859C293.644 387.359 287.821 388.023 282 388.107C275.751 388.177 269.509 387.62 263.37 386.444C262.58 386.361 262.248 387.567 263.038 387.692L263.039 387.693Z" fill="#E8E8E8"/>
<path d="M-19.9004 378.881C-0.521748 379.422 18.8566 379.338 38.2346 378.631C39.0246 378.589 39.0246 377.342 38.2346 377.383C18.8559 378.09 -0.522413 378.174 -19.9004 377.633C-20.7324 377.591 -20.7324 378.839 -19.9004 378.881Z" fill="#E8E8E8"/>
<path d="M1.26669 395.594C8.33569 394.094 15.8217 395.053 22.9737 395.386C30.1677 395.76 37.3207 396.093 44.5147 396.467C59.1527 397.215 73.7487 397.967 88.3867 398.667C89.1767 398.709 89.1767 397.461 88.3867 397.419L43.6867 395.174L21.3557 394.051C14.5777 393.718 7.67468 392.928 0.979684 394.384C0.189684 394.55 0.522684 395.756 1.27068 395.59L1.26669 395.594Z" fill="#E8E8E8"/>
<path d="M113.379 363.906C139.079 365.652 164.362 358.999 190.019 359.082C190.178 359.073 190.328 359.003 190.438 358.887C190.547 358.771 190.608 358.618 190.608 358.458C190.608 358.298 190.547 358.145 190.438 358.029C190.328 357.913 190.178 357.843 190.019 357.834C164.361 357.751 139.078 364.363 113.379 362.658C112.589 362.575 112.589 363.864 113.379 363.906Z" fill="#E8E8E8"/>
<path d="M94.1244 234.662C94.3117 233.948 94.5623 233.252 94.8734 232.583C95.0814 232.292 95.2474 232.042 95.4554 231.751C96.3284 231.668 97.2434 231.543 98.1164 231.46C98.3654 231.626 98.5734 232.125 98.7404 232.375C99.3268 233.257 100.092 234.007 100.986 234.575C101.876 235.116 102.877 235.449 103.914 235.55C104.951 235.651 105.997 235.516 106.974 235.157C112.089 233.286 114.002 226.507 120.239 227.173C121.906 227.319 123.474 228.024 124.689 229.173C125.604 230.046 126.311 231.127 127.267 231.959C128.074 232.622 129.045 233.053 130.078 233.207C131.111 233.36 132.166 233.231 133.13 232.832C135.63 231.959 137.538 230.087 139.409 228.299C141.946 225.929 145.647 223.059 149.015 225.599C151.215 227.221 152.508 229.716 155.253 230.589C156.512 230.994 157.851 231.088 159.154 230.864C160.458 230.639 161.687 230.103 162.738 229.3C163.362 228.843 162.738 227.72 162.114 228.219C160.745 229.29 159.023 229.807 157.29 229.668C155.558 229.53 153.94 228.745 152.758 227.47C151.011 225.77 149.514 223.644 146.936 223.353C140.865 222.604 137.704 230.007 132.548 231.712C128.639 233.001 127.348 229.512 124.772 227.595C123.819 226.893 122.736 226.389 121.585 226.11C120.435 225.832 119.241 225.785 118.072 225.973C115.572 226.347 113.664 227.844 111.918 229.549C109.88 231.587 107.718 234.373 104.558 234.373C103.57 234.348 102.603 234.076 101.746 233.582C100.889 233.088 100.169 232.388 99.6514 231.545C98.9864 230.63 98.4454 229.882 97.2394 229.757C94.6194 229.508 93.4964 232.257 92.8734 234.29C92.8371 234.451 92.8633 234.62 92.9467 234.763C93.0302 234.906 93.1646 235.011 93.323 235.059C93.4813 235.106 93.6518 235.092 93.8 235.019C93.9482 234.945 94.063 234.819 94.1214 234.664L94.1244 234.662Z" fill="#E8E8E8"/>
<path d="M158.245 213.163C159.745 208.797 164.982 212.498 166.978 214.119C168.725 215.533 170.762 216.988 173.132 216.905C177.041 216.739 179.12 212.747 182.322 211.083C186.772 208.796 189.475 214.742 193.799 214.16C195.712 213.91 196.71 212.372 197.916 211.041C199.205 209.627 200.536 209.627 202.366 210.041C204.066 210.457 205.817 210.873 207.522 211.288C207.68 211.325 207.846 211.3 207.985 211.217C208.125 211.135 208.226 211.002 208.27 210.845C208.313 210.689 208.294 210.522 208.216 210.38C208.139 210.238 208.01 210.131 207.855 210.082C206.155 209.666 204.403 209.25 202.699 208.834C201.581 208.429 200.376 208.328 199.206 208.543C196.919 209.25 196.254 212.286 193.966 212.826C191.513 213.408 189.101 210.664 186.98 209.79C186.155 209.405 185.251 209.22 184.34 209.249C183.43 209.278 182.54 209.52 181.74 209.956C179.91 210.912 178.54 212.534 176.916 213.823C175.896 214.778 174.602 215.389 173.216 215.57C171.054 215.695 169.265 214.198 167.685 212.95C165.772 211.45 163.734 209.665 161.115 209.873C160.226 209.889 159.363 210.176 158.642 210.696C157.921 211.217 157.376 211.945 157.081 212.784C156.79 213.574 157.996 213.907 158.245 213.158V213.163Z" fill="#E8E8E8"/>
<path d="M346.251 91.8191C345.877 99.5951 345.627 107.413 345.544 115.231C345.553 115.39 345.623 115.54 345.739 115.65C345.855 115.76 346.008 115.821 346.168 115.821C346.328 115.821 346.481 115.76 346.597 115.65C346.713 115.54 346.783 115.39 346.792 115.231C346.875 107.413 347.125 99.6371 347.499 91.8191C347.541 91.0291 346.293 91.0291 346.251 91.8191Z" fill="#E8E8E8"/>
<path d="M347.085 92.404C356.691 91.073 366.463 89.784 376.028 92.03C376.186 92.0673 376.352 92.042 376.491 91.9595C376.631 91.8769 376.733 91.7436 376.776 91.5874C376.819 91.4313 376.8 91.2645 376.722 91.1221C376.645 90.9798 376.516 90.8729 376.361 90.824C366.589 88.495 356.567 89.824 346.753 91.198C345.963 91.281 346.296 92.487 347.086 92.404H347.085Z" fill="#E8E8E8"/>
<path d="M346.583 135.65C346.791 137.65 346.874 139.725 347.248 141.68C347.312 142.122 347.467 142.545 347.703 142.924C347.94 143.303 348.252 143.628 348.62 143.88C351.24 145.58 355.482 144.587 358.351 144.421L370.619 143.672C372.449 143.547 375.36 143.048 374.237 140.512C373.904 139.763 372.823 140.429 373.156 141.136C373.364 141.593 371.035 142.342 370.619 142.425C369.943 142.508 369.262 142.55 368.581 142.55C367.375 142.633 366.128 142.716 364.922 142.758C362.469 142.924 360.015 143.049 357.562 143.215C355.316 143.34 352.821 143.797 350.576 143.298C347.748 142.633 348.123 138.058 347.831 135.688C347.748 134.856 346.5 134.856 346.584 135.646L346.583 135.65Z" fill="#E8E8E8"/>
<path d="M339.016 134.114C335.357 139.478 331.572 144.76 327.747 149.999C327.686 150.092 327.653 150.2 327.653 150.311C327.653 150.422 327.686 150.53 327.747 150.623C328.045 151.121 328.506 151.5 329.051 151.697C329.597 151.894 330.194 151.897 330.741 151.704C332.529 151.163 333.402 149.126 334.317 147.712C335.836 145.379 337.518 143.155 339.349 141.058C340.139 140.185 340.929 139.311 341.761 138.48C342.717 137.524 344.339 135.486 345.711 135.28C346.501 135.155 346.168 133.949 345.378 134.074C344.131 134.282 343.299 135.28 342.384 136.112C341.178 137.235 340.014 138.399 338.891 139.647C336.726 142.053 334.753 144.625 332.991 147.34C332.541 148.156 332.027 148.935 331.452 149.669C330.787 150.625 330.08 150.709 329.252 149.918C329.501 149.585 329.752 149.253 329.959 148.918C331.082 147.379 332.205 145.841 333.286 144.302C335.573 141.102 337.819 137.902 340.023 134.654C340.564 134.072 339.482 133.448 339.023 134.113L339.016 134.114Z" fill="#E8E8E8"/>
<path d="M345.503 135.649C348.063 135.694 350.579 134.985 352.739 133.609C354.898 132.234 356.605 130.253 357.646 127.914C359.476 123.631 358.478 118.058 354.61 115.231C350.16 112.031 344.464 114.441 341.01 117.931C338.859 119.968 337.404 122.63 336.852 125.541C336.678 126.691 336.734 127.864 337.018 128.992C337.18 129.647 337.432 130.277 337.767 130.863C337.85 131.029 339.767 133.732 338.931 133.691C338.141 133.608 338.141 134.855 338.931 134.939C339.204 134.967 339.481 134.923 339.731 134.81C339.982 134.698 340.199 134.521 340.359 134.297C340.52 134.074 340.618 133.812 340.645 133.539C340.671 133.265 340.625 132.989 340.511 132.739C340.22 131.783 339.305 131.117 338.811 130.239C338.102 128.856 337.854 127.282 338.104 125.748C338.811 120.425 344.466 114.848 349.956 114.936C355.362 114.978 358.19 121.007 357.067 125.748C356.384 128.271 354.873 130.492 352.777 132.053C350.68 133.615 348.119 134.426 345.506 134.356C345.339 134.362 345.182 134.433 345.066 134.553C344.951 134.674 344.886 134.834 344.886 135C344.886 135.167 344.951 135.327 345.066 135.447C345.182 135.568 345.339 135.638 345.506 135.645L345.503 135.649Z" fill="#E8E8E8"/>
<path d="M351.408 96.8099L351.366 96.7679V97.6409C351.907 97.0169 355.649 97.0589 356.647 96.9339C358.227 96.7679 359.847 96.6429 361.429 96.5599C363.011 96.4769 364.629 96.3939 366.253 96.3519C366.96 96.3519 370.661 96.6849 370.91 96.0189C370.619 96.7679 371.825 97.0999 372.116 96.3519C372.158 96.2689 372.158 96.2269 372.199 96.1439C372.233 96.0348 372.236 95.9181 372.207 95.8075C372.177 95.697 372.116 95.5972 372.032 95.5199C371.117 94.6049 369.454 95.0199 368.248 95.0199C365.961 95.0199 363.715 95.1029 361.428 95.2699C359.307 95.3949 357.186 95.6029 355.028 95.8109C353.947 95.9359 351.244 95.7689 350.454 96.6839C350.344 96.8025 350.282 96.9585 350.282 97.1204C350.282 97.2824 350.344 97.4383 350.454 97.5569L350.496 97.5989C351.12 98.2639 351.996 97.3499 351.411 96.8089L351.408 96.8099Z" fill="#E8E8E8"/>
<path d="M350.825 102.88C354.967 103.337 359.142 103.421 363.3 103.13C364.09 103.088 364.09 101.841 363.3 101.882C359.254 102.167 355.191 102.097 351.157 101.674C350.367 101.591 350.034 102.797 350.824 102.88H350.825Z" fill="#E8E8E8"/>
<path d="M347.996 107.58C347.871 107.705 347.747 107.871 347.623 107.996C347.537 108.086 347.479 108.2 347.457 108.322C347.434 108.445 347.448 108.571 347.497 108.686C347.545 108.801 347.626 108.899 347.73 108.969C347.833 109.038 347.955 109.076 348.079 109.077C355.315 109.201 362.551 108.867 369.744 108.077C370.534 107.994 370.534 106.746 369.744 106.83C362.551 107.62 355.315 107.954 348.079 107.83C348.245 108.204 348.37 108.537 348.536 108.911C348.661 108.786 348.787 108.62 348.911 108.495C349.411 107.871 348.536 106.995 347.995 107.58H347.996Z" fill="#E8E8E8"/>
<path d="M356.938 114.399C360.715 114.69 364.513 114.522 368.249 113.899C369.039 113.774 368.706 112.568 367.916 112.693C364.288 113.281 360.603 113.434 356.938 113.15C356.106 113.108 356.106 114.356 356.938 114.398V114.399Z" fill="#E8E8E8"/>
<path d="M346.791 131.241C343.423 131.407 340.553 128.455 341.634 125.041C342.187 123.559 343.093 122.235 344.275 121.184C345.456 120.133 346.877 119.387 348.412 119.011C349.103 118.892 349.812 118.927 350.488 119.114C351.164 119.301 351.79 119.635 352.321 120.092C353.86 121.506 353.444 123.585 352.737 125.292C351.531 128.286 349.327 130.992 345.959 131.363C345.169 131.446 345.169 132.694 345.959 132.611C350.284 132.154 353.359 128.453 354.401 124.377C355.401 120.551 352.571 117.391 348.621 117.723C344.961 118.056 340.928 121.757 340.262 125.375C340.107 126.293 340.164 127.235 340.428 128.128C340.692 129.021 341.157 129.842 341.787 130.528C342.417 131.214 343.195 131.747 344.062 132.087C344.93 132.426 345.863 132.563 346.791 132.486C347.581 132.444 347.581 131.197 346.791 131.238V131.241Z" fill="#E8E8E8"/>
<path d="M347.499 119.556C345.836 123.132 344.299 126.75 342.925 130.41C342.634 131.159 343.84 131.491 344.131 130.743C345.503 127.167 346.959 123.632 348.581 120.181C348.914 119.433 347.874 118.809 347.5 119.557L347.499 119.556Z" fill="#E8E8E8"/>
<path d="M349.411 123.132C348.33 125.378 347.29 127.623 346.211 129.869C345.878 130.576 346.96 131.241 347.292 130.493C348.373 128.247 349.413 126.002 350.492 123.756C350.825 123.049 349.785 122.384 349.411 123.132Z" fill="#E8E8E8"/>
<path d="M40.2725 55.2249V66.6189C40.2815 66.7783 40.3512 66.9282 40.4672 67.0378C40.5832 67.1475 40.7368 67.2086 40.8965 67.2086C41.0561 67.2086 41.2097 67.1475 41.3257 67.0378C41.4417 66.9282 41.5114 66.7783 41.5204 66.6189V55.2249C41.5114 55.0655 41.4417 54.9156 41.3257 54.806C41.2097 54.6964 41.0561 54.6353 40.8965 54.6353C40.7368 54.6353 40.5832 54.6964 40.4672 54.806C40.3512 54.9156 40.2815 55.0655 40.2725 55.2249Z" fill="#E8E8E8"/>
<path d="M41.0623 67.1601H51.6243C51.7837 67.1511 51.9336 67.0814 52.0432 66.9654C52.1529 66.8493 52.214 66.6958 52.214 66.5361C52.214 66.3765 52.1529 66.2229 52.0432 66.1069C51.9336 65.9908 51.7837 65.9211 51.6243 65.9121H41.0623C40.9029 65.9211 40.753 65.9908 40.6434 66.1069C40.5338 66.2229 40.4727 66.3765 40.4727 66.5361C40.4727 66.6958 40.5338 66.8493 40.6434 66.9654C40.753 67.0814 40.9029 67.1511 41.0623 67.1601Z" fill="#E8E8E8"/>
<path d="M52.374 65.8289V53.4369C52.363 53.279 52.2925 53.1312 52.1768 53.0232C52.0611 52.9153 51.9087 52.8552 51.7505 52.8552C51.5922 52.8552 51.4398 52.9153 51.3241 53.0232C51.2084 53.1312 51.1379 53.279 51.127 53.4369V65.8289C51.1379 65.9868 51.2084 66.1347 51.3241 66.2426C51.4398 66.3506 51.5922 66.4107 51.7505 66.4107C51.9087 66.4107 52.0611 66.3506 52.1768 66.2426C52.2925 66.1347 52.363 65.9868 52.374 65.8289Z" fill="#E8E8E8"/>
<path d="M51.9163 52.646H41.1043C40.9449 52.655 40.795 52.7247 40.6854 52.8407C40.5757 52.9568 40.5146 53.1103 40.5146 53.27C40.5146 53.4296 40.5757 53.5832 40.6854 53.6993C40.795 53.8153 40.9449 53.885 41.1043 53.894H51.9163C52.0757 53.885 52.2256 53.8153 52.3352 53.6993C52.4449 53.5832 52.506 53.4296 52.506 53.27C52.506 53.1103 52.4449 52.9568 52.3352 52.8407C52.2256 52.7247 52.0757 52.655 51.9163 52.646Z" fill="#E8E8E8"/>
<path d="M45.5537 67.825V80.508C45.5627 80.6674 45.6324 80.8173 45.7484 80.9269C45.8645 81.0366 46.0181 81.0977 46.1777 81.0977C46.3374 81.0977 46.491 81.0366 46.607 80.9269C46.723 80.8173 46.7927 80.6674 46.8017 80.508V67.825C46.7927 67.6656 46.723 67.5157 46.607 67.4061C46.491 67.2964 46.3374 67.2354 46.1777 67.2354C46.0181 67.2354 45.8645 67.2964 45.7484 67.4061C45.6324 67.5157 45.5627 67.6656 45.5537 67.825Z" fill="#E8E8E8"/>
<path d="M30.9126 80.3411C35.5286 75.9331 40.3386 71.7054 45.3426 67.6581C45.9666 67.1581 45.0926 66.2861 44.4696 66.7851C39.4796 70.8191 34.6976 75.0191 30.0396 79.4681C29.4576 80.0091 30.3306 80.8821 30.9126 80.3411Z" fill="#E8E8E8"/>
<path d="M46.8835 68.0741L61.8535 79.4271C62.4775 79.9271 63.1015 78.8451 62.4775 78.3461L47.5075 66.9931C46.8835 66.4931 46.2595 67.5751 46.8835 68.0741Z" fill="#E8E8E8"/>
<path d="M26.0926 81.8391H34.3676C34.527 81.83 34.6769 81.7604 34.7865 81.6443C34.8962 81.5283 34.9572 81.3747 34.9572 81.2151C34.9572 81.0554 34.8962 80.9018 34.7865 80.7858C34.6769 80.6698 34.527 80.6001 34.3676 80.5911H26.0926C25.9332 80.6001 25.7833 80.6698 25.6737 80.7858C25.564 80.9018 25.5029 81.0554 25.5029 81.2151C25.5029 81.3747 25.564 81.5283 25.6737 81.6443C25.7833 81.7604 25.9332 81.83 26.0926 81.8391Z" fill="#E8E8E8"/>
<path d="M33.6182 82.0891V91.4891C33.6272 91.6485 33.6969 91.7984 33.8129 91.908C33.9289 92.0177 34.0825 92.0788 34.2422 92.0788C34.4018 92.0788 34.5554 92.0177 34.6714 91.908C34.7874 91.7984 34.8571 91.6485 34.8661 91.4891V82.0891C34.8661 82.0071 34.85 81.926 34.8187 81.8503C34.7873 81.7746 34.7413 81.7058 34.6834 81.6479C34.6254 81.5899 34.5567 81.5439 34.481 81.5126C34.4052 81.4812 34.3241 81.4651 34.2422 81.4651C34.1602 81.4651 34.0791 81.4812 34.0034 81.5126C33.9276 81.5439 33.8589 81.5899 33.8009 81.6479C33.743 81.7058 33.697 81.7746 33.6656 81.8503C33.6343 81.926 33.6182 82.0071 33.6182 82.0891Z" fill="#E8E8E8"/>
<path d="M25.1768 81.5061V92.4821C25.1858 92.6415 25.2555 92.7914 25.3715 92.901C25.4875 93.0106 25.6411 93.0717 25.8008 93.0717C25.9604 93.0717 26.114 93.0106 26.23 92.901C26.3461 92.7914 26.4157 92.6415 26.4248 92.4821V81.5061C26.4248 81.3406 26.359 81.1819 26.242 81.0648C26.125 80.9478 25.9663 80.8821 25.8008 80.8821C25.6353 80.8821 25.4766 80.9478 25.3595 81.0648C25.2425 81.1819 25.1768 81.3406 25.1768 81.5061Z" fill="#E8E8E8"/>
<path d="M25.6766 93.2331H33.3696C33.529 93.2241 33.6789 93.1544 33.7885 93.0384C33.8982 92.9223 33.9592 92.7687 33.9592 92.6091C33.9592 92.4495 33.8982 92.2959 33.7885 92.1798C33.6789 92.0638 33.529 91.9941 33.3696 91.9851H25.6766C25.5172 91.9941 25.3673 92.0638 25.2577 92.1798C25.148 92.2959 25.0869 92.4495 25.0869 92.6091C25.0869 92.7687 25.148 92.9223 25.2577 93.0384C25.3673 93.1544 25.5172 93.2241 25.6766 93.2331Z" fill="#E8E8E8"/>
<path d="M41.7275 81.7971V92.6091C41.7366 92.7685 41.8062 92.9184 41.9223 93.028C42.0383 93.1377 42.1919 93.1988 42.3515 93.1988C42.5112 93.1988 42.6648 93.1377 42.7808 93.028C42.8968 92.9184 42.9665 92.7685 42.9755 92.6091V81.7971C42.9755 81.6316 42.9098 81.4729 42.7928 81.3559C42.6757 81.2388 42.517 81.1731 42.3515 81.1731C42.186 81.1731 42.0273 81.2388 41.9103 81.3559C41.7933 81.4729 41.7275 81.6316 41.7275 81.7971Z" fill="#E8E8E8"/>
<path d="M42.3514 92.9421H49.9194C50.0788 92.9331 50.2286 92.8634 50.3383 92.7474C50.4479 92.6313 50.509 92.4777 50.509 92.3181C50.509 92.1584 50.4479 92.0049 50.3383 91.8888C50.2286 91.7728 50.0788 91.7031 49.9194 91.6941H42.3514C42.192 91.7031 42.0421 91.7728 41.9325 91.8888C41.8228 92.0049 41.7617 92.1584 41.7617 92.3181C41.7617 92.4777 41.8228 92.6313 41.9325 92.7474C42.0421 92.8634 42.192 92.9331 42.3514 92.9421Z" fill="#E8E8E8"/>
<path d="M42.7674 82.4211H49.4674C49.6268 82.4121 49.7767 82.3424 49.8863 82.2263C49.996 82.1103 50.057 81.9567 50.057 81.7971C50.057 81.6374 49.996 81.4839 49.8863 81.3678C49.7767 81.2518 49.6268 81.1821 49.4674 81.1731H42.7674C42.608 81.1821 42.4581 81.2518 42.3485 81.3678C42.2388 81.4839 42.1777 81.6374 42.1777 81.7971C42.1777 81.9567 42.2388 82.1103 42.3485 82.2263C42.4581 82.3424 42.608 82.4121 42.7674 82.4211Z" fill="#E8E8E8"/>
<path d="M49.0049 81.6309V91.9019C49.0139 92.0613 49.0836 92.2112 49.1996 92.3208C49.3156 92.4305 49.4692 92.4916 49.6289 92.4916C49.7885 92.4916 49.9421 92.4305 50.0581 92.3208C50.1742 92.2112 50.2438 92.0613 50.2529 91.9019V81.6309C50.2438 81.4715 50.1742 81.3217 50.0581 81.212C49.9421 81.1024 49.7885 81.0413 49.6289 81.0413C49.4692 81.0413 49.3156 81.1024 49.1996 81.212C49.0836 81.3217 49.0139 81.4715 49.0049 81.6309Z" fill="#E8E8E8"/>
<path d="M59.3594 81.6311C59.2344 84.3311 59.1514 87.0371 59.1514 89.7401C59.1623 89.898 59.2328 90.0458 59.3485 90.1538C59.4642 90.2618 59.6166 90.3218 59.7749 90.3218C59.9331 90.3218 60.0855 90.2618 60.2012 90.1538C60.317 90.0458 60.3874 89.898 60.3984 89.7401C60.3984 87.0401 60.4814 84.3341 60.6064 81.6311C60.6484 80.8411 59.4004 80.8411 59.3594 81.6311Z" fill="#E8E8E8"/>
<path d="M59.8994 81.9231C62.6444 81.6321 65.3883 81.2991 68.1333 81.0081C68.9233 80.9251 68.9233 79.6771 68.1333 79.7601C65.3883 80.0511 62.6444 80.3841 59.8994 80.6751C59.1094 80.7581 59.0674 82.0061 59.8994 81.9231Z" fill="#E8E8E8"/>
<path d="M67.7187 80.6331C67.4199 83.3911 67.5179 86.1778 68.0097 88.9081C68.1347 89.6981 69.3407 89.3651 69.2157 88.5751C68.7588 85.9524 68.6746 83.2783 68.9657 80.6321C69.0487 79.8421 67.8017 79.8421 67.7177 80.6321L67.7187 80.6331Z" fill="#E8E8E8"/>
<path d="M60.3178 90.821L68.5518 89.573C69.3418 89.448 69.0088 88.242 68.2188 88.367L59.9848 89.615C59.1948 89.74 59.5278 90.904 60.3178 90.821Z" fill="#E8E8E8"/>
<path d="M45.387 93.3159C43.8681 95.6481 42.5067 98.0792 41.312 100.593C40.979 101.3 42.0599 101.965 42.3929 101.217C43.5948 98.7069 44.9559 96.2762 46.468 93.9399C46.884 93.2749 45.803 92.6509 45.387 93.3159Z" fill="#E8E8E8"/>
<path d="M45.7611 93.8151C47.2866 95.8661 48.6228 98.0514 49.7531 100.344C50.1271 101.051 51.2081 100.427 50.8341 99.7201C49.6822 97.4394 48.3472 95.2559 46.8421 93.1911C46.3851 92.5261 45.3031 93.1491 45.7611 93.8151Z" fill="#E8E8E8"/>
<path d="M39.0661 102.21C39.9391 102.21 40.8131 102.21 41.7271 102.252C42.1303 102.259 42.5328 102.287 42.9331 102.335C43.6821 102.377 43.5981 102.127 43.7231 102.792C43.8751 104.539 43.8194 106.298 43.5571 108.032C43.4741 108.822 44.7211 108.822 44.8051 108.032C44.8881 106.784 44.9711 105.495 44.9711 104.248C45.1041 103.4 45.0474 102.534 44.8051 101.711C44.4311 101.087 43.5571 101.17 42.9341 101.129C41.6448 101.046 40.3558 101.004 39.0671 101.004C38.2771 100.962 38.2771 102.21 39.0671 102.21H39.0661Z" fill="#E8E8E8"/>
<path d="M38.2345 102.174C38.3595 103.629 38.4845 105.043 38.6085 106.499C38.6915 107.663 38.5255 109.368 38.9825 110.491C39.0285 110.682 39.1338 110.853 39.2833 110.98C39.4329 111.107 39.6188 111.183 39.8145 111.198C40.8955 111.406 42.5145 110.865 43.5985 110.698C44.3885 110.573 44.0555 109.409 43.2655 109.492C42.4133 109.736 41.5318 109.861 40.6455 109.866C39.8555 109.658 40.0215 108.577 39.9805 107.745C39.8145 105.874 39.6475 104.045 39.4805 102.173C39.3975 101.383 38.1495 101.341 38.2325 102.173L38.2345 102.174Z" fill="#E8E8E8"/>
<path d="M47.633 102.007C47.543 103.224 47.5153 104.446 47.55 105.666C47.6872 106.701 47.7706 107.742 47.8 108.785C48.008 108.743 48.216 108.66 48.424 108.619C48.382 108.619 48.341 108.577 48.258 108.577C48.4001 108.779 48.5527 108.973 48.715 109.159V108.993C48.5729 109.195 48.4204 109.389 48.258 109.575C48.2807 109.578 48.3037 109.575 48.3253 109.568C48.3469 109.561 48.3666 109.549 48.383 109.533C49.173 109.367 48.84 108.161 48.05 108.327C48.0274 108.324 48.0044 108.327 47.9828 108.334C47.9611 108.341 47.9414 108.353 47.925 108.369C47.7928 108.397 47.6747 108.471 47.5912 108.577C47.5077 108.684 47.4641 108.816 47.468 108.951V109.117C47.4721 109.25 47.5187 109.378 47.601 109.483C47.6832 109.588 47.7967 109.663 47.925 109.699C49.006 109.907 49.006 108.909 48.965 108.119C48.7708 106.045 48.743 103.959 48.882 101.881C48.924 101.174 47.676 101.216 47.634 102.006L47.633 102.007Z" fill="#E8E8E8"/>
<path d="M48.3818 102.299C48.3818 102.008 51.0428 101.925 51.4178 101.966C52.4578 102.132 52.2498 102.215 52.4178 102.966C52.4728 103.534 52.4448 104.106 52.3348 104.666C52.2928 105.706 52.2928 106.704 52.3348 107.743C52.3348 108.325 52.7508 110.072 52.4598 110.488C52.7458 110.399 53.0375 110.33 53.3329 110.28C53.2909 110.28 53.2499 110.238 53.2079 110.238C53.2909 110.487 53.4158 110.695 53.4988 110.945C53.4988 110.903 53.5408 110.862 53.5408 110.82C53.5781 110.662 53.5528 110.496 53.4703 110.357C53.3877 110.218 53.2544 110.116 53.0982 110.073C52.9421 110.029 52.7753 110.049 52.633 110.126C52.4906 110.203 52.3837 110.333 52.3348 110.487C52.3348 110.529 52.2928 110.57 52.2928 110.612C52.2544 110.745 52.2623 110.888 52.3151 111.016C52.368 111.145 52.4627 111.251 52.5838 111.319C52.6258 111.319 52.6668 111.361 52.7088 111.361C52.8557 111.434 53.0235 111.453 53.1831 111.415C53.3426 111.377 53.4838 111.284 53.5818 111.153C53.8728 110.737 53.7478 110.321 53.7068 109.822C53.6648 108.699 53.5818 107.535 53.5818 106.412C53.5818 105.289 53.6239 104.125 53.6649 103.002C53.7985 102.458 53.7398 101.885 53.4988 101.38C52.7918 100.424 50.5458 100.715 49.6318 100.839C48.5918 100.964 47.2198 101.089 47.1318 102.339C47.1318 103.087 48.3799 103.087 48.3799 102.297L48.3818 102.299Z" fill="#E8E8E8"/>
<path d="M48.5068 110.739C49.7499 110.662 50.9975 110.774 52.2068 111.072C52.3645 111.109 52.5304 111.084 52.6698 111.002C52.8092 110.919 52.9111 110.786 52.9543 110.63C52.9974 110.473 52.9783 110.307 52.901 110.164C52.8237 110.022 52.6943 109.915 52.5398 109.866C51.2284 109.5 49.8644 109.359 48.5058 109.45C47.6738 109.533 47.6738 110.781 48.5058 110.739H48.5068Z" fill="#E8E8E8"/>
<path d="M64.1419 91.0711C63.1419 93.2711 62.2709 95.5621 61.4809 97.8491C61.2319 98.5981 62.4369 98.9301 62.6869 98.1821C63.4359 95.9821 64.2669 93.8161 65.2239 91.6951C65.5569 90.9461 64.4749 90.3231 64.1429 91.0711H64.1419Z" fill="#E8E8E8"/>
<path d="M57.7809 100.925C59.8597 100.328 62.0193 100.062 64.1808 100.135C64.9708 100.177 64.9708 98.9289 64.1808 98.8869C61.9054 98.8093 59.632 99.09 57.4438 99.7189C57.2894 99.7678 57.16 99.8747 57.0827 100.017C57.0054 100.159 56.9863 100.326 57.0294 100.482C57.0725 100.638 57.1745 100.772 57.3139 100.854C57.4533 100.937 57.6192 100.962 57.7769 100.925H57.7809Z" fill="#E8E8E8"/>
<path d="M57.738 100.344C57.5023 101.47 57.5167 102.634 57.78 103.754C57.8908 105.151 57.9186 106.554 57.863 107.954C57.78 109.784 58.237 109.992 60.063 109.825C61.311 109.7 63.016 110.033 63.473 108.661C63.7621 107.167 63.9042 105.649 63.897 104.128C64.022 102.628 64.188 101.092 64.313 99.5949C64.396 98.8049 63.149 98.8049 63.065 99.5949C62.899 101.342 62.732 103.13 62.565 104.876C62.5369 105.641 62.4675 106.405 62.357 107.163C62.107 108.327 61.983 108.411 60.777 108.535C60.403 108.577 60.07 108.618 59.696 108.66C58.989 108.909 58.781 108.702 59.072 107.995C59.024 107.288 59.0381 106.578 59.114 105.874C59.072 104.294 58.449 102.174 58.906 100.674C59.197 99.884 57.991 99.5509 57.742 100.341L57.738 100.344Z" fill="#E8E8E8"/>
<path d="M65.889 92.235C66.8374 93.7077 67.6982 95.2351 68.467 96.809C68.8 97.516 69.881 96.892 69.548 96.185C68.7862 94.6074 67.9252 93.0797 66.97 91.611C66.513 90.904 65.431 91.528 65.889 92.235Z" fill="#E8E8E8"/>
<path d="M67.3027 98.6391H73.5407C73.7001 98.6301 73.85 98.5604 73.9596 98.4444C74.0693 98.3283 74.1304 98.1747 74.1304 98.0151C74.1304 97.8555 74.0693 97.7019 73.9596 97.5858C73.85 97.4698 73.7001 97.4001 73.5407 97.3911H73.1667C73.0073 97.4001 72.8574 97.4698 72.7478 97.5858C72.6381 97.7019 72.5771 97.8555 72.5771 98.0151C72.5771 98.1747 72.6381 98.3283 72.7478 98.4444C72.8574 98.5604 73.0073 98.6301 73.1667 98.6391H73.5407C73.7001 98.6301 73.85 98.5604 73.9596 98.4444C74.0693 98.3283 74.1304 98.1747 74.1304 98.0151C74.1304 97.8555 74.0693 97.7019 73.9596 97.5858C73.85 97.4698 73.7001 97.4001 73.5407 97.3911H67.3027C67.1372 97.3911 66.9785 97.4569 66.8615 97.5739C66.7445 97.6909 66.6787 97.8496 66.6787 98.0151C66.6787 98.1806 66.7445 98.3393 66.8615 98.4563C66.9785 98.5734 67.1372 98.6391 67.3027 98.6391Z" fill="#E8E8E8"/>
<path d="M66.6788 98.597C66.8448 100.177 66.9698 101.757 67.0118 103.338C67.0538 104.461 66.6788 106.374 67.1778 107.413C67.4688 108.037 67.8428 108.12 68.5088 108.12C70.0988 107.994 71.6813 107.786 73.2498 107.496C73.3749 107.455 73.485 107.378 73.5664 107.274C73.6477 107.171 73.6966 107.045 73.7068 106.914C73.6648 104.086 73.6238 101.3 73.5818 98.472C73.5728 98.3126 73.5031 98.1627 73.387 98.0531C73.271 97.9434 73.1174 97.8823 72.9578 97.8823C72.7981 97.8823 72.6445 97.9434 72.5285 98.0531C72.4125 98.1627 72.3428 98.3126 72.3338 98.472C72.3758 101.3 72.4168 104.086 72.4588 106.914C72.6009 106.712 72.7534 106.518 72.9158 106.332C71.9158 106.457 70.9158 106.582 69.9218 106.748C69.5888 106.79 68.6328 107.081 68.3418 106.831C68.1338 106.665 68.3418 105.376 68.3418 105.131C68.2998 102.969 68.1758 100.806 67.9678 98.685C67.8428 97.812 66.5958 97.812 66.6788 98.602V98.597Z" fill="#E8E8E8"/>
<path d="M20.5161 102.009C22.646 100.016 24.8958 98.1552 27.2531 96.4371C27.8771 95.9801 27.2531 94.8981 26.6291 95.3561C24.1806 97.1331 21.8473 99.0637 19.6431 101.136C19.0611 101.677 19.9341 102.55 20.5161 102.009Z" fill="#E8E8E8"/>
<path d="M26.8822 95.894C28.1132 97.6524 29.1585 99.5338 30.0012 101.508C30.3342 102.257 31.4152 101.591 31.0822 100.884C30.225 98.9169 29.1805 97.0369 27.9632 95.27C27.5062 94.605 26.4242 95.228 26.8822 95.894Z" fill="#E8E8E8"/>
<path d="M14.9896 104.295C16.1126 104.212 17.1896 104.129 18.3166 104.045C18.8125 103.964 19.3141 103.922 19.8166 103.92C20.3986 103.712 20.5656 103.754 20.3166 104.086C20.1476 104.312 20.073 104.596 20.1086 104.876C19.7137 106.946 19.5049 109.047 19.4846 111.155C19.8586 110.989 20.1916 110.864 20.5656 110.698C20.5142 110.651 20.4719 110.594 20.4406 110.532C19.8996 109.95 19.0266 110.823 19.5676 111.405C19.6191 111.452 19.6614 111.508 19.6926 111.571C19.7836 111.655 19.8969 111.711 20.0189 111.732C20.1409 111.754 20.2665 111.739 20.3806 111.691C20.4947 111.643 20.5924 111.563 20.6622 111.46C20.7319 111.358 20.7706 111.238 20.7736 111.114C20.8209 109.332 20.9735 107.555 21.2306 105.791C21.3556 105.042 21.8956 103.791 21.4386 103.046C21.0646 102.464 20.4386 102.589 19.8586 102.63C18.2366 102.755 16.6586 102.88 15.0346 103.004C14.2026 103.129 14.2026 104.376 14.9926 104.293L14.9896 104.295Z" fill="#E8E8E8"/>
<path d="M15.8192 103.088H15.6533C15.5471 103.093 15.4433 103.122 15.3497 103.172C15.2561 103.222 15.1749 103.293 15.1122 103.379C14.4472 104.502 14.4882 106.456 14.2802 107.745L13.4073 113.234C13.3653 113.567 13.4902 113.941 13.8232 113.983C15.7039 114.423 17.6729 114.293 19.4792 113.609C20.2282 113.318 19.8952 112.109 19.1462 112.403C17.5578 113.024 15.8195 113.154 14.1563 112.777C14.2813 113.026 14.4473 113.277 14.5723 113.526C14.6973 112.694 16.1522 104.336 15.7362 104.294C16.6092 104.419 16.6092 103.171 15.8192 103.088Z" fill="#E8E8E8"/>
<path d="M27.1306 102.88L27.0886 102.922H27.9616C27.9196 102.922 27.9196 102.88 27.8786 102.88V103.753C28.1958 103.715 28.5153 103.701 28.8346 103.711C29.2916 103.669 29.7906 103.628 30.2486 103.628C31.1228 103.593 31.9983 103.621 32.8686 103.711C32.7026 103.337 32.5776 103.004 32.4116 102.63C32.3345 102.675 32.2644 102.731 32.2036 102.796C31.4136 102.879 31.4136 104.127 32.2036 104.044C32.4183 104.038 32.6292 103.986 32.8227 103.893C33.0162 103.8 33.1879 103.667 33.3266 103.503C33.4125 103.413 33.4701 103.299 33.4925 103.177C33.5148 103.054 33.5008 102.928 33.4523 102.813C33.4038 102.698 33.3228 102.6 33.2193 102.53C33.1158 102.461 32.9942 102.423 32.8696 102.422C31.666 102.325 30.4571 102.311 29.2516 102.38C28.6696 102.422 27.4636 102.297 27.0516 102.837C26.9921 102.893 26.9447 102.961 26.9124 103.036C26.88 103.111 26.8633 103.192 26.8633 103.274C26.8633 103.355 26.88 103.436 26.9124 103.511C26.9447 103.586 26.9921 103.654 27.0516 103.71C27.0936 103.71 27.0936 103.752 27.1346 103.752C27.1907 103.812 27.2583 103.859 27.3334 103.891C27.4085 103.924 27.4894 103.94 27.5711 103.94C27.6529 103.94 27.7337 103.924 27.8088 103.891C27.8839 103.859 27.9515 103.812 28.0076 103.752L28.0496 103.71C28.5496 103.169 27.6756 102.296 27.1346 102.878L27.1306 102.88Z" fill="#E8E8E8"/>
<path d="M26.6325 103.172C26.5075 104.872 26.3825 106.582 26.2995 108.287C26.2575 109.243 25.7175 111.697 26.2995 112.57C26.4091 112.764 26.5755 112.92 26.7763 113.016C26.977 113.113 27.2025 113.146 27.4225 113.111C27.9807 113.008 28.5251 112.84 29.0445 112.611C30.0473 112.341 31.0833 112.215 32.1215 112.237C32.2794 112.226 32.4273 112.155 32.5352 112.04C32.6432 111.924 32.7033 111.772 32.7033 111.613C32.7033 111.455 32.6432 111.303 32.5352 111.187C32.4273 111.071 32.2794 111.001 32.1215 110.99C31.1985 110.984 30.2777 111.081 29.3765 111.281C28.9605 111.364 28.1705 111.822 27.7965 111.738C27.5055 111.946 27.3805 111.904 27.4635 111.572C27.4219 111.226 27.4219 110.877 27.4635 110.532C27.5055 108.12 27.7135 105.667 27.8795 103.255C27.8889 103.171 27.8811 103.086 27.8567 103.005C27.8323 102.924 27.7918 102.849 27.7375 102.784C27.6832 102.719 27.6164 102.666 27.541 102.628C27.4656 102.589 27.3833 102.567 27.2989 102.561C27.2146 102.555 27.1299 102.567 27.0501 102.595C26.9703 102.623 26.8971 102.667 26.8347 102.724C26.7723 102.781 26.7221 102.85 26.6872 102.927C26.6523 103.004 26.6334 103.087 26.6315 103.172H26.6325Z" fill="#E8E8E8"/>
<path d="M31.9972 103.297C31.6573 106.084 31.5047 108.89 31.5402 111.697C31.5492 111.857 31.6189 112.006 31.7349 112.116C31.851 112.226 32.0045 112.287 32.1642 112.287C32.3238 112.287 32.4774 112.226 32.5934 112.116C32.7095 112.006 32.7791 111.857 32.7882 111.697C32.7526 108.89 32.9053 106.084 33.2452 103.297C33.3702 102.507 32.1222 102.507 31.9972 103.297Z" fill="#E8E8E8"/>
<path d="M364.173 277.744C373.979 299.327 380.86 322.123 384.633 345.527C384.758 346.317 385.964 345.985 385.839 345.194C382.024 321.691 375.102 298.799 365.255 277.12C364.922 276.413 363.841 277.037 364.174 277.744H364.173Z" fill="#E8E8E8"/>
<path d="M359.932 300.532C366.649 302.343 372.474 306.543 376.316 312.342C376.773 313.007 377.855 312.384 377.397 311.718C373.385 305.639 367.293 301.233 360.264 299.326C360.106 299.289 359.941 299.314 359.801 299.397C359.662 299.479 359.56 299.613 359.517 299.769C359.474 299.925 359.493 300.092 359.57 300.234C359.647 300.376 359.777 300.483 359.931 300.532H359.932Z" fill="#E8E8E8"/>
<path d="M376.15 283.274C373.848 287.033 372.334 291.221 371.701 295.583C371.576 296.373 372.782 296.706 372.907 295.916C373.524 291.659 374.995 287.571 377.232 283.898C377.648 283.233 376.566 282.609 376.151 283.274H376.15Z" fill="#E8E8E8"/>
<path d="M367.293 349.393C376.733 351.68 386.339 349.975 395.778 348.852C406.002 347.806 416.273 347.279 426.551 347.272C426.71 347.263 426.86 347.193 426.97 347.077C427.079 346.961 427.14 346.808 427.14 346.648C427.14 346.488 427.079 346.335 426.97 346.219C426.86 346.103 426.71 346.033 426.551 346.024C416.529 346.19 406.507 346.398 396.568 347.524C386.962 348.647 377.19 350.518 367.625 348.189C367.469 348.157 367.307 348.186 367.171 348.269C367.036 348.352 366.937 348.483 366.895 348.636C366.852 348.79 366.87 348.953 366.944 349.094C367.017 349.235 367.142 349.342 367.292 349.395L367.293 349.393Z" fill="#E8E8E8"/>
<path d="M348.955 225.804C344.838 226.594 339.805 222.644 339.93 218.277C340.096 213.328 346.292 211.665 350.243 211.623C354.609 211.623 357.687 214.991 356.643 219.399C356.141 221.273 355.029 222.927 353.483 224.099C352.61 224.806 349.075 227.384 348.077 226.137C347.577 225.513 346.706 226.386 347.205 227.01C348.536 228.673 351.279 226.968 352.693 226.178C354.948 224.923 356.698 222.924 357.642 220.522C359.305 215.657 356.353 210.791 351.242 210.422C346.377 210.048 338.85 212.293 338.725 218.281C338.642 223.521 344.38 227.929 349.325 227.014C350.074 226.889 349.741 225.683 348.951 225.808L348.955 225.804Z" fill="#E8E8E8"/>
<path d="M29.7512 245.39C28.2067 247.145 26.8674 249.07 25.7592 251.129C25.3852 251.836 26.4661 252.46 26.8401 251.753C27.9138 249.79 29.1973 247.949 30.6681 246.263C31.1681 245.681 30.2941 244.763 29.7531 245.39H29.7512Z" fill="#161616"/>
<path d="M29.7106 245.889C30.9586 247.635 32.2106 249.34 33.4536 251.089C33.9106 251.754 34.9926 251.131 34.5346 250.465C33.2866 248.718 32.0346 247.013 30.7916 245.265C30.2916 244.6 29.2116 245.223 29.7106 245.889Z" fill="#161616"/>
<path d="M29.6279 248.343C30.0019 263.022 30.3349 277.702 30.7089 292.423C30.718 292.582 30.7876 292.732 30.9037 292.842C31.0197 292.952 31.1733 293.013 31.3329 293.013C31.4926 293.013 31.6462 292.952 31.7622 292.842C31.8783 292.732 31.9479 292.582 31.957 292.423C31.583 277.744 31.2499 263.064 30.8759 248.343C30.8339 247.553 29.5869 247.511 29.6279 248.343Z" fill="#161616"/>
<path d="M32.0809 293.588H87.4719C87.6313 293.579 87.7812 293.509 87.8908 293.393C88.0005 293.277 88.0615 293.124 88.0615 292.964C88.0615 292.804 88.0005 292.651 87.8908 292.535C87.7812 292.419 87.6313 292.349 87.4719 292.34H32.0809C31.9215 292.349 31.7716 292.419 31.662 292.535C31.5523 292.651 31.4912 292.804 31.4912 292.964C31.4912 293.124 31.5523 293.277 31.662 293.393C31.7716 293.509 31.9215 293.579 32.0809 293.588Z" fill="#161616"/>
<path d="M85.0585 292.339C86.3475 292.839 87.5955 293.339 88.8845 293.839C88.7185 293.381 88.5105 292.924 88.3435 292.467C87.7311 293.564 86.8423 294.481 85.7655 295.128C85.56 295.259 85.4134 295.465 85.3567 295.703C85.3 295.94 85.3375 296.19 85.4613 296.4C85.5852 296.61 85.7857 296.764 86.0208 296.829C86.2558 296.895 86.507 296.866 86.7215 296.75C88.0905 295.95 89.2238 294.802 90.0065 293.423C90.0776 293.3 90.12 293.163 90.1306 293.022C90.1412 292.88 90.1197 292.738 90.0676 292.606C90.0156 292.474 89.9344 292.356 89.8302 292.26C89.7259 292.164 89.6013 292.092 89.4656 292.051C88.1766 291.551 86.9285 291.051 85.6395 290.551C84.4335 290.093 83.9395 291.882 85.0575 292.339H85.0585Z" fill="#161616"/>
<path d="M44.5136 291.215C50.3766 279.447 51.2916 266.181 54.7436 253.664C55.6166 250.464 56.4906 246.719 58.9016 244.307C62.4366 240.772 66.9276 243.267 68.3826 247.426C69.4636 250.586 69.5056 254.246 69.7136 257.573C69.9216 261.149 70.0876 264.726 70.2956 268.302C70.7526 275.954 71.5436 283.647 74.1216 290.924C74.3716 291.673 75.5766 291.34 75.3276 290.591C72.6276 282.94 71.8756 274.831 71.4606 266.763C71.2526 262.813 71.0866 258.82 70.7956 254.87C70.5466 251.71 70.4216 248.258 68.9246 245.389C68.3807 244.229 67.5331 243.238 66.4714 242.52C65.4098 241.803 64.1739 241.386 62.8946 241.314C60.1946 241.314 57.9456 243.185 56.5736 245.348C54.7856 248.217 53.9536 251.835 53.1226 255.079C52.2076 258.697 51.4596 262.356 50.7106 266.016C49.0476 274.416 47.3426 282.858 43.4746 290.592C43.0586 291.299 44.1396 291.923 44.5146 291.216L44.5136 291.215Z" fill="#4C4C4C"/>
<path d="M50.2116 239.651C49.3796 238.445 51.0846 236.823 52.0826 238.151C53.0386 239.399 51.2506 240.646 50.2526 239.69C49.6706 239.149 48.7976 240.023 49.3796 240.563C49.8217 240.966 50.3882 241.207 50.9855 241.245C51.5828 241.283 52.1751 241.115 52.6646 240.771C52.923 240.585 53.1401 240.347 53.3024 240.073C53.4647 239.799 53.5686 239.494 53.6076 239.178C53.6467 238.862 53.62 238.541 53.5293 238.235C53.4386 237.93 53.2859 237.647 53.0806 237.403C52.8947 237.139 52.6561 236.916 52.3799 236.748C52.1036 236.581 51.7958 236.472 51.4755 236.429C51.1553 236.386 50.8296 236.41 50.519 236.499C50.2083 236.588 49.9195 236.74 49.6706 236.946C49.2089 237.353 48.9057 237.91 48.8142 238.518C48.7227 239.127 48.8489 239.748 49.1706 240.273C49.5866 240.938 50.6706 240.315 50.2106 239.649L50.2116 239.651Z" fill="#4C4C4C"/>
<path d="M59.4017 234.121C58.7367 233.165 60.1917 232.291 60.8157 233.289C61.4807 234.37 59.6097 235.576 58.9857 234.37C58.6117 233.663 57.5717 234.287 57.9047 234.994C58.0449 235.253 58.2368 235.48 58.4685 235.661C58.7001 235.842 58.9665 235.974 59.2512 236.048C59.5359 236.122 59.8327 236.137 60.1233 236.092C60.414 236.046 60.6922 235.941 60.9407 235.784C61.4809 235.486 61.8808 234.986 62.0523 234.393C62.2239 233.801 62.1531 233.164 61.8556 232.624C61.5641 232.133 61.095 231.773 60.5454 231.618C59.9958 231.463 59.4077 231.526 58.9027 231.792C58.435 232.095 58.1039 232.569 57.9797 233.113C57.8555 233.656 57.9481 234.227 58.2377 234.703C58.7787 235.41 59.8597 234.786 59.4017 234.121Z" fill="#4C4C4C"/>
<path d="M55.7839 224.972C55.4509 224.016 56.4909 223.017 57.3229 223.808C58.1549 224.599 57.1979 225.721 56.2419 225.388C55.4929 225.139 55.1609 226.344 55.9089 226.594C56.3811 226.75 56.892 226.743 57.3597 226.574C57.8274 226.405 58.2249 226.084 58.4885 225.662C58.7521 225.24 58.8665 224.743 58.8135 224.248C58.7604 223.754 58.5429 223.291 58.1959 222.935C57.8374 222.568 57.3597 222.342 56.8489 222.296C56.338 222.25 55.8277 222.389 55.4099 222.686C55.0061 222.974 54.7066 223.385 54.5565 223.857C54.4065 224.33 54.414 224.838 54.5779 225.306C54.8689 226.055 56.0779 225.763 55.7839 224.973V224.972Z" fill="#4C4C4C"/>
<path d="M71.6684 236.075C71.5434 235.992 71.7104 236.117 71.7514 236.2V236.325H71.9174C72.0456 236.333 72.1719 236.361 72.2914 236.408C72.1492 236.206 71.9967 236.012 71.8344 235.826V236.826C71.9765 236.624 72.129 236.43 72.2914 236.244C71.9747 236.375 71.6253 236.404 71.2914 236.327C70.5424 236.078 70.2104 237.283 70.9584 237.533C71.5035 237.715 72.0971 237.685 72.6214 237.45C72.8714 237.325 73.0784 237.159 73.0784 236.868V235.868C73.0808 235.733 73.0366 235.602 72.9534 235.496C72.8701 235.39 72.7529 235.316 72.6214 235.286C71.9564 235.12 71.1654 235.036 70.7504 235.702C70.6573 235.82 70.5914 235.958 70.5575 236.104C70.5236 236.251 70.5225 236.403 70.5543 236.55C70.5862 236.697 70.6501 236.835 70.7415 236.955C70.833 237.074 70.9497 237.172 71.0834 237.241C71.2286 237.322 71.3987 237.345 71.5603 237.307C71.7218 237.268 71.8631 237.171 71.9564 237.033C72.0314 236.865 72.0433 236.676 71.9898 236.501C71.9363 236.325 71.8211 236.175 71.6654 236.077L71.6684 236.075Z" fill="#4C4C4C"/>
<path d="M141.115 70.528C141.323 70.611 140.865 72.69 141.073 73.189C141.232 73.4896 141.464 73.7459 141.747 73.9346C142.03 74.1233 142.356 74.2386 142.695 74.27C143.573 74.3528 144.449 74.1002 145.148 73.563C145.896 73.106 147.685 71.525 148.225 73.272C148.35 73.646 147.934 74.561 148.059 75.06C148.433 76.723 150.013 76.64 151.136 75.767C151.502 75.4233 151.837 75.0475 152.136 74.644C152.552 73.644 153.176 73.438 153.966 74.02C153.963 74.2614 154.006 74.5011 154.091 74.727C154.507 75.351 154.715 75.767 155.546 75.727C156.336 75.685 156.336 74.438 155.546 74.479C155.588 74.479 154.673 72.608 154.174 72.4C153.874 72.3036 153.556 72.2796 153.245 72.3302C152.934 72.3808 152.64 72.5045 152.386 72.691C152.03 72.9227 151.709 73.2027 151.43 73.523C150.806 74.147 150.848 75.062 149.85 74.438C148.894 73.856 149.684 72.938 149.018 72.109C147.937 70.737 146.107 71.485 144.943 72.234C144.278 72.65 142.614 74.147 142.198 71.943C142.156 71.652 142.406 71.194 142.406 70.903C142.453 70.6341 142.409 70.3571 142.281 70.116C142.153 69.8749 141.948 69.6834 141.699 69.572C141.034 69.072 140.41 70.154 141.117 70.528H141.115Z" fill="#282828"/>
<path d="M97.6173 167.794C98.1173 173.616 98.6173 179.438 99.1563 185.26C99.1672 185.418 99.2377 185.566 99.3534 185.674C99.4691 185.782 99.6215 185.842 99.7798 185.842C99.938 185.842 100.09 185.782 100.206 185.674C100.322 185.566 100.392 185.418 100.403 185.26C100.403 185.135 100.445 184.969 100.445 184.844C100.528 184.054 99.2813 184.054 99.1973 184.844C99.1973 184.969 99.1553 185.135 99.1553 185.26H100.402C99.9023 179.438 99.4023 173.616 98.8633 167.794C98.7803 167.004 97.5323 166.962 97.6153 167.794H97.6173Z" fill="#353434"/>
<path d="M98.5756 168.252C100.323 167.878 103.358 167.337 104.689 168.793C105.895 170.082 105.604 172.619 105.77 174.365C106.061 177.858 106.352 181.351 106.643 184.803C106.726 185.593 107.974 185.593 107.891 184.803C107.475 179.813 107.434 174.573 106.602 169.625C105.978 165.758 101.154 166.465 98.2436 167.047C97.4536 167.213 97.7866 168.419 98.5766 168.253L98.5756 168.252Z" fill="#353434"/>
<path d="M109.22 144.798C110.55 158.102 111.009 171.48 110.592 184.844C110.55 185.634 111.798 185.634 111.84 184.844C112.256 171.48 111.798 158.103 110.468 144.798C110.385 144.008 109.137 143.966 109.22 144.798Z" fill="#353434"/>
<path d="M110.715 144.798C112.526 144.903 114.322 145.181 116.079 145.63C118.2 146.379 117.867 150.204 118.079 152.159C118.453 155.943 118.703 159.727 118.952 163.512C119.409 171.371 119.576 179.231 119.742 187.09C119.753 187.248 119.824 187.396 119.939 187.504C120.055 187.612 120.207 187.672 120.366 187.672C120.524 187.672 120.676 187.612 120.792 187.504C120.908 187.396 120.978 187.248 120.989 187.09C120.781 178.025 120.573 168.918 119.949 159.852C119.658 155.61 119.449 151.327 118.785 147.127C118.203 143.551 113.92 144.008 111.05 143.551C110.26 143.509 109.927 144.674 110.717 144.799L110.715 144.798Z" fill="#353434"/>
<path d="M121.279 136.98C122.693 152.78 124.121 168.568 125.562 184.345C125.645 185.135 126.893 185.135 126.81 184.345C125.396 168.545 123.969 152.757 122.527 136.98C122.485 136.19 121.238 136.19 121.279 136.98Z" fill="#353434"/>
<path d="M122.071 137.604C124.07 137.216 126.115 137.118 128.142 137.313C129.847 137.479 131.053 137.813 131.136 139.642C131.178 140.266 131.178 140.931 131.178 141.555C131.303 144.674 131.428 147.793 131.594 150.911C132.135 162.846 132.758 174.739 133.382 186.674C133.424 187.464 134.671 187.464 134.63 186.674C133.965 173.783 133.299 160.933 132.717 148.042C132.592 145.342 132.468 142.678 132.384 139.975C132.342 138.769 132.342 137.563 131.22 136.775C130.021 136.18 128.688 135.908 127.353 135.985C125.471 135.875 123.583 136.015 121.739 136.401C120.949 136.567 121.282 137.773 122.072 137.607L122.071 137.604Z" fill="#353434"/>
<path d="M88.6769 132.987C87.3049 135.687 85.9769 138.393 84.6019 141.096C84.2279 141.803 85.3089 142.427 85.6829 141.72C87.0549 139.02 88.3829 136.314 89.7579 133.611C90.0909 132.904 89.0089 132.239 88.6769 132.987Z" fill="#161616"/>
<path d="M88.8425 134.235C89.4029 136.631 90.7318 138.778 92.6265 140.348C93.2505 140.848 94.1265 139.974 93.4995 139.475C91.7777 138.056 90.566 136.114 90.0485 133.944C90.0099 133.784 89.9094 133.646 89.769 133.56C89.6286 133.474 89.4599 133.448 89.3 133.487C89.1401 133.525 89.002 133.626 88.9162 133.766C88.8304 133.906 88.8039 134.075 88.8425 134.235Z" fill="#161616"/>
<path d="M87.9695 134.818C87.7156 153.043 90.0966 171.209 95.0385 188.753C95.0874 188.907 95.1943 189.037 95.3367 189.114C95.479 189.191 95.6458 189.211 95.8019 189.167C95.9581 189.124 96.0914 189.022 96.174 188.883C96.2565 188.744 96.2818 188.578 96.2445 188.42C91.3341 170.985 88.967 152.932 89.2165 134.82C89.2056 134.662 89.1351 134.514 89.0194 134.406C88.9037 134.298 88.7513 134.238 88.593 134.238C88.4348 134.238 88.2824 134.298 88.1667 134.406C88.051 134.514 87.9805 134.662 87.9695 134.82V134.818Z" fill="#161616"/>
<path d="M96.5369 189.833C106.27 188.918 116.029 188.433 125.813 188.378C134.92 188.336 144.775 187.962 153.176 192.078C153.883 192.411 154.507 191.371 153.8 190.997C145.649 187.005 136.334 187.088 127.435 187.13C117.122 187.13 106.822 187.615 96.5349 188.585C95.7449 188.668 95.7449 189.916 96.5349 189.833H96.5369Z" fill="#161616"/>
<path d="M148.059 187.796C150.3 189.149 152.439 190.664 154.459 192.329L154.584 191.329C152.884 192.618 151.216 193.907 149.511 195.196C148.887 195.696 149.511 196.776 150.135 196.277C151.835 194.988 153.503 193.699 155.208 192.41C155.289 192.358 155.358 192.289 155.41 192.208C155.461 192.127 155.494 192.035 155.506 191.939C155.518 191.844 155.509 191.747 155.479 191.655C155.449 191.564 155.399 191.48 155.333 191.41C153.242 189.672 151.017 188.1 148.68 186.71C148.537 186.627 148.367 186.605 148.207 186.648C148.047 186.691 147.91 186.795 147.828 186.939C147.745 187.082 147.723 187.252 147.765 187.412C147.808 187.572 147.913 187.708 148.056 187.791L148.059 187.796Z" fill="#161616"/>
<path d="M91.8362 155.901L93.7072 158.147C93.7775 158.212 93.8614 158.262 93.9528 158.291C94.0442 158.321 94.141 158.33 94.2364 158.318C94.3317 158.306 94.4233 158.273 94.5047 158.222C94.586 158.171 94.6551 158.103 94.7072 158.022C98.0342 151.493 101.319 144.922 104.687 138.394C105.56 136.731 106.766 138.103 108.014 138.56C108.802 138.824 109.658 138.794 110.426 138.477C112.426 137.728 113.753 135.649 114.668 133.82C116.168 130.701 117.496 127.458 118.951 124.297C119.325 123.424 119.741 122.55 120.115 121.719C120.294 121.036 120.59 120.389 120.988 119.806C122.277 118.642 125.438 121.306 126.519 121.968C128.307 123.049 130.885 125.461 133.219 124.837C134.966 124.38 135.797 122.467 136.296 120.886C138.51 113.85 141.975 107.271 146.526 101.466C146.622 101.366 146.683 101.238 146.698 101.101C146.714 100.964 146.684 100.825 146.613 100.707C146.542 100.588 146.434 100.497 146.305 100.446C146.177 100.395 146.035 100.388 145.902 100.426C143.768 101.135 141.771 102.204 139.997 103.586C139.415 104.043 140.163 104.875 140.746 104.586C142.368 103.796 144.031 102.964 145.653 102.174C145.362 102.049 145.029 101.925 144.738 101.8C145.238 104.3 145.738 106.79 146.193 109.285C146.359 110.075 147.565 109.742 147.399 108.952C146.899 106.452 146.399 103.962 145.944 101.467C145.917 101.376 145.87 101.292 145.807 101.222C145.743 101.151 145.664 101.096 145.577 101.06C145.489 101.024 145.394 101.008 145.299 101.014C145.204 101.02 145.112 101.047 145.029 101.093C143.407 101.883 141.744 102.715 140.122 103.505L140.871 104.505C142.474 103.236 144.29 102.264 146.235 101.636C146.027 101.303 145.819 100.929 145.611 100.596C141.973 105.07 139.016 110.057 136.837 115.396C136.255 116.81 135.756 118.265 135.298 119.721C134.924 120.885 134.342 123.38 132.798 123.63C131.051 123.921 128.806 121.93 127.392 121.052C125.978 120.174 124.606 119.222 123.15 118.432C121.487 117.559 120.45 117.891 119.615 119.513C118.035 122.632 116.746 125.959 115.29 129.161C114.209 131.573 112.837 136.438 109.884 137.228C107.884 137.769 106.058 134.775 104.27 136.521C103.23 137.521 102.69 139.39 102.07 140.638C101.114 142.509 100.199 144.338 99.2422 146.21C97.3712 149.91 95.4582 153.61 93.5872 157.31L94.5872 157.185L92.7162 154.939C92.1752 154.398 91.3022 155.272 91.8432 155.895L91.8362 155.901Z" fill="#161616"/>
<path d="M272.854 52.563C268.779 50.317 267.032 44.62 269.61 40.587C272.23 36.47 278.592 35.722 282.293 38.757C286.077 41.917 286.119 48.405 282.501 51.69C278.758 55.142 272.479 54.227 269.401 50.401C268.901 49.777 268.029 50.65 268.528 51.274C269.987 52.9896 271.95 54.2022 274.137 54.7396C276.324 55.2771 278.624 55.112 280.712 54.268C282.658 53.3853 284.262 51.8924 285.283 50.0157C286.303 48.1389 286.684 45.9806 286.367 43.868C286.144 41.7646 285.204 39.802 283.705 38.3102C282.205 36.8183 280.238 35.8882 278.133 35.676C273.933 35.176 269.442 37.256 267.862 41.332C267.034 43.5622 267.022 46.0136 267.829 48.2516C268.636 50.4896 270.209 52.3695 272.27 53.558C272.935 54.015 273.559 52.934 272.852 52.558L272.854 52.563Z" fill="#353434"/>
<path d="M290.902 60.2149C289.155 56.9709 293.647 53.3949 295.892 56.8879C297.892 59.9649 292.981 62.294 291.401 59.425C291.027 58.718 289.946 59.3419 290.32 60.0489C290.838 60.8961 291.651 61.5219 292.603 61.806C293.555 62.0901 294.578 62.0124 295.476 61.5879C295.963 61.3783 296.396 61.0627 296.746 60.6641C297.095 60.2655 297.351 59.7939 297.494 59.2839C297.638 58.7738 297.666 58.2381 297.576 57.7158C297.487 57.1935 297.282 56.6978 296.976 56.2649C296.7 55.7758 296.325 55.3491 295.876 55.0117C295.426 54.6744 294.912 54.4337 294.365 54.3048C293.818 54.176 293.251 54.1617 292.698 54.2629C292.145 54.3641 291.62 54.5786 291.154 54.893C290.247 55.5621 289.61 56.5341 289.358 57.6327C289.107 58.7313 289.257 59.8837 289.782 60.8809C290.239 61.5459 291.32 60.923 290.905 60.216L290.902 60.2149Z" fill="#353434"/>
<path d="M269.028 374.759H367.167C367.327 374.75 367.477 374.68 367.586 374.564C367.696 374.448 367.757 374.295 367.757 374.135C367.757 373.975 367.696 373.822 367.586 373.706C367.477 373.59 367.327 373.52 367.167 373.511H269.028C268.863 373.511 268.704 373.577 268.587 373.694C268.47 373.811 268.404 373.97 268.404 374.135C268.404 374.301 268.47 374.459 268.587 374.576C268.704 374.693 268.863 374.759 269.028 374.759Z" fill="#161616"/>
<path d="M174.756 393.639H240.044C240.203 393.63 240.353 393.56 240.463 393.444C240.572 393.328 240.633 393.175 240.633 393.015C240.633 392.855 240.572 392.702 240.463 392.586C240.353 392.47 240.203 392.4 240.044 392.391H174.756C174.596 392.4 174.446 392.47 174.337 392.586C174.227 392.702 174.166 392.855 174.166 393.015C174.166 393.175 174.227 393.328 174.337 393.444C174.446 393.56 174.596 393.63 174.756 393.639Z" fill="#161616"/>
<path d="M239.212 388.65H295.767C295.926 388.641 296.076 388.571 296.186 388.455C296.295 388.339 296.356 388.186 296.356 388.026C296.356 387.866 296.295 387.713 296.186 387.597C296.076 387.481 295.926 387.411 295.767 387.402H239.212C239.052 387.411 238.902 387.481 238.793 387.597C238.683 387.713 238.622 387.866 238.622 388.026C238.622 388.186 238.683 388.339 238.793 388.455C238.902 388.571 239.052 388.641 239.212 388.65Z" fill="#161616"/>
<path d="M87.2209 385.239H104.271C104.514 385.231 104.744 385.129 104.913 384.954C105.082 384.78 105.176 384.546 105.176 384.303C105.176 384.06 105.082 383.827 104.913 383.652C104.744 383.478 104.514 383.376 104.271 383.368H87.2209C86.978 383.376 86.7478 383.478 86.5789 383.652C86.4099 383.827 86.3154 384.06 86.3154 384.303C86.3154 384.546 86.4099 384.78 86.5789 384.954C86.7478 385.129 86.978 385.231 87.2209 385.239Z" fill="#161616"/>
<path d="M110.092 385.239H115.914C116.157 385.231 116.387 385.129 116.556 384.954C116.725 384.78 116.819 384.546 116.819 384.303C116.819 384.06 116.725 383.827 116.556 383.652C116.387 383.478 116.157 383.376 115.914 383.368H110.092C109.849 383.376 109.619 383.478 109.45 383.652C109.281 383.827 109.187 384.06 109.187 384.303C109.187 384.546 109.281 384.78 109.45 384.954C109.619 385.129 109.849 385.231 110.092 385.239Z" fill="#161616"/>
<path d="M63.0195 309.722C63.8095 309.847 64.8905 310.845 65.7195 315.585L73.0795 316.085C75.1175 314.385 77.1545 312.675 79.1925 310.929C79.4835 312.592 79.8575 315.046 80.1925 318.04C80.9415 324.985 80.4835 326.648 80.9415 330.515C81.6432 336.153 83.5585 341.573 86.5555 346.4C89.9655 351.764 92.2105 351.931 94.8725 357.17C96.5032 360.463 97.5047 364.031 97.8255 367.691C98.2415 367.649 103.525 367.234 106.89 371.35C108.429 373.263 110.134 376.839 108.844 379.667C107.597 382.412 104.727 381.996 99.5295 386.528C97.6995 388.108 95.9535 389.688 96.3695 390.936C96.7855 392.225 99.0305 391.976 102.981 394.096C105.06 395.219 106.058 395.796 106.391 396.796C107.639 400.414 99.7375 405.986 98.5735 406.818C94.7475 409.479 90.0905 411.559 89.5085 410.727C88.6355 409.479 98.0335 402.618 96.6195 399.957C95.5795 397.957 89.6745 400.457 88.3025 398.257C86.8025 395.845 92.0865 389.815 94.9145 386.53C100.362 380.209 103.814 378.63 103.231 376.508C102.607 374.262 97.8675 372.765 95.4135 374.308C93.3345 375.597 93.7505 378.508 92.9605 380.421C91.4605 384.08 84.3105 387.075 59.6925 384.33C60.434 382.848 61.4991 381.552 62.8091 380.537C64.119 379.522 65.6403 378.815 67.2605 378.467C65.7968 376.103 65.2876 373.27 65.836 370.544C66.3844 367.818 67.9494 365.402 70.2135 363.788C68.5505 360.503 66.8865 356.927 65.3065 353.018C64.3065 350.481 63.3935 348.028 62.6065 345.658C60.0492 345.8 57.5259 345.019 55.4955 343.458C52.3765 340.713 53.6245 337.345 50.3805 334.892C47.3445 332.563 43.7265 333.603 43.1035 331.607C43.0137 331.122 43.0507 330.622 43.2111 330.156C43.3714 329.69 43.6495 329.273 44.0185 328.946C45.5985 327.446 48.4265 328.197 51.5035 329.029C54.5018 329.864 57.3705 331.109 60.0285 332.729C58.0336 329.925 56.8928 326.603 56.7435 323.165C56.4485 316.338 60.6085 309.389 63.0195 309.722Z" fill="#161616"/>
<path d="M61.5639 339.579C58.6949 340.827 59.7759 349.268 60.8149 356.961C61.6777 363.324 62.9839 369.618 64.7239 375.799C58.9019 380.29 59.1929 381.579 59.3599 381.912C59.9009 383.035 63.7679 382.369 64.9739 382.162C66.42 382.008 67.8275 381.599 69.1319 380.956C72.0839 379.002 70.5459 373.056 69.6319 363.574C68.3009 349.851 69.8819 344.112 65.4739 340.827C64.8909 340.37 62.9779 338.956 61.5639 339.579Z" fill="#161616"/>
<path d="M33.1206 356.795C33.5265 356.622 33.9161 356.413 34.2846 356.171C34.2016 356.129 34.2017 356.795 34.2017 356.961C34.0966 357.551 34.0547 358.15 34.0767 358.749C34.1036 358.933 34.1673 359.11 34.2642 359.27C34.3611 359.429 34.489 359.567 34.6404 359.675C34.7918 359.784 34.9635 359.861 35.1453 359.902C35.3272 359.943 35.5153 359.946 35.6986 359.913C36.1326 359.855 36.5387 359.667 36.8626 359.372C37.086 359.163 37.3221 358.969 37.5696 358.79C37.6343 359.133 37.676 359.481 37.6946 359.83C37.7394 360.222 37.9322 360.583 38.2336 360.838C38.5351 361.093 38.9224 361.223 39.3166 361.202C40.1066 361.119 40.1066 359.871 39.3166 359.954C38.9006 359.996 38.7756 357.754 38.0686 357.501C37.9256 357.452 37.7737 357.434 37.6232 357.448C37.4727 357.463 37.3269 357.509 37.1956 357.584C36.5716 357.875 35.6567 359.206 35.3657 358.042C35.1577 357.169 36.0307 355.921 35.2407 355.173C34.4917 354.466 33.2406 355.298 32.5406 355.673C32.3917 355.75 32.2796 355.883 32.2288 356.043C32.1781 356.203 32.193 356.377 32.2701 356.525C32.3473 356.674 32.4805 356.787 32.6404 356.837C32.8002 356.888 32.9737 356.873 33.1226 356.796L33.1206 356.795Z" fill="#F1FFFC"/>
<path d="M61.7302 323.279C61.9025 323.124 62.1066 323.008 62.3283 322.939C62.55 322.871 62.784 322.852 63.0137 322.884C63.2435 322.916 63.4636 322.997 63.6586 323.123C63.8535 323.249 64.0186 323.416 64.1423 323.612C64.4753 324.112 65.2653 323.654 64.9323 323.155C64.7317 322.843 64.4662 322.578 64.1539 322.379C63.8416 322.179 63.4899 322.049 63.1228 321.998C62.7557 321.946 62.3818 321.975 62.0267 322.081C61.6716 322.187 61.3437 322.369 61.0653 322.614C60.6493 323.03 61.3152 323.695 61.7302 323.279Z" fill="#F1FFFC"/>
<path d="M70.6297 322.987C70.9983 322.625 71.49 322.415 72.0065 322.4C72.5229 322.385 73.0262 322.565 73.4157 322.904C73.8727 323.32 74.5387 322.655 74.0807 322.239C73.516 321.72 72.7726 321.438 72.0055 321.454C71.2385 321.469 70.507 321.78 69.9637 322.322C69.5477 322.738 70.2137 323.403 70.6287 322.987H70.6297Z" fill="#F1FFFC"/>
<path d="M63.3517 327.853C62.8947 328.768 60.9398 331.928 63.0608 332.178C63.9338 332.261 64.7608 331.471 65.2608 330.889C65.9219 330.026 66.4294 329.055 66.7608 328.02C67.0518 327.271 65.8457 326.939 65.5547 327.687C65.1823 328.865 64.5088 329.926 63.6008 330.764C63.3928 330.93 63.2678 331.221 63.3508 330.847C63.4041 330.596 63.5027 330.356 63.6418 330.14C63.8908 329.599 64.1418 329.059 64.4318 328.518C64.7648 327.728 63.6828 327.104 63.3508 327.853H63.3517Z" fill="#EC615B"/>
<path d="M64.4711 328.518C64.9799 328.253 65.4664 327.947 65.9261 327.603C65.7601 327.645 65.5931 327.645 65.4261 327.686C65.4681 327.686 65.5091 327.728 65.5511 327.728C65.4261 327.645 65.3011 327.52 65.1771 327.437C65.1771 327.187 65.1351 327.187 64.9691 327.479C64.848 327.609 64.7367 327.748 64.636 327.895C64.4422 328.134 64.2616 328.384 64.0951 328.643C63.7211 329.225 63.3881 329.807 63.0551 330.431C62.6811 331.138 63.762 331.762 64.136 331.055C64.51 330.39 64.885 329.683 65.3 329.055C65.633 328.555 66.34 328.015 66.381 327.392C66.391 327.285 66.3794 327.177 66.3469 327.075C66.3144 326.973 66.2616 326.878 66.1917 326.797C66.1218 326.715 66.0362 326.649 65.9401 326.601C65.8439 326.553 65.7392 326.525 65.632 326.519C65.5002 326.513 65.3686 326.537 65.2466 326.587C65.1245 326.637 65.0148 326.713 64.925 326.81C64.5682 327.094 64.1772 327.331 63.761 327.517C63.137 327.725 63.761 328.806 64.468 328.517L64.4711 328.518Z" fill="#EC615B"/>
<path d="M63.2279 327.811C63.9094 327.827 64.5748 327.602 65.1072 327.176C65.6395 326.75 66.0048 326.15 66.1388 325.482C66.2218 324.9 65.3489 324.65 65.2239 325.232C65.1557 325.708 64.9133 326.141 64.5438 326.448C64.1743 326.755 63.704 326.915 63.2239 326.895C62.5999 326.853 62.5999 327.768 63.2239 327.81L63.2279 327.811Z" fill="#F1FFFC"/>
<path d="M65.35 325.191C65.4263 326.006 65.8154 326.761 66.4356 327.296C67.0559 327.83 67.8591 328.104 68.677 328.06C69.259 328.018 69.259 327.06 68.677 327.104C68.1055 327.159 67.5349 326.991 67.085 326.634C66.6352 326.277 66.3413 325.76 66.265 325.191C66.223 324.609 65.309 324.609 65.35 325.191Z" fill="#F1FFFC"/>
<path d="M318.058 246.804C304.293 263.479 290.542 280.141 276.806 296.789L341.553 312.882C342.914 296.91 339.774 280.876 332.488 266.598C328.691 259.318 323.827 252.646 318.058 246.804Z" fill="#15A44A"/>
<path d="M272.771 300.157C294.561 305.646 316.365 311.122 338.183 316.583C337.472 326.86 333.461 336.632 326.747 344.445C308.783 329.682 290.791 314.92 272.771 300.157Z" fill="#2C643C"/>
<path d="M269.57 374.137C309.601 374.137 342.052 340.866 342.052 299.825C342.052 258.784 309.601 225.513 269.57 225.513C229.539 225.513 197.088 258.784 197.088 299.825C197.088 340.866 229.539 374.137 269.57 374.137Z" stroke="#161616" stroke-width="3" stroke-miterlimit="10"/>
<path d="M270.488 298.244C270.543 298.211 270.603 298.189 270.666 298.179C270.729 298.169 270.794 298.172 270.856 298.188C270.917 298.203 270.976 298.231 271.027 298.269C271.078 298.307 271.121 298.355 271.153 298.41C271.195 298.244 271.195 298.077 271.236 297.91C271.194 297.993 271.07 297.952 271.028 297.91C270.952 297.887 270.872 297.88 270.792 297.889C270.713 297.898 270.636 297.922 270.566 297.961C270.497 297.999 270.435 298.052 270.386 298.114C270.337 298.177 270.3 298.249 270.279 298.326C270.241 298.48 270.263 298.643 270.34 298.782C270.418 298.92 270.544 299.025 270.695 299.074C270.938 299.159 271.2 299.173 271.451 299.114C271.701 299.055 271.93 298.925 272.109 298.741C272.197 298.647 272.265 298.536 272.309 298.415C272.353 298.294 272.371 298.166 272.364 298.037C272.356 297.909 272.322 297.783 272.264 297.668C272.206 297.553 272.125 297.451 272.026 297.369C271.72 297.049 271.301 296.862 270.858 296.846C270.415 296.831 269.984 296.988 269.656 297.286C269.59 297.34 269.536 297.406 269.496 297.481C269.457 297.556 269.432 297.639 269.425 297.723C269.418 297.808 269.428 297.893 269.454 297.974C269.481 298.055 269.523 298.13 269.579 298.194C269.634 298.258 269.702 298.31 269.779 298.347C269.855 298.384 269.938 298.406 270.023 298.41C270.108 298.415 270.193 298.402 270.273 298.373C270.353 298.345 270.426 298.3 270.488 298.242V298.244Z" fill="#161616"/>
<path d="M314.315 241.855C301.043 261.162 286.789 279.775 271.608 297.62C271.108 298.244 271.982 299.12 272.481 298.493C287.741 280.573 302.065 261.877 315.396 242.479C315.854 241.814 314.772 241.19 314.315 241.855Z" fill="#161616"/>
<path d="M270.983 299.034C294.436 303.234 317.723 308.196 340.845 313.921C341.002 313.958 341.168 313.933 341.308 313.85C341.447 313.768 341.549 313.635 341.592 313.478C341.635 313.322 341.616 313.155 341.539 313.013C341.462 312.871 341.332 312.764 341.178 312.715C318.057 307.018 294.77 302.055 271.316 297.828C270.526 297.703 270.193 298.909 270.983 299.034Z" fill="#161616"/>
<path d="M270.9 298.826C288.657 315.085 306.954 330.735 325.791 345.775C326.415 346.275 327.291 345.401 326.664 344.902C307.868 329.89 289.571 314.24 271.772 297.953C271.19 297.412 270.272 298.286 270.899 298.826H270.9Z" fill="#161616"/>
<path opacity="0.21" d="M269.611 225.68C271.15 232.541 272.189 242.314 268.405 252.294C259.797 275.082 234.805 276.205 225.324 294.794C220.167 304.898 218.88 321.615 235.18 350.723V365.402C229.617 362.303 224.485 358.486 219.918 354.049C200.498 335.049 197.504 310.219 196.88 300.779C196.922 293.959 197.88 271.795 214.221 252C217.921 247.509 231.063 232.123 253.435 227.174C258.746 226.022 264.178 225.52 269.611 225.68Z" fill="#6D6C6C"/>
<path d="M146.521 342.282C149.39 349.518 152.26 356.712 155.087 363.947C153.387 367.69 150.762 373.22 147.144 379.832C142.403 388.482 140.158 391.393 140.906 392.266C141.987 393.514 149.015 390.395 176.294 369.977C174.594 365.236 172.842 360.454 171.137 355.589C168.641 348.522 166.216 341.522 163.86 334.589C158.122 337.167 152.343 339.731 146.521 342.282Z" fill="#161616"/>
<path d="M223.202 215.533C227.818 223.392 224.533 235.577 224.075 237.199C221.538 246.639 215.8 247.553 194.758 267.472C181.576 279.989 177.792 285.062 175.005 290.635C171.984 296.783 170.055 303.411 169.305 310.221C171.01 320.201 172.715 330.14 174.42 340.121C168.754 343.823 162.593 346.706 156.12 348.687C151.363 350.135 146.472 351.096 141.52 351.556C135.22 335.93 133.029 318.95 135.158 302.237C138.734 275.748 152.748 258.407 164.392 244.019C179.685 225.283 198.671 209.896 220.167 198.816C219.322 202.932 219.61 207.201 220.999 211.167C221.581 212.695 222.319 214.158 223.202 215.533Z" fill="#E0E0E0"/>
<path opacity="0.2" d="M216.299 204.264C212.014 215.984 206.272 227.119 199.208 237.407C182.366 261.9 169.933 263.896 159.994 286.643C155.492 297.275 152.739 308.566 151.844 320.077C150.995 329.647 151.344 339.286 152.884 348.77C155.742 348.669 158.576 348.222 161.326 347.439C166.168 346.045 170.651 343.619 174.467 340.328C173.76 336.96 172.72 331.97 171.556 325.857C169.976 317.374 169.186 313.091 169.186 310.057C169.186 301.116 172.97 294.38 176.047 289.015C177.503 286.478 181.747 279.451 196.59 265.852C212.267 251.505 218.796 249.01 222.913 238.489C224.559 234.394 225.365 230.01 225.283 225.598C224.907 214.664 218.752 207.009 216.299 204.264Z" fill="#6D6C6C"/>
<path opacity="0.27" d="M225.239 229.006C216.714 236.159 204.53 246.846 190.516 260.569C170.181 280.53 166.563 286.351 164.983 289.262C160.575 297.371 153.007 315.835 160.492 346.649C162.945 345.649 165.482 344.528 168.143 343.239C170.264 342.199 172.301 341.118 174.214 340.079C172.55 330.346 170.887 320.601 169.224 310.845C169.379 305.612 170.449 300.447 172.384 295.583C174.079 291.546 176.287 287.744 178.954 284.272C182.364 279.614 185.654 276.454 192.095 270.341C197.251 265.434 202.242 260.278 207.606 255.62C217.254 247.261 221.578 244.974 223.906 238.529C224.988 235.477 225.442 232.238 225.239 229.006Z" fill="#6D6C6C"/>
<path d="M192.306 341.367L211.269 355.967C202.869 377.258 202.869 382.789 204.569 383.745C207.397 385.367 216.669 375.345 221.951 367.985C225.708 362.701 228.743 356.939 230.975 350.852C228.397 347.567 225.444 344.152 222.159 340.664C218.003 336.248 213.603 332.068 208.981 328.143C203.451 332.593 197.878 336.959 192.306 341.367Z" fill="#161616"/>
<path d="M257.176 215.532C260.876 225.346 258.632 234.832 258.049 237.197C253.807 254.829 238.049 269.383 232.475 274.457C222.952 283.19 215.051 287.557 210.643 299.2C209.407 302.393 208.596 305.735 208.231 309.139C211.267 316.084 214.302 323.015 217.338 329.931C214.006 337.255 208.763 343.547 202.16 348.145C198.944 350.34 195.445 352.089 191.76 353.345C185.439 346.899 168.306 327.771 169.221 302.196C169.928 282.568 181.031 266.766 189.597 254.496C198.205 242.229 200.409 243.726 211.263 228.048C220.663 214.448 222.449 208.254 230.35 205.509C238.293 202.723 249.936 204.261 255.05 211.164C255.939 212.525 256.654 213.992 257.176 215.532Z" fill="#E0E0E0"/>
<path opacity="0.24" d="M237.841 213.661C238.562 219.668 238.181 225.755 236.718 231.625C230.064 257.366 205.696 259.611 193.969 287.473C191.682 292.921 186.359 306.103 190.559 321.364C193.803 333.257 201.371 340.992 205.659 344.735C208.307 343.335 210.63 341.392 212.479 339.035C214.682 336.207 216.154 332.879 216.762 329.346C213.809 322.235 210.857 315.083 207.946 307.972C208.682 303.581 210.128 299.339 212.229 295.413C215.805 288.676 220.129 285.266 225.702 280.235C235.932 271.045 242.461 265.223 248.116 257.197C251.692 252.082 256.89 244.555 258.595 233.535C259.668 226.505 259.2 219.325 257.223 212.493C250.774 212.913 244.286 213.287 237.841 213.661Z" fill="#E0E0E0"/>
<path opacity="0.25" d="M259.006 227.01C254.049 236.118 248.124 244.665 241.332 252.501C224.532 271.838 213.138 275.871 205.32 290.759C201.952 297.159 198.874 307.725 202.659 324.692C207.441 326.605 212.265 328.518 217.047 330.472C214.011 323.319 211.017 316.209 207.982 309.056C208.346 304.093 209.749 299.262 212.099 294.876C214.719 290.052 217.63 287.516 224.034 281.694C234.634 272.046 239.961 267.223 242.123 264.811C247.072 259.363 252.478 253.251 255.888 243.811C257.867 238.427 258.922 232.746 259.006 227.01Z" fill="#6D6C6C"/>
<path d="M157.791 157.564C156.238 154.009 153.974 150.809 151.137 148.164C146.646 144.047 140.367 141.095 139.369 142.301C138.953 142.801 138.995 144.547 146.563 152.901" fill="#F1FFFC"/>
<path d="M157.791 157.564C156.238 154.009 153.974 150.809 151.137 148.164C146.646 144.047 140.367 141.095 139.369 142.301C138.953 142.801 138.995 144.547 146.563 152.901" stroke="#161616" stroke-width="2" stroke-miterlimit="10"/>
<path d="M142.112 150.744C139.449 152.325 137.342 154.693 136.082 157.522C135.223 159.17 134.945 161.06 135.292 162.886C136.248 166.545 140.656 168.086 141.031 168.25C142.819 168.874 143.277 168.416 144.566 169.165C146.645 170.371 146.566 171.993 148.101 173.49C151.261 176.526 157.665 175.32 157.957 174.031C158.123 173.324 156.294 172.659 156.457 171.37C156.54 170.58 157.33 170.247 157.871 169.748C160.782 167.087 157.996 159.31 157.497 158.021C156.869 156.305 156.06 154.66 155.085 153.114" fill="#F1FFFC"/>
<path d="M142.112 150.744C139.449 152.325 137.342 154.693 136.082 157.522C135.223 159.17 134.945 161.06 135.292 162.886C136.248 166.545 140.656 168.086 141.031 168.25C142.819 168.874 143.277 168.416 144.566 169.165C146.645 170.371 146.566 171.993 148.101 173.49C151.261 176.526 157.665 175.32 157.957 174.031C158.123 173.324 156.294 172.659 156.457 171.37C156.54 170.58 157.33 170.247 157.871 169.748C160.782 167.087 157.996 159.31 157.497 158.021C156.869 156.305 156.06 154.66 155.085 153.114" stroke="#161616" stroke-width="2" stroke-miterlimit="10"/>
<path d="M134.586 162.346C135.031 163.612 135.734 164.772 136.65 165.753C137.566 166.734 138.676 167.515 139.909 168.046C142.487 169.086 144.4 167.713 144.442 164.969C144.433 164.809 144.363 164.66 144.247 164.55C144.131 164.44 143.977 164.379 143.818 164.379C143.658 164.379 143.505 164.44 143.388 164.55C143.272 164.66 143.203 164.809 143.194 164.969C143.152 168.169 139.994 167.007 138.412 165.718C137.216 164.748 136.31 163.468 135.792 162.018C135.501 161.269 134.292 161.561 134.586 162.351V162.346Z" fill="#161616"/>
<path d="M137.705 158.936C138.952 161.265 140.616 163.843 143.194 164.799C145.523 165.672 146.894 164.258 147.144 162.054C147.227 161.264 145.98 161.264 145.897 162.054C145.523 165.339 142.321 163.054 141.197 161.888C140.225 160.818 139.412 159.614 138.785 158.312C138.411 157.605 137.329 158.229 137.704 158.936H137.705Z" fill="#161616"/>
<path d="M141.448 153.323C142.143 155.019 142.992 156.647 143.985 158.188C144.692 159.228 145.69 160.725 147.062 160.974C150.306 161.598 149.262 156.982 148.642 155.402C148.351 154.654 147.142 154.986 147.436 155.735C147.727 156.442 148.351 157.897 148.101 158.687C147.394 160.974 145.481 158.146 145.065 157.564C144.072 156.023 143.223 154.395 142.528 152.699C142.195 151.95 141.114 152.574 141.447 153.323H141.448Z" fill="#161616"/>
<path d="M142.071 151.451C143.319 150.827 144.857 151.951 145.73 152.782C146.565 153.639 147.216 154.658 147.643 155.776C147.934 156.524 149.143 156.192 148.849 155.443C147.809 152.865 144.732 148.743 141.449 150.37C140.742 150.703 141.366 151.784 142.073 151.451H142.071Z" fill="#161616"/>
<path d="M232.268 138.685C233.599 142.636 231.561 146.004 225.868 156.15C216.304 173.033 215.721 174.53 213.517 177.192C208.317 183.43 205.366 186.964 199.917 189.252C189.978 193.411 178.958 189.752 172.929 187.464C168.453 185.735 164.252 183.368 160.454 180.436C158.624 178.936 157.21 177.775 156.296 177.068C154.383 175.529 153.51 174.868 152.761 173.533C152.284 172.67 151.973 171.725 151.846 170.747C151.222 166.297 155.63 162.555 155.963 162.264C150.682 163.512 148.852 163.264 148.519 162.514C147.729 160.851 153.468 154.738 157.501 156.114C159.414 156.738 160.37 158.9 161.077 160.48C162.081 162.736 162.441 165.226 162.117 167.674C165.415 169.946 169.049 171.685 172.887 172.83C179.67 174.776 186.851 174.863 193.679 173.08C195.8 169.67 199.251 164.098 203.451 157.153C214.928 138.107 217.964 132.078 223.245 131.994C227.194 131.948 231.103 135.233 232.268 138.685Z" fill="#F1FFFC" stroke="#161616" stroke-width="2" stroke-miterlimit="10"/>
<path d="M155.586 163.345C152.01 163.179 151.511 167.795 151.053 170.414C151.469 170.456 151.885 170.539 152.259 170.58C152.406 168.988 152.949 167.458 153.839 166.13C153.922 165.987 153.944 165.816 153.902 165.656C153.859 165.496 153.754 165.36 153.611 165.277C153.467 165.195 153.297 165.172 153.137 165.215C152.977 165.258 152.841 165.363 152.758 165.506C151.136 168.126 150.138 171.369 152.384 173.948L153.257 173.075C152.95 172.812 152.703 172.487 152.53 172.121C152.358 171.756 152.265 171.358 152.257 170.954C151.841 170.996 151.425 171.079 151.051 171.12C151.253 171.781 151.518 172.422 151.841 173.033C152.215 173.74 153.297 173.116 152.922 172.409C152.616 171.907 152.392 171.359 152.257 170.787C152.091 170.122 150.968 170.246 151.051 170.953C151.12 172.087 151.609 173.154 152.423 173.947C153.005 174.529 153.837 173.656 153.296 173.074C151.466 170.953 152.631 168.25 153.878 166.129C153.504 165.921 153.171 165.713 152.797 165.505C151.789 167.018 151.188 168.765 151.05 170.578C151.008 171.285 152.173 171.451 152.256 170.744C152.589 168.831 152.88 164.506 155.583 164.589C156.373 164.631 156.373 163.383 155.583 163.342L155.586 163.345Z" fill="#F1FFFC"/>
<path opacity="0.21" d="M225.906 133.694C222.23 143.54 217.694 153.044 212.35 162.094C205.53 173.694 201.95 179.518 195.799 182.594C183.157 188.873 163.654 184.632 157.084 172.614C155.428 169.491 154.585 166.001 154.63 162.467C152.586 163.278 150.323 163.352 148.23 162.675C142.907 160.554 142.408 152.612 139.58 152.695C137.709 152.778 136.336 156.313 135.837 157.602C135.081 159.178 134.819 160.947 135.088 162.675C135.753 165.627 138.872 167.956 142.781 168.705C144.332 169.431 145.729 170.447 146.898 171.699C148.27 173.199 148.645 174.36 150.098 175.067C151.222 175.563 152.472 175.694 153.674 175.441C156.541 177.767 159.555 179.904 162.698 181.841C171.264 187.081 181.619 193.401 193.346 191.241C197.544 190.405 201.514 188.677 204.986 186.174C208.77 183.637 212.845 179.812 220.58 165.881C224.704 158.442 228.41 150.778 231.68 142.926C232.02 142.052 232.177 141.117 232.141 140.18C232.105 139.243 231.878 138.323 231.472 137.478C230.937 136.43 230.147 135.534 229.174 134.873C228.201 134.212 227.077 133.806 225.906 133.694Z" fill="#6D6C6C"/>
<path opacity="0.22" d="M147.228 162.595C146.646 163.011 146.895 163.843 146.188 164.466C145.726 164.786 145.167 164.933 144.608 164.882C144.636 165.588 144.447 166.286 144.067 166.882C143.485 167.714 142.695 167.882 142.736 168.213C142.819 168.587 143.983 168.379 145.106 169.003C145.778 169.414 146.325 170.002 146.686 170.703C149.431 168.083 152.175 165.503 154.92 162.885C153.449 163.505 151.821 163.651 150.263 163.301C148.933 162.886 147.939 162.096 147.228 162.595Z" fill="#6D6C6C"/>
<path d="M231.934 130.534C229.148 133.32 227.692 136.481 224.865 142.801C221.194 150.439 218.806 158.63 217.796 167.045C216.465 179.354 219.584 182.145 217.089 191.289C215.551 196.835 212.811 201.974 209.063 206.342C214.3 211.607 220.652 215.629 227.651 218.11C238.508 221.783 250.285 221.695 261.085 217.861C264.785 207.881 268.445 197.9 272.146 187.961C272.188 179.519 272.52 172.325 272.853 166.753C273.685 153.446 275.053 143.253 275.93 137.062C276.93 129.785 277.968 123.672 278.758 119.181C271.172 119.571 263.616 120.432 256.136 121.759C238.006 125.081 233.723 128.745 231.934 130.534Z" fill="#F1FFFC" stroke="#161616" stroke-width="2" stroke-miterlimit="10"/>
<path opacity="0.19" d="M253.974 122.051C256.733 128.62 258.364 135.607 258.798 142.719C260.087 164.177 249.733 180.977 241.873 193.702C236.883 201.768 231.086 209.306 224.573 216.202C228.766 218.402 233.288 219.904 237.963 220.652C245.667 221.856 253.552 221.025 260.835 218.24C264.328 208.177 267.78 198.155 271.273 188.091C271.481 181.23 271.855 174.119 272.396 166.883C273.643 150 275.681 134.156 278.176 119.435L253.974 122.051Z" fill="#6D6C6C"/>
<path opacity="0.11" d="M261.415 120.761C265.499 131.11 267.341 142.208 266.821 153.322C264.821 191.039 234.967 213.869 229.811 217.695C233.882 219.152 238.137 220.034 242.453 220.315C248.514 220.699 254.591 219.88 260.334 217.903C264.16 207.84 268.027 197.818 271.853 187.754C271.853 178.564 272.186 168.754 272.976 158.354C273.975 145.369 275.657 132.446 278.015 119.638L261.415 120.761Z" fill="#6D6C6C"/>
<path d="M277.22 118.641C281.932 120.261 286.066 123.224 289.113 127.166C293.105 132.614 293.978 139.184 291.691 160.018C289.57 179.396 287.741 183.555 287.034 195.199C286.41 205.219 286.926 215.278 288.573 225.181L302.795 221.813C306.491 222.73 309.877 224.61 312.609 227.261C314.148 228.761 317.391 231.918 316.476 234.497C315.894 236.16 313.776 236.997 312.858 237.325C311.289 237.893 309.603 238.065 307.951 237.825C304.5 237.617 301.051 237.492 297.597 237.325C295.104 237.198 292.606 237.198 290.112 237.325C294.312 240.943 296.1 243.272 295.56 244.311C294.812 245.683 289.821 244.727 280.548 241.483C280.132 238.115 279.467 233 278.469 226.762C275.891 210.462 274.019 204.639 272.769 195.989C271.48 187.048 271.896 178.981 272.769 162.889C273.436 151.493 274.642 136.441 277.22 118.641Z" fill="#F1FFFC" stroke="#161616" stroke-width="2" stroke-miterlimit="10"/>
<path d="M296.516 231.79C299.716 230.459 303.045 231.208 306.122 232.58C308.79 233.619 311.243 235.141 313.358 237.071C313.94 237.612 314.813 236.738 314.231 236.198C311.798 233.993 308.959 232.284 305.872 231.166C302.753 229.877 299.385 229.295 296.141 230.625C295.476 230.874 295.808 232.08 296.515 231.789L296.516 231.79Z" fill="#161616"/>
<path d="M300.592 227.966C306.123 226.885 312.692 230.166 315.729 234.866C316.186 235.531 317.268 234.908 316.81 234.242C313.4 229.042 306.41 225.592 300.259 226.798C299.469 226.923 299.802 228.129 300.592 227.962V227.966Z" fill="#161616"/>
<path d="M305.373 225.097C307.518 225.308 309.583 226.021 311.403 227.176C312.11 227.55 312.734 226.469 312.027 226.095C310.011 224.846 307.734 224.077 305.374 223.849C304.584 223.807 304.584 225.055 305.374 225.096L305.373 225.097Z" fill="#161616"/>
<path opacity="0.16" d="M277.803 119.639C280.954 126.705 283.149 134.159 284.332 141.804C287.95 165.84 279.051 178.357 280.632 204.347C281.227 213.788 283.044 223.111 286.038 232.084C290.66 230.575 295.55 230.063 300.385 230.584C304.585 231.084 306.664 231.333 308.744 232.83C310.824 234.327 312.029 236.323 314.15 236.198C314.627 236.197 315.096 236.079 315.517 235.855C315.937 235.63 316.296 235.305 316.562 234.909C317.685 232.871 314.608 229.378 313.568 228.209C310.831 225.169 307.281 222.976 303.338 221.888L288.617 224.882C287.118 218.289 286.31 211.558 286.205 204.797C286.08 197.312 287.411 188.246 290.114 170.365C290.614 167.038 291.237 160.343 292.526 146.911C292.942 142.503 293.275 138.553 291.777 133.687C291.028 131.234 289.199 125.661 283.793 122.168C281.982 120.939 279.947 120.079 277.803 119.639Z" fill="#6D6C6C"/>
<path opacity="0.22" d="M286.909 237.074C287.757 239.21 289.165 241.077 290.984 242.48C292.439 243.561 294.976 244.892 295.434 244.351C296.016 243.686 293.812 240.026 290.402 238.196C289.315 237.614 288.132 237.233 286.909 237.074Z" fill="#6D6C6C"/>
<path opacity="0.4" d="M291.568 153.863C285.967 169.095 283.56 185.317 284.499 201.519C285.059 210.603 286.678 219.591 289.323 228.299C287.623 221.855 286.619 215.246 286.329 208.588C285.829 196.154 288.075 189.168 290.404 166.338C290.986 161.057 291.36 156.691 291.568 153.863Z" fill="#6D6C6C"/>
<path opacity="0.22" d="M299.968 227.01C299.885 226.51 304.043 224.598 308.16 225.51C313.691 226.758 316.269 232.579 316.726 233.702C314.212 230.697 310.826 228.546 307.037 227.548C303.168 226.677 300.008 227.426 299.968 227.01Z" fill="#6D6C6C"/>
<path d="M216.631 110.116C214.884 111.738 214.51 115.148 213.803 121.843C213.013 129.536 212.68 133.443 214.303 135.4C217.256 138.976 223.618 139.184 228.026 137.23C233.226 134.901 235.012 129.87 235.47 128.622C237.508 122.842 236.842 114.109 230.688 110.117C226.525 107.371 220.083 106.914 216.631 110.116Z" fill="#212121"/>
<path d="M225.613 116.187C226.237 119.181 229.564 119.431 232.391 124.213C234.042 127.115 234.904 130.398 234.891 133.736C238.789 133.659 242.626 132.76 246.152 131.097C249.678 129.435 252.813 127.046 255.351 124.088C254.311 122.388 252.773 119.888 250.943 116.894C243.043 104.211 241.878 103.213 240.297 102.794C233.888 101.259 224.407 110.615 225.613 116.187Z" fill="#F1FFFC" stroke="#161616" stroke-width="2" stroke-miterlimit="10"/>
<path opacity="0.74" d="M214.22 124.046C214.294 125.157 214.593 126.241 215.1 127.233C215.607 128.224 216.31 129.102 217.167 129.812C218.024 130.523 219.017 131.052 220.085 131.366C221.153 131.681 222.274 131.774 223.38 131.642C224.485 131.509 225.552 131.152 226.515 130.594C227.478 130.035 228.318 129.286 228.982 128.393C229.646 127.499 230.122 126.48 230.379 125.396C230.637 124.313 230.671 123.189 230.48 122.092C231.687 123.483 232.644 125.074 233.308 126.792C233.855 128.19 234.192 129.661 234.308 131.158C233.684 132.198 230.441 137.358 224.369 138.352C223.329 138.518 217.424 139.392 214.638 135.852C213.561 134.198 213.024 132.252 213.099 130.28C213.041 128.147 213.423 126.025 214.22 124.046Z" fill="#161616"/>
<path d="M196.754 81.2559C194.841 84.7909 195.299 88.3669 196.213 95.3559C197.294 103.256 198.713 109.869 200.413 114.235C200.535 114.554 200.762 114.823 201.057 114.996C201.351 115.17 201.696 115.238 202.035 115.191C203.09 114.939 204.12 114.59 205.112 114.151C206.476 116.584 208.249 118.764 210.352 120.597C214.093 123.778 218.696 125.776 223.576 126.336C228.752 124.428 233.163 120.879 236.135 116.231C237.872 113.418 239.005 110.274 239.462 106.999C239.945 102.683 239.165 98.3205 237.216 94.4399C238.503 93.6819 239.577 92.6085 240.335 91.3209C242.248 87.9529 242.165 82.3799 239.129 80.8829C236.842 79.7599 233.229 81.0079 230.771 84.2099C229.723 82.3709 228.437 80.6789 226.945 79.1779C224.745 76.924 222.152 75.0918 219.293 73.7719C211.808 70.8189 200.663 74.0619 196.754 81.2559Z" fill="#F1FFFC" stroke="#161616" stroke-width="2" stroke-miterlimit="10"/>
<path d="M238.546 111.156C236.749 115.238 234.562 119.137 232.017 122.8L233.017 122.675C232.767 122.384 232.517 122.051 232.31 121.76C232.262 122.007 232.234 122.257 232.227 122.509C233.276 121.62 234.175 120.567 234.887 119.391C234.513 119.183 234.18 118.975 233.806 118.767C233.326 119.913 232.415 120.824 231.269 121.304L232.017 122.304C234.178 120.26 236.141 118.017 237.88 115.604C238.337 114.939 237.256 114.315 236.799 114.98C235.129 117.308 233.235 119.467 231.144 121.426C230.603 121.926 231.31 122.674 231.893 122.426C233.231 121.837 234.299 120.769 234.887 119.432C234.97 119.289 234.993 119.118 234.95 118.958C234.907 118.798 234.802 118.662 234.659 118.579C234.516 118.497 234.345 118.474 234.185 118.517C234.025 118.56 233.889 118.665 233.806 118.808C233.115 119.866 232.29 120.83 231.352 121.677C231.25 121.771 231.186 121.898 231.17 122.036C231.155 122.174 231.19 122.312 231.269 122.426C231.514 122.858 231.822 123.25 232.184 123.59C232.255 123.655 232.339 123.705 232.43 123.734C232.521 123.764 232.618 123.773 232.714 123.761C232.809 123.749 232.901 123.716 232.982 123.665C233.063 123.614 233.132 123.546 233.184 123.465C235.738 119.807 237.926 115.907 239.715 111.821C239.964 111.073 238.883 110.449 238.551 111.156H238.546Z" fill="#161616"/>
<path d="M207.443 117.352C210.312 116.603 211.976 114.192 213.431 111.821C213.847 111.156 212.766 110.532 212.35 111.197C211.061 113.276 209.605 115.48 207.11 116.187C206.32 116.353 206.653 117.559 207.443 117.351V117.352Z" fill="#161616"/>
<path d="M211.434 110.947C211.825 110.96 212.209 111.055 212.56 111.228C212.912 111.4 213.222 111.645 213.472 111.947C214.013 112.571 214.886 111.656 214.345 111.074C213.983 110.654 213.536 110.315 213.035 110.079C212.533 109.842 211.988 109.714 211.434 109.702C210.602 109.66 210.602 110.908 211.434 110.95V110.947Z" fill="#161616"/>
<path d="M209.853 103.462V103.337C209.853 103.171 209.788 103.013 209.671 102.896C209.554 102.779 209.395 102.713 209.229 102.713C209.064 102.713 208.905 102.779 208.788 102.896C208.671 103.013 208.605 103.171 208.605 103.337V103.462C208.61 103.626 208.677 103.782 208.793 103.899C208.909 104.015 209.065 104.082 209.229 104.086C209.391 104.075 209.544 104.006 209.658 103.891C209.773 103.776 209.842 103.624 209.853 103.462Z" fill="#161616"/>
<path d="M212.639 100.136C212.797 100.125 212.945 100.055 213.053 99.9388C213.161 99.8231 213.221 99.6707 213.221 99.5124C213.221 99.3542 213.161 99.2018 213.053 99.0861C212.945 98.9703 212.797 98.8999 212.639 98.8889C212.481 98.8999 212.334 98.9703 212.226 99.0861C212.118 99.2018 212.058 99.3542 212.058 99.5124C212.058 99.6707 212.118 99.8231 212.226 99.9388C212.334 100.055 212.481 100.125 212.639 100.136Z" fill="#161616"/>
<path d="M212.265 103.296C212.423 103.285 212.571 103.214 212.679 103.099C212.787 102.983 212.847 102.831 212.847 102.672C212.847 102.514 212.787 102.362 212.679 102.246C212.571 102.13 212.423 102.06 212.265 102.049C212.107 102.06 211.96 102.13 211.852 102.246C211.744 102.362 211.684 102.514 211.684 102.672C211.684 102.831 211.744 102.983 211.852 103.099C211.96 103.214 212.107 103.285 212.265 103.296Z" fill="#161616"/>
<path d="M196.464 93.3989C194.074 92.6416 192.027 91.0659 190.684 88.9489C188.147 84.6239 190.184 79.5919 191.184 77.222C191.725 75.891 193.222 72.6059 200.457 66.1609C205.946 61.2119 208.732 58.7609 211.851 57.3869C222.996 52.5219 234.39 57.1789 236.469 58.0519C239.546 59.2999 241.792 60.8379 246.241 63.8319C251.647 67.4909 255.098 69.8619 257.801 73.9369C261.086 78.9269 259.09 80.2159 261.918 85.8299C266.409 94.7299 272.605 93.6479 276.306 101.882C276.93 103.254 280.381 110.906 276.472 117.601C273.272 123.049 266.741 125.001 261.917 124.878C253.143 124.628 247.57 117.226 244.41 112.985C240.34 107.481 237.814 100.991 237.091 94.1849C241.125 91.7729 242.497 87.4479 241.083 84.7039C240.043 82.7499 237.174 80.7949 234.637 81.8759C233.733 82.3336 232.983 83.0465 232.48 83.9262C231.977 84.8059 231.744 85.8138 231.809 86.8249C228.144 87.4591 224.373 86.9775 220.985 85.4426C217.597 83.9077 214.748 81.3903 212.809 78.2169C209.193 79.6167 205.877 81.6912 203.037 84.3299C200.29 86.9084 198.059 89.9862 196.464 93.3989Z" fill="#212121"/>
<path opacity="0.24" d="M223.577 95.811C226.789 98.8476 229.362 102.495 231.145 106.54C233.292 111.542 234.137 117.008 233.599 122.425C235.099 119.888 236.551 117.352 238.048 114.774C240.46 120.18 242.83 125.586 245.242 130.95C247.57 130.428 249.73 129.327 251.521 127.75C252.955 126.482 254.103 124.922 254.889 123.176C248.54 118.663 243.572 112.471 240.543 105.295C239.088 101.801 238.136 98.1189 237.715 94.358C241.291 91.821 242.622 87.746 241.291 84.835C240.459 82.964 238.047 80.593 235.344 81.342C234.158 81.7291 233.152 82.5312 232.51 83.6008C231.868 84.6703 231.634 85.9356 231.851 87.164C228.213 87.6255 224.519 87.0689 221.178 85.5561C217.838 84.0433 214.983 81.6336 212.931 78.595C214.054 85.955 216.882 89.948 219.252 92.235C220.749 93.773 221.373 93.773 223.577 95.811Z" fill="#6D6C6C"/>
<path opacity="0.24" d="M237.716 97.8069C237.425 97.8069 237.591 102.09 237.175 106.041C236.732 110.13 235.622 114.12 233.89 117.851C235.857 116.588 237.499 114.88 238.684 112.865C239.868 110.849 240.563 108.584 240.71 106.251C240.202 105.47 239.757 104.649 239.379 103.798C237.924 100.468 237.965 97.8069 237.716 97.8069Z" fill="#6D6C6C"/>
<path opacity="0.19" d="M239.171 112.24C240.505 113.627 241.922 114.932 243.413 116.149C248.944 120.765 254.313 123.385 254.474 123.094C254.635 122.803 249.401 120.682 245.409 114.943C242.909 111.367 241.458 107.125 240.835 107.333C240.544 107.416 240.793 108.414 240.294 110.033C240.015 110.814 239.638 111.555 239.171 112.24Z" fill="#6D6C6C"/>
<path opacity="0.74" d="M243.787 62.2939C247.79 69.2031 251.386 76.3399 254.557 83.668C261.169 99.096 260.628 103.337 259.713 106.082C257.675 112.282 252.02 115.771 248.651 117.435C251.183 121.027 254.962 123.547 259.251 124.504C260.457 124.753 267.734 126.126 273.265 121.094C276.046 118.503 277.778 114.979 278.13 111.194C278.879 104.208 274.72 98.9679 273.389 97.4709C271.642 95.5169 271.268 95.9709 267.189 92.0229C264.029 88.9869 262.489 87.4489 261.575 85.5359C260.12 82.417 261.075 81.086 259.375 77.136C258.634 75.4529 257.699 73.8619 256.589 72.3949C252.561 66.9509 246.74 63.7489 243.787 62.2939Z" fill="#161616"/>
<path d="M206.401 98.1419C206.817 98.9739 206.817 100.18 206.276 100.429C205.735 100.72 204.696 99.9288 204.322 99.0148C204.031 98.2248 204.114 97.1018 204.655 96.8938C205.237 96.6838 206.068 97.4329 206.401 98.1419Z" fill="#161616"/>
<path d="M202.991 97.183C204.454 96.6821 205.956 96.3064 207.482 96.06C208.064 95.977 207.815 95.06 207.233 95.145C205.707 95.3914 204.205 95.7671 202.742 96.268C202.682 96.2843 202.626 96.3123 202.577 96.3504C202.527 96.3885 202.486 96.436 202.455 96.49C202.424 96.5441 202.404 96.6036 202.396 96.6654C202.389 96.7272 202.393 96.7899 202.409 96.85C202.426 96.9101 202.454 96.9663 202.492 97.0156C202.53 97.0648 202.577 97.1061 202.631 97.137C202.685 97.1679 202.745 97.1879 202.807 97.1958C202.868 97.2037 202.931 97.1993 202.991 97.183Z" fill="#161616"/>
</g>
</svg>
