<svg width="13" height="13" viewBox="0 0 13 13" fill="none" xmlns="http://www.w3.org/2000/svg">
<path d="M7.90947 7.62675L8.81946 6.0506C8.87796 5.95291 8.85196 5.82916 8.76746 5.75752L7.80547 5.002C7.82497 4.85872 7.83797 4.70892 7.83797 4.55912C7.83797 4.40932 7.82497 4.25952 7.80547 4.10972L8.76746 3.35421C8.85196 3.28257 8.87796 3.15882 8.81946 3.06112L7.90947 1.48497C7.85097 1.38727 7.73397 1.3482 7.62997 1.38727L6.49898 1.84319C6.26498 1.66082 6.01149 1.51102 5.73199 1.39379L5.56299 0.188878C5.55208 0.136202 5.52362 0.088809 5.48228 0.0544851C5.44094 0.0201612 5.38917 0.000947426 5.33549 0H3.51551C3.40501 0 3.30751 0.0846693 3.28801 0.195391L3.11902 1.4003C2.84602 1.51754 2.58602 1.66733 2.35202 1.8497L1.22104 1.39379C1.11704 1.35471 1.00004 1.39379 0.94154 1.49148L0.0315497 3.06764C-0.0269497 3.16533 -0.000949872 3.28908 0.0835492 3.36072L1.04554 4.11623C1.02604 4.25952 1.01304 4.40932 1.01304 4.55912C1.01304 4.70892 1.02604 4.85872 1.04554 5.00852L0.0835492 5.76403C-0.000949872 5.83567 -0.0269497 5.95942 0.0315497 6.05711L0.94154 7.63327C1.00004 7.73096 1.11704 7.77004 1.22104 7.73096L2.35202 7.27505C2.58602 7.45742 2.83952 7.60721 3.11902 7.72445L3.28801 8.92936C3.30751 9.03357 3.40501 9.11824 3.51551 9.11824H5.33549C5.44599 9.11824 5.54349 9.03357 5.56299 8.92285L5.73199 7.71794C6.00499 7.6007 6.26498 7.4509 6.49898 7.26854L7.62997 7.72445C7.73397 7.76353 7.85097 7.72445 7.90947 7.62675ZM4.4255 5.86172C3.71051 5.86172 3.12552 5.27555 3.12552 4.55912C3.12552 3.84269 3.71051 3.25651 4.4255 3.25651C5.1405 3.25651 5.72549 3.84269 5.72549 4.55912C5.72549 5.27555 5.1405 5.86172 4.4255 5.86172ZM12.9469 10.8572L12.3229 10.3753C12.3359 10.2841 12.3489 10.1864 12.3489 10.0887C12.3489 9.99098 12.3424 9.89329 12.3229 9.8021L12.9404 9.32014C12.9924 9.27455 13.0119 9.19639 12.9729 9.13126L12.3879 8.12174C12.3554 8.05661 12.2774 8.03707 12.2059 8.05661L11.4844 8.3497C11.3349 8.23246 11.1724 8.13477 10.9904 8.06313L10.8799 7.29459C10.8774 7.25978 10.862 7.22717 10.8367 7.20309C10.8115 7.17902 10.7783 7.1652 10.7434 7.16433H9.57995C9.50845 7.16433 9.44345 7.21643 9.43695 7.28808L9.32645 8.05661C9.15095 8.13477 8.98195 8.22595 8.83246 8.34319L8.11096 8.0501C8.07784 8.03762 8.04138 8.03731 8.00805 8.04924C7.97472 8.06116 7.9467 8.08455 7.92897 8.11523L7.34397 9.12475C7.31147 9.18988 7.31797 9.26804 7.37647 9.31363L7.99397 9.79559C7.96716 9.9857 7.96716 10.1786 7.99397 10.3687L7.37647 10.8507C7.32447 10.8963 7.30497 10.9745 7.34397 11.0396L7.92897 12.0491C7.96147 12.1142 8.03946 12.1338 8.11096 12.1142L8.83246 11.8211C8.98195 11.9384 9.14445 12.0361 9.32645 12.1077L9.43695 12.8763C9.44995 12.9479 9.50845 13 9.57995 13H10.7434C10.8149 13 10.8799 12.9479 10.8864 12.8763L10.9969 12.1077C11.1724 12.0296 11.3414 11.9384 11.4844 11.8211L12.2124 12.1142C12.2774 12.1403 12.3554 12.1142 12.3944 12.0491L12.9794 11.0396C13.0184 10.981 12.9989 10.9028 12.9469 10.8572ZM10.1584 10.9614C9.92563 10.9613 9.70239 10.8686 9.53783 10.7036C9.37327 10.5386 9.28087 10.3148 9.28095 10.0815C9.28104 9.84823 9.3736 9.62454 9.53829 9.45965C9.70297 9.29476 9.92628 9.20217 10.1591 9.20225C10.3919 9.20234 10.6151 9.29509 10.7797 9.46011C10.9443 9.62512 11.0367 9.84888 11.0366 10.0822C11.0365 10.3154 10.9439 10.5391 10.7792 10.704C10.6146 10.8689 10.3913 10.9615 10.1584 10.9614Z" fill="#3E3E3E"/>
</svg>
