<svg width="10" height="14" viewBox="0 0 10 14" fill="none" xmlns="http://www.w3.org/2000/svg">
<path d="M5.83333 3.71875V0H0.625C0.278646 0 0 0.292578 0 0.65625V13.3438C0 13.7074 0.278646 14 0.625 14H9.375C9.72135 14 10 13.7074 10 13.3438V4.375H6.45833C6.11458 4.375 5.83333 4.07969 5.83333 3.71875ZM7.53073 9.62527H5.83333V11.8128C5.83333 12.0545 5.64687 12.2503 5.41667 12.2503H4.58333C4.35313 12.2503 4.16667 12.0545 4.16667 11.8128V9.62527H2.46927C2.0974 9.62527 1.91172 9.1525 2.17578 8.87715L4.68672 6.26035C4.8599 6.07961 5.13958 6.07961 5.31276 6.26035L7.8237 8.87715C8.08802 9.1525 7.9026 9.62527 7.53073 9.62527ZM9.81771 2.87109L7.26823 0.191406C7.15104 0.0683594 6.99219 0 6.82552 0H6.66667V3.5H10V3.3332C10 3.16094 9.9349 2.99414 9.81771 2.87109Z" fill="#3E3E3E"/>
</svg>
