<svg width="33" height="33" viewBox="0 0 33 33" fill="none" xmlns="http://www.w3.org/2000/svg">
<path d="M27.7895 8.68421V13.8774C27.7895 13.8774 24.3332 13.8947 24.3158 13.8774V8.68421H19.1053C19.1053 8.68421 19.1226 5.22789 19.1053 5.21053H24.3158V0H27.7895V5.21053H33V8.68421H27.7895ZM22.5789 15.6316V10.4211H17.3684V5.21053H3.47368C1.56316 5.21053 0 6.77368 0 8.68421V29.5263C0 31.4368 1.56316 33 3.47368 33H24.3158C26.2263 33 27.7895 31.4368 27.7895 29.5263V15.6316H22.5789ZM3.47368 29.5263L8.68421 22.5789L12.1579 27.7895L17.3684 20.8421L24.3158 29.5263H3.47368Z" fill="#9D9D9D"/>
</svg>
